Ardeco One.ufo
<glyph name="exclam" format="1">
  <advance width="220"/>
  <unicode hex="0021"/>
  <outline>
    <contour>
      <point x="90" y="180" type="line" name="hr00"/>
      <point x="130" y="180" type="line"/>
      <point x="160" y="430" type="line"/>
      <point x="160" y="700" type="line"/>
      <point x="60" y="700" type="line"/>
      <point x="60" y="430" type="line"/>
    </contour>
    <contour>
      <point x="150" y="0" type="line"/>
      <point x="150" y="80" type="line"/>
      <point x="70" y="80" type="line"/>
      <point x="70" y="0" type="line"/>
    </contour>
  </outline>
</glyph>
<glyph name="quotedbl" format="1">
  <advance width="300"/>
  <unicode hex="0022"/>
  <outline>
    <contour>
      <point x="100" y="510" type="line" name="hr00"/>
      <point x="120" y="700" type="line"/>
      <point x="40" y="700" type="line"/>
      <point x="60" y="510" type="line"/>
    </contour>
    <contour>
      <point x="240" y="510" type="line"/>
      <point x="260" y="700" type="line"/>
      <point x="180" y="700" type="line"/>
      <point x="200" y="510" type="line"/>
    </contour>
  </outline>
</glyph>
<glyph name="numbersign" format="1">
  <advance width="500"/>
  <unicode hex="0023"/>
  <outline>
    <contour>
      <point x="380" y="700" type="line" name="hr00"/>
      <point x="329" y="490" type="line"/>
      <point x="239" y="490" type="line"/>
      <point x="290" y="700" type="line"/>
      <point x="230" y="700" type="line"/>
      <point x="179" y="490" type="line"/>
      <point x="70" y="490" type="line"/>
      <point x="70" y="470" type="line"/>
      <point x="174" y="470" type="line"/>
      <point x="116" y="230" type="line"/>
      <point x="10" y="230" type="line"/>
      <point x="10" y="210" type="line"/>
      <point x="111" y="210" type="line"/>
      <point x="60" y="0" type="line"/>
      <point x="120" y="0" type="line"/>
      <point x="171" y="210" type="line"/>
      <point x="261" y="210" type="line"/>
      <point x="210" y="0" type="line"/>
      <point x="270" y="0" type="line"/>
      <point x="321" y="210" type="line"/>
      <point x="430" y="210" type="line"/>
      <point x="430" y="230" type="line"/>
      <point x="326" y="230" type="line"/>
      <point x="384" y="470" type="line"/>
      <point x="490" y="470" type="line"/>
      <point x="490" y="490" type="line"/>
      <point x="389" y="490" type="line"/>
      <point x="440" y="700" type="line"/>
    </contour>
    <contour>
      <point x="234" y="470" type="line"/>
      <point x="324" y="470" type="line"/>
      <point x="266" y="230" type="line"/>
      <point x="176" y="230" type="line"/>
    </contour>
  </outline>
</glyph>
<glyph name="dollar" format="1">
  <advance width="410"/>
  <unicode hex="0024"/>
  <outline>
    <contour>
      <point x="180" y="-80" type="line" name="hr00"/>
      <point x="210" y="-80" type="line"/>
      <point x="210" y="-10" type="line"/>
      <point x="220" y="-9"/>
      <point x="230" y="-7"/>
      <point x="240" y="-5" type="curve"/>
      <point x="240" y="-80" type="line"/>
      <point x="270" y="-80" type="line"/>
      <point x="270" y="4" type="line"/>
      <point x="335" y="33"/>
      <point x="380" y="102"/>
      <point x="380" y="200" type="curve" smooth="yes"/>
      <point x="380" y="294"/>
      <point x="326" y="360"/>
      <point x="270" y="415" type="curve"/>
      <point x="270" y="674" type="line"/>
      <point x="293" y="654"/>
      <point x="310" y="612"/>
      <point x="310" y="540" type="curve"/>
      <point x="370" y="610" type="line"/>
      <point x="354" y="650"/>
      <point x="319" y="690"/>
      <point x="270" y="704" type="curve"/>
      <point x="270" y="780" type="line"/>
      <point x="240" y="780" type="line"/>
      <point x="240" y="709" type="line"/>
      <point x="237" y="709"/>
      <point x="233" y="710"/>
      <point x="230" y="710" type="curve" smooth="yes"/>
      <point x="223" y="710"/>
      <point x="216" y="710"/>
      <point x="210" y="709" type="curve"/>
      <point x="210" y="780" type="line"/>
      <point x="180" y="780" type="line"/>
      <point x="180" y="702" type="line"/>
      <point x="115" y="682"/>
      <point x="70" y="626"/>
      <point x="70" y="570" type="curve" smooth="yes"/>
      <point x="70" y="489"/>
      <point x="123" y="431"/>
      <point x="180" y="377" type="curve"/>
      <point x="180" y="14" type="line"/>
      <point x="142" y="31"/>
      <point x="100" y="95"/>
      <point x="100" y="230" type="curve"/>
      <point x="30" y="160" type="line"/>
      <point x="48" y="68"/>
      <point x="108" y="2"/>
      <point x="180" y="-8" type="curve"/>
    </contour>
    <contour>
      <point x="210" y="10" type="curve"/>
      <point x="210" y="348" type="line"/>
      <point x="240" y="318" type="line"/>
      <point x="240" y="18" type="line"/>
      <point x="230" y="14"/>
      <point x="220" y="11"/>
    </contour>
    <contour>
      <point x="210" y="472" type="curve"/>
      <point x="210" y="688" type="line"/>
      <point x="216" y="689"/>
      <point x="223" y="690"/>
      <point x="230" y="690" type="curve" smooth="yes"/>
      <point x="233" y="690"/>
      <point x="236" y="690"/>
      <point x="240" y="689" type="curve"/>
      <point x="240" y="444" type="line"/>
      <point x="229" y="453"/>
      <point x="219" y="462"/>
    </contour>
    <contour>
      <point x="310" y="180" type="curve" smooth="yes"/>
      <point x="310" y="112"/>
      <point x="294" y="67"/>
      <point x="270" y="40" type="curve"/>
      <point x="270" y="283" type="line"/>
      <point x="294" y="252"/>
      <point x="310" y="219"/>
    </contour>
    <contour>
      <point x="140" y="590" type="curve" smooth="yes"/>
      <point x="140" y="628"/>
      <point x="156" y="657"/>
      <point x="180" y="674" type="curve"/>
      <point x="180" y="503" type="line"/>
      <point x="156" y="531"/>
      <point x="140" y="559"/>
    </contour>
  </outline>
</glyph>
<glyph name="percent" format="1">
  <advance width="520"/>
  <unicode hex="0025"/>
  <outline>
    <contour>
      <point x="110" y="0" type="line" name="hr00"/>
      <point x="460" y="700" type="line"/>
      <point x="410" y="700" type="line"/>
      <point x="60" y="0" type="line"/>
    </contour>
    <contour>
      <point x="145" y="690" type="curve" smooth="yes"/>
      <point x="170" y="690"/>
      <point x="200" y="660"/>
      <point x="200" y="600" type="curve" smooth="yes"/>
      <point x="200" y="540"/>
      <point x="170" y="510"/>
      <point x="145" y="510" type="curve" smooth="yes"/>
      <point x="120" y="510"/>
      <point x="90" y="540"/>
      <point x="90" y="600" type="curve" smooth="yes"/>
      <point x="90" y="660"/>
      <point x="120" y="690"/>
    </contour>
    <contour>
      <point x="145" y="710" type="curve" smooth="yes"/>
      <point x="80" y="710"/>
      <point x="30" y="660"/>
      <point x="30" y="600" type="curve" smooth="yes"/>
      <point x="30" y="540"/>
      <point x="80" y="490"/>
      <point x="145" y="490" type="curve" smooth="yes"/>
      <point x="210" y="490"/>
      <point x="260" y="540"/>
      <point x="260" y="600" type="curve" smooth="yes"/>
      <point x="260" y="660"/>
      <point x="210" y="710"/>
    </contour>
    <contour>
      <point x="375" y="190" type="curve" smooth="yes"/>
      <point x="400" y="190"/>
      <point x="430" y="160"/>
      <point x="430" y="100" type="curve" smooth="yes"/>
      <point x="430" y="40"/>
      <point x="400" y="10"/>
      <point x="375" y="10" type="curve" smooth="yes"/>
      <point x="350" y="10"/>
      <point x="320" y="40"/>
      <point x="320" y="100" type="curve" smooth="yes"/>
      <point x="320" y="160"/>
      <point x="350" y="190"/>
    </contour>
    <contour>
      <point x="375" y="210" type="curve" smooth="yes"/>
      <point x="310" y="210"/>
      <point x="260" y="160"/>
      <point x="260" y="100" type="curve" smooth="yes"/>
      <point x="260" y="40"/>
      <point x="310" y="-10"/>
      <point x="375" y="-10" type="curve" smooth="yes"/>
      <point x="440" y="-10"/>
      <point x="490" y="40"/>
      <point x="490" y="100" type="curve" smooth="yes"/>
      <point x="490" y="160"/>
      <point x="440" y="210"/>
    </contour>
  </outline>
</glyph>
<glyph name="ampersand" format="1">
  <advance width="535"/>
  <unicode hex="0026"/>
  <outline>
    <contour>
      <point x="450" y="330" type="curve" name="hr00"/>
      <point x="390" y="330" type="line"/>
      <point x="390" y="250"/>
      <point x="385" y="185"/>
      <point x="385" y="185" type="curve"/>
      <point x="235" y="405" type="line"/>
      <point x="235" y="405"/>
      <point x="370" y="480"/>
      <point x="370" y="580" type="curve" smooth="yes"/>
      <point x="370" y="650"/>
      <point x="310" y="710"/>
      <point x="235" y="710" type="curve" smooth="yes"/>
      <point x="160" y="710"/>
      <point x="100" y="650"/>
      <point x="100" y="570" type="curve" smooth="yes"/>
      <point x="100" y="490"/>
      <point x="180" y="400"/>
      <point x="180" y="400" type="curve"/>
      <point x="180" y="400"/>
      <point x="30" y="340"/>
      <point x="30" y="180" type="curve" smooth="yes"/>
      <point x="30" y="70"/>
      <point x="110" y="-10"/>
      <point x="230" y="-10" type="curve" smooth="yes"/>
      <point x="360" y="-10"/>
      <point x="395" y="90"/>
      <point x="395" y="90" type="curve"/>
      <point x="455" y="0" type="line"/>
      <point x="515" y="0" type="line"/>
      <point x="420" y="140" type="line"/>
      <point x="420" y="140"/>
      <point x="450" y="220"/>
    </contour>
    <contour>
      <point x="230" y="10" type="curve" smooth="yes"/>
      <point x="180" y="10"/>
      <point x="120" y="70"/>
      <point x="120" y="180" type="curve" smooth="yes"/>
      <point x="120" y="320"/>
      <point x="195" y="375"/>
      <point x="195" y="375" type="curve"/>
      <point x="370" y="120" type="line"/>
      <point x="370" y="120"/>
      <point x="340" y="10"/>
    </contour>
    <contour>
      <point x="180" y="570" type="curve" smooth="yes"/>
      <point x="180" y="660"/>
      <point x="210" y="690"/>
      <point x="235" y="690" type="curve" smooth="yes"/>
      <point x="260" y="690"/>
      <point x="290" y="660"/>
      <point x="290" y="580" type="curve" smooth="yes"/>
      <point x="290" y="490"/>
      <point x="220" y="435"/>
      <point x="220" y="435" type="curve"/>
      <point x="220" y="435"/>
      <point x="180" y="490"/>
    </contour>
  </outline>
</glyph>
<glyph name="quotesingle" format="1">
  <advance width="160"/>
  <unicode hex="0027"/>
  <outline>
    <contour>
      <point x="100" y="510" type="line" name="hr00"/>
      <point x="120" y="700" type="line"/>
      <point x="40" y="700" type="line"/>
      <point x="60" y="510" type="line"/>
    </contour>
  </outline>
</glyph>
<glyph name="parenleft" format="1">
  <advance width="270"/>
  <unicode hex="0028"/>
  <outline>
    <contour>
      <point x="60" y="300" type="curve" name="hr00"/>
      <point x="60" y="90"/>
      <point x="200" y="-100"/>
      <point x="200" y="-100" type="curve"/>
      <point x="240" y="-100" type="line"/>
      <point x="240" y="-100"/>
      <point x="150" y="80"/>
      <point x="150" y="300" type="curve"/>
      <point x="150" y="520"/>
      <point x="240" y="700"/>
      <point x="240" y="700" type="curve"/>
      <point x="200" y="700" type="line"/>
      <point x="200" y="700"/>
      <point x="60" y="510"/>
    </contour>
  </outline>
</glyph>
<glyph name="parenright" format="1">
  <advance width="270"/>
  <unicode hex="0029"/>
  <outline>
    <contour>
      <point x="210" y="300" type="curve" name="hr00"/>
      <point x="210" y="510"/>
      <point x="70" y="700"/>
      <point x="70" y="700" type="curve"/>
      <point x="30" y="700" type="line"/>
      <point x="30" y="700"/>
      <point x="120" y="520"/>
      <point x="120" y="300" type="curve"/>
      <point x="120" y="80"/>
      <point x="30" y="-100"/>
      <point x="30" y="-100" type="curve"/>
      <point x="70" y="-100" type="line"/>
      <point x="70" y="-100"/>
      <point x="210" y="90"/>
    </contour>
  </outline>
</glyph>
<glyph name="asterisk" format="1">
  <advance width="270"/>
  <unicode hex="002A"/>
  <outline>
    <contour>
      <point x="60" y="530" type="line" name="hr00"/>
      <point x="115" y="565" type="line"/>
      <point x="115" y="500" type="line"/>
      <point x="155" y="500" type="line"/>
      <point x="155" y="565" type="line"/>
      <point x="210" y="530" type="line"/>
      <point x="230" y="565" type="line"/>
      <point x="175" y="600" type="line"/>
      <point x="230" y="635" type="line"/>
      <point x="210" y="670" type="line"/>
      <point x="155" y="635" type="line"/>
      <point x="155" y="700" type="line"/>
      <point x="115" y="700" type="line"/>
      <point x="115" y="635" type="line"/>
      <point x="60" y="670" type="line"/>
      <point x="40" y="635" type="line"/>
      <point x="95" y="600" type="line"/>
      <point x="40" y="565" type="line"/>
    </contour>
  </outline>
</glyph>
<glyph name="plus" format="1">
  <advance width="350"/>
  <unicode hex="002B"/>
  <outline>
    <contour>
      <point x="190" y="460" type="line" name="hr00"/>
      <point x="160" y="460" type="line"/>
      <point x="160" y="320" type="line"/>
      <point x="30" y="320" type="line"/>
      <point x="30" y="290" type="line"/>
      <point x="160" y="290" type="line"/>
      <point x="160" y="150" type="line"/>
      <point x="190" y="150" type="line"/>
      <point x="190" y="290" type="line"/>
      <point x="320" y="290" type="line"/>
      <point x="320" y="320" type="line"/>
      <point x="190" y="320" type="line"/>
    </contour>
  </outline>
</glyph>
<glyph name="comma" format="1">
  <advance width="160"/>
  <unicode hex="002C"/>
  <outline>
    <contour>
      <point x="120" y="30" type="curve" name="hr00"/>
      <point x="120" y="80" type="line"/>
      <point x="40" y="80" type="line"/>
      <point x="40" y="0" type="line"/>
      <point x="60" y="0" type="line"/>
      <point x="60" y="0"/>
      <point x="70" y="-10"/>
      <point x="70" y="-20" type="curve" smooth="yes"/>
      <point x="70" y="-50"/>
      <point x="40" y="-90"/>
      <point x="40" y="-90" type="curve"/>
      <point x="55" y="-100" type="line"/>
      <point x="55" y="-100"/>
      <point x="120" y="-50"/>
    </contour>
  </outline>
</glyph>
<glyph name="hyphen" format="1">
  <advance width="360"/>
  <unicode hex="002D"/>
  <outline>
    <contour>
      <point x="330" y="290" type="line" name="hr00"/>
      <point x="330" y="320" type="line"/>
      <point x="30" y="320" type="line"/>
      <point x="30" y="290" type="line"/>
    </contour>
  </outline>
</glyph>
<glyph name="period" format="1">
  <advance width="160"/>
  <unicode hex="002E"/>
  <outline>
    <contour>
      <point x="120" y="0" type="line" name="hr00"/>
      <point x="120" y="80" type="line"/>
      <point x="40" y="80" type="line"/>
      <point x="40" y="0" type="line"/>
    </contour>
  </outline>
</glyph>
<glyph name="zero" format="1">
  <advance width="480"/>
  <unicode hex="0030"/>
  <outline>
    <contour>
      <point x="240" y="690" type="curve" name="hr00"/>
      <point x="280" y="690"/>
      <point x="350" y="620"/>
      <point x="350" y="350" type="curve" smooth="yes"/>
      <point x="350" y="80"/>
      <point x="280" y="10"/>
      <point x="240" y="10" type="curve"/>
      <point x="200" y="10"/>
      <point x="130" y="80"/>
      <point x="130" y="350" type="curve" smooth="yes"/>
      <point x="130" y="620"/>
      <point x="200" y="690"/>
    </contour>
    <contour>
      <point x="240" y="710" type="curve"/>
      <point x="160" y="710"/>
      <point x="40" y="590"/>
      <point x="40" y="350" type="curve" smooth="yes"/>
      <point x="40" y="110"/>
      <point x="160" y="-10"/>
      <point x="240" y="-10" type="curve"/>
      <point x="320" y="-10"/>
      <point x="440" y="110"/>
      <point x="440" y="350" type="curve" smooth="yes"/>
      <point x="440" y="590"/>
      <point x="320" y="710"/>
    </contour>
  </outline>
</glyph>
<glyph name="one" format="1">
  <advance width="260"/>
  <unicode hex="0031"/>
  <outline>
    <contour>
      <point x="20" y="540" type="line" name="hr00"/>
      <point x="20" y="515" type="line"/>
      <point x="110" y="605" type="line"/>
      <point x="110" y="0" type="line"/>
      <point x="190" y="0" type="line"/>
      <point x="190" y="720" type="line"/>
    </contour>
  </outline>
</glyph>
<glyph name="two" format="1">
  <advance width="380"/>
  <unicode hex="0032"/>
  <outline>
    <contour>
      <point x="260" y="550" type="curve" smooth="yes" name="hr00"/>
      <point x="260" y="300"/>
      <point x="0" y="0"/>
      <point x="0" y="0" type="curve"/>
      <point x="360" y="0" type="line"/>
      <point x="360" y="80" type="line"/>
      <point x="90" y="80" type="line"/>
      <point x="90" y="80"/>
      <point x="350" y="350"/>
      <point x="350" y="550" type="curve" smooth="yes"/>
      <point x="350" y="640"/>
      <point x="280" y="710"/>
      <point x="170" y="710" type="curve" smooth="yes"/>
      <point x="100" y="710"/>
      <point x="50" y="660"/>
      <point x="30" y="610" type="curve"/>
      <point x="90" y="540" type="line"/>
      <point x="90" y="650"/>
      <point x="130" y="690"/>
      <point x="170" y="690" type="curve" smooth="yes"/>
      <point x="220" y="690"/>
      <point x="260" y="650"/>
    </contour>
  </outline>
</glyph>
<glyph name="three" format="1">
  <advance width="390"/>
  <unicode hex="0033"/>
  <outline>
    <contour>
      <point x="110" y="450" type="line" name="hr00"/>
      <point x="140" y="450" type="line" smooth="yes"/>
      <point x="200" y="450"/>
      <point x="250" y="400"/>
      <point x="250" y="230" type="curve" smooth="yes"/>
      <point x="250" y="60"/>
      <point x="200" y="10"/>
      <point x="160" y="10" type="curve" smooth="yes"/>
      <point x="120" y="10"/>
      <point x="70" y="70"/>
      <point x="70" y="200" type="curve"/>
      <point x="0" y="140" type="line"/>
      <point x="20" y="50"/>
      <point x="80" y="-10"/>
      <point x="160" y="-10" type="curve" smooth="yes"/>
      <point x="260" y="-10"/>
      <point x="350" y="80"/>
      <point x="350" y="230" type="curve" smooth="yes"/>
      <point x="350" y="380"/>
      <point x="260" y="470"/>
      <point x="150" y="470" type="curve"/>
      <point x="340" y="700" type="line"/>
      <point x="40" y="700" type="line"/>
      <point x="40" y="620" type="line"/>
      <point x="250" y="620" type="line"/>
    </contour>
  </outline>
</glyph>
<glyph name="four" format="1">
  <advance width="410"/>
  <unicode hex="0034"/>
  <outline>
    <contour>
      <point x="10" y="260" type="line" name="hr00"/>
      <point x="250" y="260" type="line"/>
      <point x="250" y="0" type="line"/>
      <point x="330" y="0" type="line"/>
      <point x="330" y="260" type="line"/>
      <point x="400" y="260" type="line"/>
      <point x="400" y="280" type="line"/>
      <point x="330" y="280" type="line"/>
      <point x="330" y="700" type="line"/>
      <point x="250" y="700" type="line"/>
    </contour>
    <contour>
      <point x="45" y="280" type="line"/>
      <point x="250" y="650" type="line"/>
      <point x="250" y="280" type="line"/>
    </contour>
  </outline>
</glyph>
<glyph name="five" format="1">
  <advance width="410"/>
  <unicode hex="0035"/>
  <outline>
    <contour>
      <point x="100" y="620" type="line" name="hr00"/>
      <point x="350" y="620" type="line"/>
      <point x="350" y="700" type="line"/>
      <point x="70" y="700" type="line"/>
      <point x="70" y="400" type="line"/>
      <point x="70" y="400"/>
      <point x="120" y="450"/>
      <point x="170" y="450" type="curve" smooth="yes"/>
      <point x="220" y="450"/>
      <point x="270" y="400"/>
      <point x="270" y="230" type="curve" smooth="yes"/>
      <point x="270" y="60"/>
      <point x="220" y="10"/>
      <point x="180" y="10" type="curve" smooth="yes"/>
      <point x="140" y="10"/>
      <point x="90" y="70"/>
      <point x="90" y="200" type="curve"/>
      <point x="20" y="140" type="line"/>
      <point x="40" y="50"/>
      <point x="100" y="-10"/>
      <point x="180" y="-10" type="curve" smooth="yes"/>
      <point x="280" y="-10"/>
      <point x="370" y="80"/>
      <point x="370" y="230" type="curve" smooth="yes"/>
      <point x="370" y="380"/>
      <point x="280" y="470"/>
      <point x="170" y="470" type="curve" smooth="yes"/>
      <point x="130" y="470"/>
      <point x="100" y="445"/>
      <point x="100" y="445" type="curve"/>
    </contour>
  </outline>
</glyph>
<glyph name="six" format="1">
  <advance width="430"/>
  <unicode hex="0036"/>
  <outline>
    <contour>
      <point x="220" y="-10" type="curve" smooth="yes" name="hr00"/>
      <point x="310" y="-10"/>
      <point x="400" y="80"/>
      <point x="400" y="210" type="curve" smooth="yes"/>
      <point x="400" y="340"/>
      <point x="310" y="430"/>
      <point x="220" y="430" type="curve" smooth="yes"/>
      <point x="160" y="430"/>
      <point x="130" y="370"/>
      <point x="130" y="370" type="curve"/>
      <point x="140" y="630"/>
      <point x="200" y="690"/>
      <point x="240" y="690" type="curve" smooth="yes"/>
      <point x="280" y="690"/>
      <point x="320" y="650"/>
      <point x="320" y="540" type="curve"/>
      <point x="380" y="610" type="line"/>
      <point x="360" y="660"/>
      <point x="310" y="710"/>
      <point x="240" y="710" type="curve" smooth="yes"/>
      <point x="150" y="710"/>
      <point x="40" y="600"/>
      <point x="40" y="340" type="curve" smooth="yes"/>
      <point x="40" y="300" type="line" smooth="yes"/>
      <point x="40" y="80"/>
      <point x="130" y="-10"/>
    </contour>
    <contour>
      <point x="220" y="10" type="curve" smooth="yes"/>
      <point x="180" y="10"/>
      <point x="130" y="60"/>
      <point x="130" y="230" type="curve" smooth="yes"/>
      <point x="130" y="360"/>
      <point x="180" y="410"/>
      <point x="220" y="410" type="curve" smooth="yes"/>
      <point x="260" y="410"/>
      <point x="310" y="360"/>
      <point x="310" y="210" type="curve" smooth="yes"/>
      <point x="310" y="60"/>
      <point x="260" y="10"/>
    </contour>
  </outline>
</glyph>
<glyph name="seven" format="1">
  <advance width="330"/>
  <unicode hex="0037"/>
  <outline>
    <contour>
      <point x="180" y="0" type="line" name="hr00"/>
      <point x="180" y="270"/>
      <point x="330" y="700"/>
      <point x="330" y="700" type="curve"/>
      <point x="10" y="700" type="line"/>
      <point x="10" y="620" type="line"/>
      <point x="280" y="620" type="line"/>
      <point x="280" y="618"/>
      <point x="90" y="270"/>
      <point x="90" y="0" type="curve"/>
    </contour>
  </outline>
</glyph>
<glyph name="eight" format="1">
  <advance width="430"/>
  <unicode hex="0038"/>
  <outline>
    <contour>
      <point x="215" y="430" type="curve" name="hr00"/>
      <point x="250" y="430"/>
      <point x="310" y="370"/>
      <point x="310" y="220" type="curve" smooth="yes"/>
      <point x="310" y="70"/>
      <point x="250" y="10"/>
      <point x="215" y="10" type="curve"/>
      <point x="180" y="10"/>
      <point x="120" y="70"/>
      <point x="120" y="220" type="curve" smooth="yes"/>
      <point x="120" y="370"/>
      <point x="180" y="430"/>
    </contour>
    <contour>
      <point x="215" y="690" type="curve"/>
      <point x="245" y="690"/>
      <point x="285" y="650"/>
      <point x="285" y="570" type="curve" smooth="yes"/>
      <point x="285" y="490"/>
      <point x="245" y="450"/>
      <point x="215" y="450" type="curve"/>
      <point x="185" y="450"/>
      <point x="145" y="490"/>
      <point x="145" y="570" type="curve" smooth="yes"/>
      <point x="145" y="650"/>
      <point x="185" y="690"/>
    </contour>
    <contour>
      <point x="215" y="710" type="curve"/>
      <point x="125" y="710"/>
      <point x="65" y="650"/>
      <point x="65" y="570" type="curve" smooth="yes"/>
      <point x="65" y="450"/>
      <point x="195" y="440"/>
      <point x="195" y="440" type="curve"/>
      <point x="194" y="440"/>
      <point x="30" y="420"/>
      <point x="30" y="220" type="curve" smooth="yes"/>
      <point x="30" y="80"/>
      <point x="120" y="-10"/>
      <point x="215" y="-10" type="curve"/>
      <point x="310" y="-10"/>
      <point x="400" y="80"/>
      <point x="400" y="220" type="curve" smooth="yes"/>
      <point x="400" y="420"/>
      <point x="236" y="440"/>
      <point x="236" y="440" type="curve"/>
      <point x="235" y="440"/>
      <point x="365" y="450"/>
      <point x="365" y="570" type="curve" smooth="yes"/>
      <point x="365" y="650"/>
      <point x="305" y="710"/>
    </contour>
  </outline>
</glyph>
<glyph name="nine" format="1">
  <advance width="430"/>
  <unicode hex="0039"/>
  <outline>
    <contour>
      <point x="210" y="710" type="curve" smooth="yes" name="hr00"/>
      <point x="120" y="710"/>
      <point x="30" y="620"/>
      <point x="30" y="490" type="curve" smooth="yes"/>
      <point x="30" y="360"/>
      <point x="120" y="270"/>
      <point x="210" y="270" type="curve" smooth="yes"/>
      <point x="270" y="270"/>
      <point x="300" y="330"/>
      <point x="300" y="330" type="curve"/>
      <point x="290" y="70"/>
      <point x="230" y="10"/>
      <point x="190" y="10" type="curve" smooth="yes"/>
      <point x="150" y="10"/>
      <point x="110" y="50"/>
      <point x="110" y="160" type="curve"/>
      <point x="50" y="90" type="line"/>
      <point x="70" y="40"/>
      <point x="120" y="-10"/>
      <point x="190" y="-10" type="curve" smooth="yes"/>
      <point x="280" y="-10"/>
      <point x="390" y="100"/>
      <point x="390" y="360" type="curve" smooth="yes"/>
      <point x="390" y="400" type="line" smooth="yes"/>
      <point x="390" y="620"/>
      <point x="300" y="710"/>
    </contour>
    <contour>
      <point x="210" y="690" type="curve" smooth="yes"/>
      <point x="250" y="690"/>
      <point x="300" y="640"/>
      <point x="300" y="470" type="curve" smooth="yes"/>
      <point x="300" y="340"/>
      <point x="250" y="290"/>
      <point x="210" y="290" type="curve" smooth="yes"/>
      <point x="170" y="290"/>
      <point x="120" y="340"/>
      <point x="120" y="490" type="curve" smooth="yes"/>
      <point x="120" y="640"/>
      <point x="170" y="690"/>
    </contour>
  </outline>
</glyph>
<glyph name="semicolon" format="1">
  <advance width="160"/>
  <unicode hex="003B"/>
  <outline>
    <contour>
      <point x="120" y="420" type="line" name="hr00"/>
      <point x="120" y="500" type="line"/>
      <point x="40" y="500" type="line"/>
      <point x="40" y="420" type="line"/>
    </contour>
    <contour>
      <point x="120" y="30" type="curve"/>
      <point x="120" y="80" type="line"/>
      <point x="40" y="80" type="line"/>
      <point x="40" y="0" type="line"/>
      <point x="60" y="0" type="line"/>
      <point x="60" y="0"/>
      <point x="70" y="-10"/>
      <point x="70" y="-20" type="curve" smooth="yes"/>
      <point x="70" y="-50"/>
      <point x="40" y="-90"/>
      <point x="40" y="-90" type="curve"/>
      <point x="55" y="-100" type="line"/>
      <point x="55" y="-100"/>
      <point x="120" y="-50"/>
    </contour>
  </outline>
</glyph>
<glyph name="less" format="1">
  <advance width="440"/>
  <unicode hex="003C"/>
  <outline>
    <contour>
      <point x="400" y="50" type="line" name="hr00"/>
      <point x="400" y="90" type="line"/>
      <point x="80" y="250" type="line"/>
      <point x="400" y="410" type="line"/>
      <point x="400" y="450" type="line"/>
      <point x="40" y="270" type="line"/>
      <point x="40" y="230" type="line"/>
    </contour>
  </outline>
</glyph>
<glyph name="equal" format="1">
  <advance width="350"/>
  <unicode hex="003D"/>
  <outline>
    <contour>
      <point x="320" y="230" type="line" name="hr00"/>
      <point x="320" y="260" type="line"/>
      <point x="30" y="260" type="line"/>
      <point x="30" y="230" type="line"/>
    </contour>
    <contour>
      <point x="320" y="360" type="line"/>
      <point x="320" y="390" type="line"/>
      <point x="30" y="390" type="line"/>
      <point x="30" y="360" type="line"/>
    </contour>
  </outline>
</glyph>
<glyph name="greater" format="1">
  <advance width="440"/>
  <unicode hex="003E"/>
  <outline>
    <contour>
      <point x="400" y="230" type="line" name="hr00"/>
      <point x="400" y="270" type="line"/>
      <point x="40" y="450" type="line"/>
      <point x="40" y="410" type="line"/>
      <point x="360" y="250" type="line"/>
      <point x="40" y="90" type="line"/>
      <point x="40" y="50" type="line"/>
    </contour>
  </outline>
</glyph>
<glyph name="question" format="1">
  <advance width="390"/>
  <unicode hex="003F"/>
  <outline>
    <contour>
      <point x="220" y="0" type="line" name="hr00"/>
      <point x="220" y="80" type="line"/>
      <point x="140" y="80" type="line"/>
      <point x="140" y="0" type="line"/>
    </contour>
    <contour>
      <point x="190" y="710" type="curve"/>
      <point x="110" y="710"/>
      <point x="40" y="640"/>
      <point x="20" y="560" type="curve"/>
      <point x="90" y="490" type="line"/>
      <point x="90" y="630"/>
      <point x="150" y="690"/>
      <point x="190" y="690" type="curve"/>
      <point x="230" y="690"/>
      <point x="270" y="650"/>
      <point x="270" y="560" type="curve" smooth="yes"/>
      <point x="270" y="440"/>
      <point x="160" y="400"/>
      <point x="160" y="180" type="curve"/>
      <point x="200" y="180" type="line"/>
      <point x="200" y="330"/>
      <point x="360" y="400"/>
      <point x="360" y="560" type="curve" smooth="yes"/>
      <point x="360" y="640"/>
      <point x="290" y="710"/>
    </contour>
  </outline>
</glyph>
<glyph name="at" format="1">
  <advance width="760"/>
  <unicode hex="0040"/>
  <outline>
    <contour>
      <point x="490" y="180" type="line" smooth="yes" name="hr00"/>
      <point x="630" y="180"/>
      <point x="730" y="280"/>
      <point x="730" y="420" type="curve" smooth="yes"/>
      <point x="730" y="570"/>
      <point x="600" y="710"/>
      <point x="390" y="710" type="curve" smooth="yes"/>
      <point x="200" y="710"/>
      <point x="30" y="540"/>
      <point x="30" y="350" type="curve" smooth="yes"/>
      <point x="30" y="160"/>
      <point x="200" y="-10"/>
      <point x="390" y="-10" type="curve" smooth="yes"/>
      <point x="500" y="-10"/>
      <point x="590" y="30"/>
      <point x="590" y="30" type="curve"/>
      <point x="590" y="60" type="line"/>
      <point x="590" y="60"/>
      <point x="500" y="20"/>
      <point x="390" y="20" type="curve" smooth="yes"/>
      <point x="220" y="20"/>
      <point x="70" y="170"/>
      <point x="70" y="350" type="curve" smooth="yes"/>
      <point x="70" y="520"/>
      <point x="220" y="670"/>
      <point x="390" y="670" type="curve" smooth="yes"/>
      <point x="560" y="670"/>
      <point x="690" y="550"/>
      <point x="690" y="420" type="curve" smooth="yes"/>
      <point x="690" y="290"/>
      <point x="600" y="200"/>
      <point x="490" y="200" type="curve"/>
      <point x="490" y="450" type="line" smooth="yes"/>
      <point x="490" y="500"/>
      <point x="455" y="535"/>
      <point x="395" y="535" type="curve" smooth="yes"/>
      <point x="350" y="535"/>
      <point x="315" y="515"/>
      <point x="315" y="515" type="curve"/>
      <point x="315" y="440" type="line"/>
      <point x="315" y="440"/>
      <point x="350" y="520"/>
      <point x="395" y="520" type="curve" smooth="yes"/>
      <point x="416" y="520"/>
      <point x="435" y="500"/>
      <point x="435" y="450" type="curve" smooth="yes"/>
      <point x="435" y="390" type="line"/>
      <point x="435" y="390"/>
      <point x="415" y="395"/>
      <point x="395" y="395" type="curve" smooth="yes"/>
      <point x="315" y="395"/>
      <point x="270" y="350"/>
      <point x="270" y="280" type="curve" smooth="yes"/>
      <point x="270" y="220"/>
      <point x="315" y="175"/>
      <point x="364" y="175" type="curve" smooth="yes"/>
      <point x="409" y="175"/>
      <point x="434" y="219"/>
      <point x="435" y="221" type="curve"/>
      <point x="435" y="180" type="line"/>
    </contour>
    <contour>
      <point x="395" y="380" type="curve" smooth="yes"/>
      <point x="415" y="380"/>
      <point x="435" y="374"/>
      <point x="435" y="374" type="curve"/>
      <point x="435" y="243" type="line"/>
      <point x="435" y="243"/>
      <point x="410" y="195"/>
      <point x="380" y="195" type="curve" smooth="yes"/>
      <point x="360" y="195"/>
      <point x="330" y="225"/>
      <point x="330" y="280" type="curve" smooth="yes"/>
      <point x="330" y="350"/>
      <point x="360" y="380"/>
    </contour>
  </outline>
</glyph>
<glyph name="A" format="1">
  <advance width="470"/>
  <unicode hex="0041"/>
  <outline>
    <contour>
      <point x="90" y="300" type="line" smooth="yes" name="hr00"/>
      <point x="90" y="70"/>
      <point x="30" y="10"/>
      <point x="0" y="10" type="curve"/>
      <point x="0" y="-10" type="line"/>
      <point x="90" y="-10"/>
      <point x="170" y="70"/>
      <point x="170" y="300" type="curve" smooth="yes"/>
      <point x="170" y="400" type="line"/>
      <point x="170" y="420" type="line"/>
      <point x="370" y="420" type="line"/>
      <point x="370" y="0" type="line"/>
      <point x="400" y="0" type="line"/>
      <point x="400" y="700" type="line"/>
      <point x="310" y="700" type="line" smooth="yes"/>
      <point x="190" y="700"/>
      <point x="90" y="600"/>
      <point x="90" y="400" type="curve" smooth="yes"/>
    </contour>
    <contour>
      <point x="310" y="680" type="curve"/>
      <point x="370" y="680" type="line"/>
      <point x="370" y="440" type="line"/>
      <point x="170" y="440" type="line"/>
      <point x="180" y="610"/>
      <point x="250" y="680"/>
    </contour>
  </outline>
</glyph>
<glyph name="E" format="1">
  <advance width="360"/>
  <unicode hex="0045"/>
  <outline>
    <contour>
      <point x="350" y="0" type="line" name="hr00"/>
      <point x="350" y="20" type="line"/>
      <point x="150" y="20" type="line"/>
      <point x="150" y="480" type="line"/>
      <point x="330" y="480" type="line"/>
      <point x="330" y="500" type="line"/>
      <point x="150" y="500" type="line"/>
      <point x="150" y="680" type="line"/>
      <point x="350" y="680" type="line"/>
      <point x="350" y="700" type="line"/>
      <point x="70" y="700" type="line"/>
      <point x="70" y="0" type="line"/>
    </contour>
  </outline>
</glyph>
<glyph name="F" format="1">
  <advance width="360"/>
  <unicode hex="0046"/>
  <outline>
    <contour>
      <point x="150" y="0" type="line" name="hr00"/>
      <point x="150" y="480" type="line"/>
      <point x="330" y="480" type="line"/>
      <point x="330" y="500" type="line"/>
      <point x="150" y="500" type="line"/>
      <point x="150" y="680" type="line"/>
      <point x="350" y="680" type="line"/>
      <point x="350" y="700" type="line"/>
      <point x="70" y="700" type="line"/>
      <point x="70" y="0" type="line"/>
    </contour>
  </outline>
</glyph>
<glyph name="G" format="1">
  <advance width="470"/>
  <unicode hex="0047"/>
  <outline>
    <contour>
      <point x="250" y="10" type="curve" smooth="yes" name="hr00"/>
      <point x="200" y="10"/>
      <point x="130" y="80"/>
      <point x="130" y="350" type="curve" smooth="yes"/>
      <point x="130" y="620"/>
      <point x="200" y="690"/>
      <point x="250" y="690" type="curve" smooth="yes"/>
      <point x="290" y="690"/>
      <point x="350" y="630"/>
      <point x="350" y="500" type="curve"/>
      <point x="420" y="570" type="line"/>
      <point x="400" y="640"/>
      <point x="330" y="710"/>
      <point x="250" y="710" type="curve" smooth="yes"/>
      <point x="160" y="710"/>
      <point x="40" y="590"/>
      <point x="40" y="350" type="curve" smooth="yes"/>
      <point x="40" y="110"/>
      <point x="160" y="-10"/>
      <point x="250" y="-10" type="curve" smooth="yes"/>
      <point x="340" y="-10"/>
      <point x="430" y="80"/>
      <point x="430" y="320" type="curve"/>
      <point x="430" y="340" type="line"/>
      <point x="250" y="340" type="line"/>
      <point x="250" y="320" type="line"/>
      <point x="350" y="320" type="line"/>
      <point x="350" y="60"/>
      <point x="300" y="10"/>
    </contour>
  </outline>
</glyph>
<glyph name="K" format="1">
  <advance width="440"/>
  <unicode hex="004B"/>
  <outline>
    <contour>
      <point x="150" y="0" type="line" name="hr00"/>
      <point x="150" y="480" type="line"/>
      <point x="150" y="480"/>
      <point x="320" y="440"/>
      <point x="320" y="0" type="curve"/>
      <point x="410" y="0" type="line"/>
      <point x="410" y="420"/>
      <point x="192" y="490"/>
      <point x="191" y="490" type="curve"/>
      <point x="190" y="490"/>
      <point x="370" y="520"/>
      <point x="370" y="700" type="curve"/>
      <point x="290" y="700" type="line"/>
      <point x="290" y="520"/>
      <point x="150" y="500"/>
      <point x="150" y="500" type="curve"/>
      <point x="150" y="700" type="line"/>
      <point x="70" y="700" type="line"/>
      <point x="70" y="0" type="line"/>
    </contour>
  </outline>
</glyph>
<glyph name="L" format="1">
  <advance width="360"/>
  <unicode hex="004C"/>
  <outline>
    <contour>
      <point x="70" y="700" type="line" name="hr00"/>
      <point x="70" y="0" type="line"/>
      <point x="360" y="0" type="line"/>
      <point x="360" y="20" type="line"/>
      <point x="150" y="20" type="line"/>
      <point x="150" y="700" type="line"/>
    </contour>
  </outline>
</glyph>
<glyph name="M" format="1">
  <advance width="570"/>
  <unicode hex="004D"/>
  <outline>
    <contour>
      <point x="260" y="400" type="line" name="hr00"/>
      <point x="420" y="580" type="line"/>
      <point x="420" y="0" type="line"/>
      <point x="500" y="0" type="line"/>
      <point x="500" y="710" type="line"/>
      <point x="285" y="464" type="line"/>
      <point x="70" y="710" type="line"/>
      <point x="70" y="0" type="line"/>
      <point x="100" y="0" type="line"/>
      <point x="100" y="580" type="line"/>
    </contour>
  </outline>
</glyph>
<glyph name="O" format="1">
  <advance width="500"/>
  <unicode hex="004F"/>
  <outline>
    <contour>
      <point x="460" y="350" type="curve" name="hr00"/>
      <point x="460" y="590"/>
      <point x="340" y="710"/>
      <point x="250" y="710" type="curve" smooth="yes"/>
      <point x="160" y="710"/>
      <point x="40" y="590"/>
      <point x="40" y="350" type="curve"/>
      <point x="40" y="110"/>
      <point x="160" y="-10"/>
      <point x="250" y="-10" type="curve" smooth="yes"/>
      <point x="340" y="-10"/>
      <point x="460" y="110"/>
    </contour>
    <contour>
      <point x="130" y="350" type="curve"/>
      <point x="130" y="620"/>
      <point x="200" y="690"/>
      <point x="250" y="690" type="curve" smooth="yes"/>
      <point x="300" y="690"/>
      <point x="370" y="620"/>
      <point x="370" y="350" type="curve"/>
      <point x="370" y="80"/>
      <point x="300" y="10"/>
      <point x="250" y="10" type="curve" smooth="yes"/>
      <point x="200" y="10"/>
      <point x="130" y="80"/>
    </contour>
  </outline>
</glyph>
<glyph name="P" format="1">
  <advance width="400"/>
  <unicode hex="0050"/>
  <outline>
    <contour>
      <point x="70" y="0" type="line" name="hr00"/>
      <point x="150" y="0" type="line"/>
      <point x="150" y="460" type="line"/>
      <point x="320" y="460"/>
      <point x="380" y="520"/>
      <point x="380" y="580" type="curve" smooth="yes"/>
      <point x="380" y="640"/>
      <point x="320" y="700"/>
      <point x="150" y="700" type="curve" smooth="yes"/>
      <point x="70" y="700" type="line"/>
    </contour>
    <contour>
      <point x="290" y="580" type="curve" smooth="yes"/>
      <point x="290" y="520"/>
      <point x="250" y="480"/>
      <point x="150" y="480" type="curve"/>
      <point x="150" y="680" type="line"/>
      <point x="250" y="680"/>
      <point x="290" y="640"/>
    </contour>
  </outline>
</glyph>
<glyph name="Q" format="1">
  <advance width="500"/>
  <unicode hex="0051"/>
  <outline>
    <contour>
      <point x="460" y="350" type="curve" smooth="yes" name="hr00"/>
      <point x="460" y="590"/>
      <point x="340" y="710"/>
      <point x="250" y="710" type="curve" smooth="yes"/>
      <point x="160" y="710"/>
      <point x="40" y="590"/>
      <point x="40" y="350" type="curve" smooth="yes"/>
      <point x="40" y="110"/>
      <point x="160" y="-10"/>
      <point x="250" y="-10" type="curve" smooth="yes"/>
      <point x="265" y="-10"/>
      <point x="282" y="-6"/>
      <point x="298" y="1" type="curve"/>
      <point x="327" y="-35"/>
      <point x="357" y="-70"/>
      <point x="390" y="-70" type="curve" smooth="yes"/>
      <point x="420" y="-70"/>
      <point x="440" y="-50"/>
      <point x="450" y="-20" type="curve"/>
      <point x="450" y="-20"/>
      <point x="440" y="-30"/>
      <point x="420" y="-30" type="curve" smooth="yes"/>
      <point x="395" y="-30"/>
      <point x="369" y="-2"/>
      <point x="344" y="30" type="curve"/>
      <point x="406" y="83"/>
      <point x="460" y="190"/>
    </contour>
    <contour>
      <point x="130" y="350" type="curve" smooth="yes"/>
      <point x="130" y="620"/>
      <point x="200" y="690"/>
      <point x="250" y="690" type="curve" smooth="yes"/>
      <point x="300" y="690"/>
      <point x="370" y="620"/>
      <point x="370" y="350" type="curve" smooth="yes"/>
      <point x="370" y="198"/>
      <point x="348" y="110"/>
      <point x="320" y="61" type="curve"/>
      <point x="291" y="97"/>
      <point x="261" y="130"/>
      <point x="230" y="130" type="curve" smooth="yes"/>
      <point x="200" y="130"/>
      <point x="180" y="110"/>
      <point x="170" y="81" type="curve"/>
      <point x="147" y="132"/>
      <point x="130" y="216"/>
    </contour>
    <contour>
      <point x="200" y="90" type="curve" smooth="yes"/>
      <point x="227" y="90"/>
      <point x="255" y="57"/>
      <point x="283" y="20" type="curve"/>
      <point x="272" y="13"/>
      <point x="260" y="10"/>
      <point x="250" y="10" type="curve" smooth="yes"/>
      <point x="225" y="10"/>
      <point x="194" y="28"/>
      <point x="170" y="80" type="curve"/>
      <point x="172" y="81"/>
      <point x="181" y="90"/>
    </contour>
  </outline>
</glyph>
<glyph name="R" format="1">
  <advance width="440"/>
  <unicode hex="0052"/>
  <outline>
    <contour>
      <point x="150" y="0" type="line" name="hr00"/>
      <point x="150" y="480" type="line"/>
      <point x="150" y="480"/>
      <point x="320" y="440"/>
      <point x="320" y="0" type="curve"/>
      <point x="410" y="0" type="line"/>
      <point x="410" y="410"/>
      <point x="210" y="480"/>
      <point x="210" y="480" type="curve"/>
      <point x="320" y="490"/>
      <point x="370" y="540"/>
      <point x="370" y="590" type="curve" smooth="yes"/>
      <point x="370" y="640"/>
      <point x="310" y="700"/>
      <point x="150" y="700" type="curve" smooth="yes"/>
      <point x="70" y="700" type="line"/>
      <point x="70" y="0" type="line"/>
    </contour>
    <contour>
      <point x="280" y="590" type="curve" smooth="yes"/>
      <point x="280" y="540"/>
      <point x="240" y="500"/>
      <point x="150" y="500" type="curve"/>
      <point x="150" y="680" type="line"/>
      <point x="240" y="680"/>
      <point x="280" y="640"/>
    </contour>
  </outline>
</glyph>
<glyph name="T" format="1">
  <advance width="380"/>
  <unicode hex="0054"/>
  <outline>
    <contour>
      <point x="230" y="0" type="line" name="hr00"/>
      <point x="230" y="680" type="line"/>
      <point x="380" y="680" type="line"/>
      <point x="380" y="700" type="line"/>
      <point x="0" y="700" type="line"/>
      <point x="0" y="680" type="line"/>
      <point x="150" y="680" type="line"/>
      <point x="150" y="0" type="line"/>
    </contour>
  </outline>
</glyph>
<glyph name="U" format="1">
  <advance width="500"/>
  <unicode hex="0055"/>
  <outline>
    <contour>
      <point x="140" y="700" type="line" name="hr00"/>
      <point x="60" y="700" type="line"/>
      <point x="60" y="300" type="line" smooth="yes"/>
      <point x="60" y="80"/>
      <point x="150" y="-10"/>
      <point x="250" y="-10" type="curve" smooth="yes"/>
      <point x="350" y="-10"/>
      <point x="440" y="80"/>
      <point x="440" y="300" type="curve" smooth="yes"/>
      <point x="440" y="700" type="line"/>
      <point x="360" y="700" type="line"/>
      <point x="360" y="300" type="line" smooth="yes"/>
      <point x="360" y="70"/>
      <point x="300" y="10"/>
      <point x="250" y="10" type="curve" smooth="yes"/>
      <point x="200" y="10"/>
      <point x="140" y="70"/>
      <point x="140" y="300" type="curve" smooth="yes"/>
    </contour>
  </outline>
</glyph>
<glyph name="V" format="1">
  <advance width="440"/>
  <unicode hex="0056"/>
  <outline>
    <contour>
      <point x="180" y="0" type="line" name="hr00"/>
      <point x="260" y="0" type="line"/>
      <point x="430" y="700" type="line"/>
      <point x="405" y="700" type="line"/>
      <point x="250" y="60" type="line"/>
      <point x="95" y="700" type="line"/>
      <point x="10" y="700" type="line"/>
    </contour>
  </outline>
</glyph>
<glyph name="W" format="1">
  <advance width="700"/>
  <unicode hex="0057"/>
  <outline>
    <contour>
      <point x="350" y="370" type="line" name="hr00"/>
      <point x="445" y="0" type="line"/>
      <point x="520" y="0" type="line"/>
      <point x="700" y="700" type="line"/>
      <point x="675" y="700" type="line"/>
      <point x="510" y="60" type="line"/>
      <point x="375" y="565" type="line"/>
      <point x="245" y="60" type="line"/>
      <point x="80" y="700" type="line"/>
      <point x="0" y="700" type="line"/>
      <point x="180" y="0" type="line"/>
      <point x="255" y="0" type="line"/>
    </contour>
  </outline>
</glyph>
<glyph name="Y" format="1">
  <advance width="415"/>
  <unicode hex="0059"/>
  <outline>
    <contour>
      <point x="385" y="700" type="line" name="hr00"/>
      <point x="240" y="510" type="line"/>
      <point x="95" y="700" type="line"/>
      <point x="0" y="700" type="line"/>
      <point x="175" y="470" type="line"/>
      <point x="175" y="0" type="line"/>
      <point x="255" y="0" type="line"/>
      <point x="255" y="490" type="line"/>
      <point x="415" y="700" type="line"/>
    </contour>
  </outline>
</glyph>
<glyph name="Z" format="1">
  <advance width="380"/>
  <unicode hex="005A"/>
  <outline>
    <contour>
      <point x="30" y="700" type="line" name="hr00"/>
      <point x="30" y="680" type="line"/>
      <point x="280" y="680" type="line"/>
      <point x="10" y="0" type="line"/>
      <point x="370" y="0" type="line"/>
      <point x="370" y="20" type="line"/>
      <point x="100" y="20" type="line"/>
      <point x="370" y="700" type="line"/>
    </contour>
  </outline>
</glyph>
<glyph name="bracketleft" format="1">
  <advance width="250"/>
  <unicode hex="005B"/>
  <outline>
    <contour>
      <point x="70" y="700" type="line" name="hr00"/>
      <point x="70" y="-100" type="line"/>
      <point x="230" y="-100" type="line"/>
      <point x="230" y="-80" type="line"/>
      <point x="150" y="-80" type="line"/>
      <point x="150" y="680" type="line"/>
      <point x="230" y="680" type="line"/>
      <point x="230" y="700" type="line"/>
    </contour>
  </outline>
</glyph>
<glyph name="backslash" format="1">
  <advance width="400"/>
  <unicode hex="005C"/>
  <outline>
    <contour>
      <point x="360" y="0" type="line" name="hr00"/>
      <point x="110" y="700" type="line"/>
      <point x="40" y="700" type="line"/>
      <point x="290" y="0" type="line"/>
    </contour>
  </outline>
</glyph>
<glyph name="bracketright" format="1">
  <advance width="250"/>
  <unicode hex="005D"/>
  <outline>
    <contour>
      <point x="20" y="700" type="line" name="hr00"/>
      <point x="20" y="680" type="line"/>
      <point x="100" y="680" type="line"/>
      <point x="100" y="-80" type="line"/>
      <point x="20" y="-80" type="line"/>
      <point x="20" y="-100" type="line"/>
      <point x="180" y="-100" type="line"/>
      <point x="180" y="700" type="line"/>
    </contour>
  </outline>
</glyph>
<glyph name="asciicircum" format="1">
  <advance width="370"/>
  <unicode hex="005E"/>
  <outline>
    <contour>
      <point x="90" y="380" type="line" name="hr00"/>
      <point x="185" y="635" type="line"/>
      <point x="280" y="380" type="line"/>
      <point x="340" y="380" type="line"/>
      <point x="220" y="700" type="line"/>
      <point x="150" y="700" type="line"/>
      <point x="30" y="380" type="line"/>
    </contour>
  </outline>
</glyph>
<glyph name="underscore" format="1">
  <advance width="320"/>
  <unicode hex="005F"/>
  <outline>
    <contour>
      <point x="300" y="-160" type="line" name="hr00"/>
      <point x="300" y="-110" type="line"/>
      <point x="20" y="-110" type="line"/>
      <point x="20" y="-160" type="line"/>
    </contour>
  </outline>
</glyph>
<glyph name="grave" format="1">
  <advance width="215"/>
  <unicode hex="0060"/>
  <outline>
    <contour>
      <point x="185" y="630" type="line" name="hr00"/>
      <point x="50" y="700" type="line"/>
      <point x="30" y="650" type="line"/>
      <point x="175" y="610" type="line"/>
    </contour>
  </outline>
</glyph>
<glyph name="a" format="1">
  <advance width="400"/>
  <unicode hex="0061"/>
  <outline>
    <contour>
      <point x="340" y="390" type="line" smooth="yes" name="hr00"/>
      <point x="340" y="460"/>
      <point x="290" y="510"/>
      <point x="201" y="510" type="curve" smooth="yes"/>
      <point x="140" y="510"/>
      <point x="90" y="480"/>
      <point x="90" y="480" type="curve"/>
      <point x="90" y="380" type="line"/>
      <point x="90" y="380"/>
      <point x="140" y="490"/>
      <point x="200" y="490" type="curve" smooth="yes"/>
      <point x="230" y="490"/>
      <point x="260" y="460"/>
      <point x="260" y="390" type="curve" smooth="yes"/>
      <point x="260" y="300" type="line"/>
      <point x="260" y="300"/>
      <point x="230" y="310"/>
      <point x="210" y="310" type="curve" smooth="yes"/>
      <point x="90" y="310"/>
      <point x="30" y="250"/>
      <point x="30" y="140" type="curve" smooth="yes"/>
      <point x="30" y="50"/>
      <point x="90" y="-10"/>
      <point x="160" y="-10" type="curve" smooth="yes"/>
      <point x="220" y="-10"/>
      <point x="260" y="60"/>
      <point x="260" y="60" type="curve"/>
      <point x="260" y="0" type="line"/>
      <point x="340" y="0" type="line"/>
    </contour>
    <contour>
      <point x="210" y="290" type="curve" smooth="yes"/>
      <point x="230" y="290"/>
      <point x="260" y="280"/>
      <point x="260" y="280" type="curve"/>
      <point x="260" y="90" type="line"/>
      <point x="260" y="90"/>
      <point x="220" y="20"/>
      <point x="180" y="20" type="curve" smooth="yes"/>
      <point x="145" y="20"/>
      <point x="110" y="55"/>
      <point x="110" y="140" type="curve" smooth="yes"/>
      <point x="110" y="240"/>
      <point x="160" y="290"/>
    </contour>
  </outline>
</glyph>
<glyph name="b" format="1">
  <advance width="450"/>
  <unicode hex="0062"/>
  <outline>
    <contour>
      <point x="150" y="60" type="line" name="hr00"/>
      <point x="150" y="60"/>
      <point x="180" y="-10"/>
      <point x="245" y="-10" type="curve" smooth="yes"/>
      <point x="320" y="-10"/>
      <point x="410" y="80"/>
      <point x="410" y="250" type="curve" smooth="yes"/>
      <point x="410" y="420"/>
      <point x="320" y="510"/>
      <point x="245" y="510" type="curve" smooth="yes"/>
      <point x="180" y="510"/>
      <point x="150" y="440"/>
      <point x="150" y="440" type="curve"/>
      <point x="150" y="700" type="line"/>
      <point x="70" y="700" type="line"/>
      <point x="70" y="0" type="line"/>
      <point x="150" y="0" type="line"/>
    </contour>
    <contour>
      <point x="150" y="410" type="line"/>
      <point x="150" y="410"/>
      <point x="180" y="480"/>
      <point x="230" y="480" type="curve" smooth="yes"/>
      <point x="270" y="480"/>
      <point x="320" y="430"/>
      <point x="320" y="250" type="curve" smooth="yes"/>
      <point x="320" y="70"/>
      <point x="270" y="20"/>
      <point x="230" y="20" type="curve" smooth="yes"/>
      <point x="180" y="20"/>
      <point x="150" y="90"/>
      <point x="150" y="90" type="curve"/>
    </contour>
  </outline>
</glyph>
<glyph name="d" format="1">
  <advance width="450"/>
  <unicode hex="0064"/>
  <outline>
    <contour>
      <point x="300" y="0" type="line" name="hr00"/>
      <point x="380" y="0" type="line"/>
      <point x="380" y="700" type="line"/>
      <point x="300" y="700" type="line"/>
      <point x="300" y="440" type="line"/>
      <point x="300" y="440"/>
      <point x="270" y="510"/>
      <point x="205" y="510" type="curve" smooth="yes"/>
      <point x="130" y="510"/>
      <point x="40" y="420"/>
      <point x="40" y="250" type="curve" smooth="yes"/>
      <point x="40" y="80"/>
      <point x="130" y="-10"/>
      <point x="205" y="-10" type="curve" smooth="yes"/>
      <point x="270" y="-10"/>
      <point x="300" y="60"/>
      <point x="300" y="60" type="curve"/>
    </contour>
    <contour>
      <point x="300" y="90" type="line"/>
      <point x="300" y="90"/>
      <point x="270" y="20"/>
      <point x="220" y="20" type="curve" smooth="yes"/>
      <point x="180" y="20"/>
      <point x="130" y="70"/>
      <point x="130" y="250" type="curve" smooth="yes"/>
      <point x="130" y="430"/>
      <point x="180" y="480"/>
      <point x="220" y="480" type="curve" smooth="yes"/>
      <point x="270" y="480"/>
      <point x="300" y="410"/>
      <point x="300" y="410" type="curve"/>
    </contour>
  </outline>
</glyph>
<glyph name="e" format="1">
  <advance width="420"/>
  <unicode hex="0065"/>
  <outline>
    <contour>
      <point x="380" y="260" type="line" name="hr00"/>
      <point x="380" y="420"/>
      <point x="290" y="510"/>
      <point x="210" y="510" type="curve" smooth="yes"/>
      <point x="130" y="510"/>
      <point x="40" y="420"/>
      <point x="40" y="250" type="curve" smooth="yes"/>
      <point x="40" y="80"/>
      <point x="130" y="-10"/>
      <point x="215" y="-10" type="curve" smooth="yes"/>
      <point x="290" y="-10"/>
      <point x="350" y="50"/>
      <point x="360" y="120" type="curve"/>
      <point x="295" y="180" type="line"/>
      <point x="295" y="60"/>
      <point x="245" y="10"/>
      <point x="215" y="10" type="curve" smooth="yes"/>
      <point x="180" y="10"/>
      <point x="130" y="65"/>
      <point x="130" y="250" type="curve" smooth="yes"/>
      <point x="130" y="260" type="line"/>
    </contour>
    <contour>
      <point x="210" y="490" type="curve" smooth="yes"/>
      <point x="239" y="490"/>
      <point x="286" y="444"/>
      <point x="289" y="280" type="curve"/>
      <point x="130" y="280" type="line"/>
      <point x="135" y="445"/>
      <point x="181" y="490"/>
    </contour>
  </outline>
</glyph>
<glyph name="f" format="1">
  <advance width="265"/>
  <unicode hex="0066"/>
  <outline>
    <contour>
      <point x="85" y="0" type="line" name="hr00"/>
      <point x="165" y="0" type="line"/>
      <point x="165" y="460" type="line"/>
      <point x="250" y="460" type="line"/>
      <point x="250" y="480" type="line"/>
      <point x="165" y="480" type="line"/>
      <point x="165" y="570" type="line" smooth="yes"/>
      <point x="165" y="660"/>
      <point x="205" y="700"/>
      <point x="235" y="700" type="curve" smooth="yes"/>
      <point x="275" y="700"/>
      <point x="305" y="610"/>
      <point x="305" y="610" type="curve"/>
      <point x="305" y="700" type="line"/>
      <point x="305" y="700"/>
      <point x="275" y="720"/>
      <point x="235" y="720" type="curve" smooth="yes"/>
      <point x="145" y="720"/>
      <point x="85" y="660"/>
      <point x="85" y="570" type="curve" smooth="yes"/>
      <point x="85" y="480" type="line"/>
      <point x="20" y="480" type="line"/>
      <point x="20" y="460" type="line"/>
      <point x="85" y="460" type="line"/>
    </contour>
  </outline>
</glyph>
<glyph name="g" format="1">
  <advance width="440"/>
  <unicode hex="0067"/>
  <outline>
    <contour>
      <point x="380" y="500" type="line" name="hr00"/>
      <point x="300" y="500" type="line"/>
      <point x="300" y="440" type="line"/>
      <point x="300" y="440"/>
      <point x="270" y="510"/>
      <point x="205" y="510" type="curve" smooth="yes"/>
      <point x="130" y="510"/>
      <point x="40" y="420"/>
      <point x="40" y="250" type="curve" smooth="yes"/>
      <point x="40" y="80"/>
      <point x="130" y="-10"/>
      <point x="205" y="-10" type="curve" smooth="yes"/>
      <point x="270" y="-10"/>
      <point x="300" y="60"/>
      <point x="300" y="60" type="curve"/>
      <point x="300" y="-30" type="line"/>
      <point x="300" y="-215"/>
      <point x="250" y="-270"/>
      <point x="215" y="-270" type="curve" smooth="yes"/>
      <point x="185" y="-270"/>
      <point x="135" y="-220"/>
      <point x="135" y="-100" type="curve"/>
      <point x="70" y="-160" type="line"/>
      <point x="80" y="-230"/>
      <point x="140" y="-290"/>
      <point x="215" y="-290" type="curve" smooth="yes"/>
      <point x="300" y="-290"/>
      <point x="380" y="-210"/>
      <point x="380" y="-30" type="curve"/>
    </contour>
    <contour>
      <point x="300" y="90" type="line"/>
      <point x="300" y="90"/>
      <point x="270" y="20"/>
      <point x="220" y="20" type="curve" smooth="yes"/>
      <point x="180" y="20"/>
      <point x="130" y="70"/>
      <point x="130" y="250" type="curve" smooth="yes"/>
      <point x="130" y="430"/>
      <point x="180" y="480"/>
      <point x="220" y="480" type="curve" smooth="yes"/>
      <point x="270" y="480"/>
      <point x="300" y="410"/>
      <point x="300" y="410" type="curve"/>
    </contour>
  </outline>
</glyph>
<glyph name="h" format="1">
  <advance width="450"/>
  <unicode hex="0068"/>
  <outline>
    <contour>
      <point x="390" y="390" type="line" smooth="yes" name="hr00"/>
      <point x="390" y="460"/>
      <point x="340" y="510"/>
      <point x="260" y="510" type="curve" smooth="yes"/>
      <point x="190" y="510"/>
      <point x="150" y="440"/>
      <point x="150" y="440" type="curve"/>
      <point x="150" y="700" type="line"/>
      <point x="70" y="700" type="line"/>
      <point x="70" y="0" type="line"/>
      <point x="150" y="0" type="line"/>
      <point x="150" y="410" type="line"/>
      <point x="150" y="410"/>
      <point x="190" y="480"/>
      <point x="240" y="480" type="curve" smooth="yes"/>
      <point x="280" y="480"/>
      <point x="310" y="450"/>
      <point x="310" y="390" type="curve" smooth="yes"/>
      <point x="310" y="0" type="line"/>
      <point x="390" y="0" type="line"/>
    </contour>
  </outline>
</glyph>
<glyph name="i" format="1">
  <advance width="190"/>
  <unicode hex="0069"/>
  <outline>
    <contour>
      <point x="135" y="500" type="line" name="hr00"/>
      <point x="55" y="500" type="line"/>
      <point x="55" y="0" type="line"/>
      <point x="135" y="0" type="line"/>
    </contour>
    <contour>
      <point x="95" y="700" type="curve"/>
      <point x="65" y="700"/>
      <point x="45" y="680"/>
      <point x="45" y="650" type="curve" smooth="yes"/>
      <point x="45" y="620"/>
      <point x="65" y="600"/>
      <point x="95" y="600" type="curve"/>
      <point x="125" y="600"/>
      <point x="145" y="620"/>
      <point x="145" y="650" type="curve" smooth="yes"/>
      <point x="145" y="680"/>
      <point x="125" y="700"/>
    </contour>
  </outline>
</glyph>
<glyph name="k" format="1">
  <advance width="400"/>
  <unicode hex="006B"/>
  <outline>
    <contour>
      <point x="150" y="0" type="line" name="hr00"/>
      <point x="150" y="320" type="line"/>
      <point x="150" y="320"/>
      <point x="280" y="310"/>
      <point x="280" y="0" type="curve"/>
      <point x="370" y="0" type="line"/>
      <point x="370" y="320"/>
      <point x="180" y="330"/>
      <point x="180" y="330" type="curve"/>
      <point x="180" y="330"/>
      <point x="340" y="340"/>
      <point x="340" y="500" type="curve"/>
      <point x="260" y="500" type="line"/>
      <point x="260" y="340"/>
      <point x="150" y="340"/>
      <point x="150" y="340" type="curve"/>
      <point x="150" y="700" type="line"/>
      <point x="70" y="700" type="line"/>
      <point x="70" y="0" type="line"/>
    </contour>
  </outline>
</glyph>
<glyph name="m" format="1">
  <advance width="660"/>
  <unicode hex="006D"/>
  <outline>
    <contour>
      <point x="600" y="390" type="line" smooth="yes" name="hr00"/>
      <point x="600" y="460"/>
      <point x="550" y="510"/>
      <point x="475" y="510" type="curve" smooth="yes"/>
      <point x="410" y="510"/>
      <point x="365" y="430"/>
      <point x="365" y="430" type="curve"/>
      <point x="365" y="430"/>
      <point x="340" y="510"/>
      <point x="245" y="510" type="curve" smooth="yes"/>
      <point x="180" y="510"/>
      <point x="140" y="440"/>
      <point x="140" y="440" type="curve"/>
      <point x="140" y="500" type="line"/>
      <point x="60" y="500" type="line"/>
      <point x="60" y="0" type="line"/>
      <point x="140" y="0" type="line"/>
      <point x="140" y="410" type="line"/>
      <point x="140" y="410"/>
      <point x="180" y="480"/>
      <point x="225" y="480" type="curve" smooth="yes"/>
      <point x="260" y="480"/>
      <point x="290" y="450"/>
      <point x="290" y="390" type="curve" smooth="yes"/>
      <point x="290" y="0" type="line"/>
      <point x="370" y="0" type="line"/>
      <point x="370" y="410" type="line"/>
      <point x="370" y="410"/>
      <point x="410" y="480"/>
      <point x="455" y="480" type="curve" smooth="yes"/>
      <point x="490" y="480"/>
      <point x="520" y="450"/>
      <point x="520" y="390" type="curve" smooth="yes"/>
      <point x="520" y="0" type="line"/>
      <point x="600" y="0" type="line"/>
    </contour>
  </outline>
</glyph>
<glyph name="n" format="1">
  <advance width="440"/>
  <unicode hex="006E"/>
  <outline>
    <contour>
      <point x="380" y="390" type="line" smooth="yes" name="hr00"/>
      <point x="380" y="460"/>
      <point x="330" y="510"/>
      <point x="250" y="510" type="curve" smooth="yes"/>
      <point x="180" y="510"/>
      <point x="140" y="440"/>
      <point x="140" y="440" type="curve"/>
      <point x="140" y="500" type="line"/>
      <point x="60" y="500" type="line"/>
      <point x="60" y="0" type="line"/>
      <point x="140" y="0" type="line"/>
      <point x="140" y="410" type="line"/>
      <point x="140" y="410"/>
      <point x="180" y="480"/>
      <point x="230" y="480" type="curve" smooth="yes"/>
      <point x="270" y="480"/>
      <point x="300" y="450"/>
      <point x="300" y="390" type="curve" smooth="yes"/>
      <point x="300" y="0" type="line"/>
      <point x="380" y="0" type="line"/>
    </contour>
  </outline>
</glyph>
<glyph name="q" format="1">
  <advance width="440"/>
  <unicode hex="0071"/>
  <outline>
    <contour>
      <point x="300" y="440" type="line" name="hr00"/>
      <point x="300" y="440"/>
      <point x="270" y="510"/>
      <point x="205" y="510" type="curve" smooth="yes"/>
      <point x="130" y="510"/>
      <point x="40" y="420"/>
      <point x="40" y="250" type="curve" smooth="yes"/>
      <point x="40" y="80"/>
      <point x="130" y="-10"/>
      <point x="205" y="-10" type="curve" smooth="yes"/>
      <point x="270" y="-10"/>
      <point x="300" y="60"/>
      <point x="300" y="60" type="curve"/>
      <point x="300" y="-270" type="line"/>
      <point x="380" y="-270" type="line"/>
      <point x="380" y="500" type="line"/>
      <point x="300" y="500" type="line"/>
    </contour>
    <contour>
      <point x="300" y="90" type="line"/>
      <point x="300" y="90"/>
      <point x="270" y="20"/>
      <point x="220" y="20" type="curve" smooth="yes"/>
      <point x="180" y="20"/>
      <point x="130" y="70"/>
      <point x="130" y="250" type="curve" smooth="yes"/>
      <point x="130" y="430"/>
      <point x="180" y="480"/>
      <point x="220" y="480" type="curve" smooth="yes"/>
      <point x="270" y="480"/>
      <point x="300" y="410"/>
      <point x="300" y="410" type="curve"/>
    </contour>
  </outline>
</glyph>
<glyph name="r" format="1">
  <advance width="300"/>
  <unicode hex="0072"/>
  <outline>
    <contour>
      <point x="290" y="500" type="line" name="hr00"/>
      <point x="290" y="500"/>
      <point x="270" y="510"/>
      <point x="240" y="510" type="curve" smooth="yes"/>
      <point x="180" y="510"/>
      <point x="140" y="440"/>
      <point x="140" y="440" type="curve"/>
      <point x="140" y="500" type="line"/>
      <point x="60" y="500" type="line"/>
      <point x="60" y="0" type="line"/>
      <point x="140" y="0" type="line"/>
      <point x="140" y="400" type="line"/>
      <point x="140" y="400"/>
      <point x="180" y="470"/>
      <point x="220" y="470" type="curve" smooth="yes"/>
      <point x="260" y="470"/>
      <point x="290" y="410"/>
      <point x="290" y="410" type="curve"/>
    </contour>
  </outline>
</glyph>
<glyph name="s" format="1">
  <advance width="350"/>
  <unicode hex="0073"/>
  <outline>
    <contour>
      <point x="260" y="110" type="curve" smooth="yes" name="hr00"/>
      <point x="260" y="50"/>
      <point x="220" y="10"/>
      <point x="175" y="10" type="curve" smooth="yes"/>
      <point x="135" y="10"/>
      <point x="85" y="60"/>
      <point x="85" y="180" type="curve"/>
      <point x="20" y="120" type="line"/>
      <point x="30" y="50"/>
      <point x="90" y="-10"/>
      <point x="175" y="-10" type="curve" smooth="yes"/>
      <point x="260" y="-10"/>
      <point x="320" y="50"/>
      <point x="320" y="130" type="curve" smooth="yes"/>
      <point x="320" y="290"/>
      <point x="105" y="310"/>
      <point x="105" y="410" type="curve" smooth="yes"/>
      <point x="105" y="460"/>
      <point x="135" y="490"/>
      <point x="180" y="490" type="curve" smooth="yes"/>
      <point x="220" y="490"/>
      <point x="260" y="450"/>
      <point x="260" y="370" type="curve"/>
      <point x="315" y="420" type="line"/>
      <point x="305" y="460"/>
      <point x="255" y="510"/>
      <point x="180" y="510" type="curve" smooth="yes"/>
      <point x="95" y="510"/>
      <point x="45" y="460"/>
      <point x="45" y="390" type="curve" smooth="yes"/>
      <point x="45" y="240"/>
      <point x="260" y="220"/>
    </contour>
  </outline>
</glyph>
<glyph name="t" format="1">
  <advance width="305"/>
  <unicode hex="0074"/>
  <outline>
    <contour>
      <point x="85" y="500" type="line" name="hr00"/>
      <point x="20" y="500" type="line"/>
      <point x="20" y="480" type="line"/>
      <point x="85" y="480" type="line"/>
      <point x="85" y="130" type="line" smooth="yes"/>
      <point x="85" y="40"/>
      <point x="145" y="-20"/>
      <point x="235" y="-20" type="curve" smooth="yes"/>
      <point x="275" y="-20"/>
      <point x="305" y="0"/>
      <point x="305" y="0" type="curve"/>
      <point x="305" y="90" type="line"/>
      <point x="305" y="90"/>
      <point x="275" y="0"/>
      <point x="235" y="0" type="curve" smooth="yes"/>
      <point x="205" y="0"/>
      <point x="165" y="40"/>
      <point x="165" y="130" type="curve" smooth="yes"/>
      <point x="165" y="480" type="line"/>
      <point x="250" y="480" type="line"/>
      <point x="250" y="500" type="line"/>
      <point x="165" y="500" type="line"/>
      <point x="165" y="630" type="line"/>
      <point x="85" y="630" type="line"/>
    </contour>
  </outline>
</glyph>
<glyph name="u" format="1">
  <advance width="440"/>
  <unicode hex="0075"/>
  <outline>
    <contour>
      <point x="60" y="110" type="line" smooth="yes" name="hr00"/>
      <point x="60" y="40"/>
      <point x="110" y="-10"/>
      <point x="190" y="-10" type="curve" smooth="yes"/>
      <point x="260" y="-10"/>
      <point x="300" y="60"/>
      <point x="300" y="60" type="curve"/>
      <point x="300" y="0" type="line"/>
      <point x="380" y="0" type="line"/>
      <point x="380" y="500" type="line"/>
      <point x="300" y="500" type="line"/>
      <point x="300" y="90" type="line"/>
      <point x="300" y="90"/>
      <point x="260" y="20"/>
      <point x="210" y="20" type="curve" smooth="yes"/>
      <point x="170" y="20"/>
      <point x="140" y="50"/>
      <point x="140" y="110" type="curve" smooth="yes"/>
      <point x="140" y="500" type="line"/>
      <point x="60" y="500" type="line"/>
    </contour>
  </outline>
</glyph>
<glyph name="v" format="1">
  <advance width="380"/>
  <unicode hex="0076"/>
  <outline>
    <contour>
      <point x="340" y="500" type="line" name="hr00"/>
      <point x="215" y="50" type="line"/>
      <point x="90" y="500" type="line"/>
      <point x="10" y="500" type="line"/>
      <point x="150" y="0" type="line"/>
      <point x="230" y="0" type="line"/>
      <point x="370" y="500" type="line"/>
    </contour>
  </outline>
</glyph>
<glyph name="w" format="1">
  <advance width="585"/>
  <unicode hex="0077"/>
  <outline>
    <contour>
      <point x="210" y="55" type="line" name="hr00"/>
      <point x="80" y="500" type="line"/>
      <point x="0" y="500" type="line"/>
      <point x="145" y="0" type="line"/>
      <point x="220" y="0" type="line"/>
      <point x="290" y="250" type="line"/>
      <point x="365" y="0" type="line"/>
      <point x="440" y="0" type="line"/>
      <point x="585" y="500" type="line"/>
      <point x="560" y="500" type="line"/>
      <point x="430" y="55" type="line"/>
      <point x="320" y="435" type="line"/>
    </contour>
  </outline>
</glyph>
<glyph name="x" format="1">
  <advance width="355"/>
  <unicode hex="0078"/>
  <outline>
    <contour>
      <point x="285" y="500" type="line" name="hr00"/>
      <point x="185" y="319" type="line"/>
      <point x="95" y="500" type="line"/>
      <point x="10" y="500" type="line"/>
      <point x="141" y="238" type="line"/>
      <point x="10" y="0" type="line"/>
      <point x="40" y="0" type="line"/>
      <point x="155" y="209" type="line"/>
      <point x="260" y="0" type="line"/>
      <point x="345" y="0" type="line"/>
      <point x="200" y="290" type="line"/>
      <point x="315" y="500" type="line"/>
    </contour>
  </outline>
</glyph>
<glyph name="z" format="1">
  <advance width="330"/>
  <unicode hex="007A"/>
  <outline>
    <contour>
      <point x="310" y="0" type="line" name="hr00"/>
      <point x="310" y="20" type="line"/>
      <point x="100" y="20" type="line"/>
      <point x="320" y="500" type="line"/>
      <point x="20" y="500" type="line"/>
      <point x="20" y="480" type="line"/>
      <point x="230" y="480" type="line"/>
      <point x="10" y="0" type="line"/>
    </contour>
  </outline>
</glyph>
<glyph name="braceleft" format="1">
  <advance width="310"/>
  <unicode hex="007B"/>
  <outline>
    <contour>
      <point x="120" y="30" type="line" smooth="yes" name="hr00"/>
      <point x="120" y="-40"/>
      <point x="180" y="-100"/>
      <point x="270" y="-100" type="curve" smooth="yes"/>
      <point x="290" y="-100" type="line"/>
      <point x="290" y="-80" type="line"/>
      <point x="270" y="-80" type="line" smooth="yes"/>
      <point x="240" y="-80"/>
      <point x="200" y="-40"/>
      <point x="200" y="30" type="curve" smooth="yes"/>
      <point x="200" y="180" type="line" smooth="yes"/>
      <point x="200" y="270"/>
      <point x="100" y="300"/>
      <point x="100" y="300" type="curve"/>
      <point x="100" y="300"/>
      <point x="200" y="330"/>
      <point x="200" y="420" type="curve" smooth="yes"/>
      <point x="200" y="570" type="line" smooth="yes"/>
      <point x="200" y="640"/>
      <point x="240" y="680"/>
      <point x="270" y="680" type="curve" smooth="yes"/>
      <point x="290" y="680" type="line"/>
      <point x="290" y="700" type="line"/>
      <point x="270" y="700" type="line" smooth="yes"/>
      <point x="180" y="700"/>
      <point x="120" y="640"/>
      <point x="120" y="570" type="curve" smooth="yes"/>
      <point x="120" y="420" type="line" smooth="yes"/>
      <point x="120" y="350"/>
      <point x="80" y="310"/>
      <point x="50" y="310" type="curve" smooth="yes"/>
      <point x="30" y="310" type="line"/>
      <point x="30" y="290" type="line"/>
      <point x="50" y="290" type="line" smooth="yes"/>
      <point x="80" y="290"/>
      <point x="120" y="250"/>
      <point x="120" y="180" type="curve" smooth="yes"/>
    </contour>
  </outline>
</glyph>
<glyph name="bar" format="1">
  <advance width="170"/>
  <unicode hex="007C"/>
  <outline>
    <contour>
      <point x="70" y="750" type="line" name="hr00"/>
      <point x="70" y="-50" type="line"/>
      <point x="100" y="-50" type="line"/>
      <point x="100" y="750" type="line"/>
    </contour>
  </outline>
</glyph>
<glyph name="braceright" format="1">
  <advance width="310"/>
  <unicode hex="007D"/>
  <outline>
    <contour>
      <point x="190" y="180" type="line" smooth="yes" name="hr00"/>
      <point x="190" y="250"/>
      <point x="230" y="290"/>
      <point x="260" y="290" type="curve" smooth="yes"/>
      <point x="280" y="290" type="line"/>
      <point x="280" y="310" type="line"/>
      <point x="260" y="310" type="line" smooth="yes"/>
      <point x="230" y="310"/>
      <point x="190" y="350"/>
      <point x="190" y="420" type="curve" smooth="yes"/>
      <point x="190" y="570" type="line" smooth="yes"/>
      <point x="190" y="640"/>
      <point x="130" y="700"/>
      <point x="40" y="700" type="curve" smooth="yes"/>
      <point x="20" y="700" type="line"/>
      <point x="20" y="680" type="line"/>
      <point x="40" y="680" type="line" smooth="yes"/>
      <point x="70" y="680"/>
      <point x="110" y="640"/>
      <point x="110" y="570" type="curve" smooth="yes"/>
      <point x="110" y="420" type="line" smooth="yes"/>
      <point x="110" y="330"/>
      <point x="210" y="300"/>
      <point x="210" y="300" type="curve"/>
      <point x="210" y="300"/>
      <point x="110" y="270"/>
      <point x="110" y="180" type="curve" smooth="yes"/>
      <point x="110" y="30" type="line" smooth="yes"/>
      <point x="110" y="-40"/>
      <point x="70" y="-80"/>
      <point x="40" y="-80" type="curve" smooth="yes"/>
      <point x="20" y="-80" type="line"/>
      <point x="20" y="-100" type="line"/>
      <point x="40" y="-100" type="line" smooth="yes"/>
      <point x="130" y="-100"/>
      <point x="190" y="-40"/>
      <point x="190" y="30" type="curve" smooth="yes"/>
    </contour>
  </outline>
</glyph>
<glyph name="asciitilde" format="1">
  <advance width="380"/>
  <unicode hex="007E"/>
  <outline>
    <contour>
      <point x="260" y="370" type="curve" name="hr00"/>
      <point x="200" y="370"/>
      <point x="150" y="330"/>
      <point x="100" y="330" type="curve" smooth="yes"/>
      <point x="60" y="330"/>
      <point x="30" y="380"/>
      <point x="30" y="380" type="curve"/>
      <point x="30" y="300"/>
      <point x="60" y="270"/>
      <point x="120" y="270" type="curve" smooth="yes"/>
      <point x="180" y="270"/>
      <point x="230" y="310"/>
      <point x="280" y="310" type="curve" smooth="yes"/>
      <point x="320" y="310"/>
      <point x="350" y="260"/>
      <point x="350" y="260" type="curve"/>
      <point x="350" y="340"/>
      <point x="320" y="370"/>
    </contour>
  </outline>
</glyph>
<glyph name="exclamdown" format="1">
  <advance width="220"/>
  <unicode hex="00A1"/>
  <outline>
    <contour>
      <point x="60" y="70" type="line" name="hr00"/>
      <point x="60" y="-270" type="line"/>
      <point x="160" y="-270" type="line"/>
      <point x="160" y="70" type="line"/>
      <point x="130" y="320" type="line"/>
      <point x="90" y="320" type="line"/>
    </contour>
    <contour>
      <point x="70" y="500" type="line"/>
      <point x="70" y="420" type="line"/>
      <point x="150" y="420" type="line"/>
      <point x="150" y="500" type="line"/>
    </contour>
  </outline>
</glyph>
<glyph name="cent" format="1">
  <advance width="390"/>
  <unicode hex="00A2"/>
  <outline>
    <contour>
      <point x="200" y="590" type="line" name="hr00"/>
      <point x="200" y="509" type="line"/>
      <point x="119" y="499"/>
      <point x="40" y="410"/>
      <point x="40" y="250" type="curve" smooth="yes"/>
      <point x="40" y="90"/>
      <point x="119" y="1"/>
      <point x="200" y="-9" type="curve"/>
      <point x="200" y="-90" type="line"/>
      <point x="230" y="-90" type="line"/>
      <point x="230" y="-9" type="line"/>
      <point x="298" y="-1"/>
      <point x="350" y="55"/>
      <point x="360" y="120" type="curve"/>
      <point x="295" y="180" type="line"/>
      <point x="295" y="60"/>
      <point x="245" y="10"/>
      <point x="215" y="10" type="curve" smooth="yes"/>
      <point x="180" y="10"/>
      <point x="130" y="65"/>
      <point x="130" y="250" type="curve" smooth="yes"/>
      <point x="130" y="435"/>
      <point x="180" y="490"/>
      <point x="215" y="490" type="curve" smooth="yes"/>
      <point x="245" y="490"/>
      <point x="295" y="440"/>
      <point x="295" y="350" type="curve"/>
      <point x="360" y="410" type="line"/>
      <point x="350" y="447"/>
      <point x="298" y="501"/>
      <point x="230" y="509" type="curve"/>
      <point x="230" y="590" type="line"/>
    </contour>
  </outline>
</glyph>
<glyph name="sterling" format="1">
  <advance width="400"/>
  <unicode hex="00A3"/>
  <outline>
    <contour>
      <point x="130" y="220" type="line" name="hr00"/>
      <point x="130" y="90"/>
      <point x="100" y="60"/>
      <point x="75" y="60" type="curve" smooth="yes"/>
      <point x="35" y="60"/>
      <point x="15" y="100"/>
      <point x="15" y="100" type="curve"/>
      <point x="10" y="100" type="line"/>
      <point x="10" y="25"/>
      <point x="45" y="-10"/>
      <point x="95" y="-10" type="curve" smooth="yes"/>
      <point x="175" y="-10"/>
      <point x="235" y="40"/>
      <point x="305" y="40" type="curve" smooth="yes"/>
      <point x="345" y="40"/>
      <point x="365" y="0"/>
      <point x="365" y="0" type="curve"/>
      <point x="370" y="0" type="line"/>
      <point x="370" y="75"/>
      <point x="335" y="110"/>
      <point x="285" y="110" type="curve" smooth="yes"/>
      <point x="215" y="110"/>
      <point x="145" y="70"/>
      <point x="145" y="70" type="curve"/>
      <point x="135" y="70" type="line"/>
      <point x="135" y="70"/>
      <point x="210" y="120"/>
      <point x="210" y="220" type="curve"/>
      <point x="210" y="370" type="line"/>
      <point x="295" y="370" type="line"/>
      <point x="295" y="390" type="line"/>
      <point x="210" y="390" type="line"/>
      <point x="210" y="570" type="line"/>
      <point x="210" y="660"/>
      <point x="250" y="700"/>
      <point x="280" y="700" type="curve" smooth="yes"/>
      <point x="319" y="700"/>
      <point x="348" y="615"/>
      <point x="350" y="610" type="curve"/>
      <point x="350" y="700" type="line"/>
      <point x="350" y="700"/>
      <point x="320" y="720"/>
      <point x="280" y="720" type="curve" smooth="yes"/>
      <point x="190" y="720"/>
      <point x="130" y="660"/>
      <point x="130" y="570" type="curve"/>
      <point x="130" y="390" type="line"/>
      <point x="65" y="390" type="line"/>
      <point x="65" y="370" type="line"/>
      <point x="130" y="370" type="line"/>
    </contour>
  </outline>
</glyph>
<glyph name="currency" format="1">
  <advance width="440"/>
  <unicode hex="00A4"/>
  <outline>
    <contour>
      <point x="30" y="380" type="line" name="hr00"/>
      <point x="100" y="380" type="line"/>
      <point x="100" y="0" type="line"/>
      <point x="180" y="0" type="line"/>
      <point x="180" y="380" type="line"/>
      <point x="350" y="380" type="line"/>
      <point x="350" y="400" type="line"/>
      <point x="180" y="400" type="line"/>
      <point x="180" y="460" type="line"/>
      <point x="350" y="460"/>
      <point x="410" y="520"/>
      <point x="410" y="580" type="curve" smooth="yes"/>
      <point x="410" y="640"/>
      <point x="350" y="700"/>
      <point x="180" y="700" type="curve"/>
      <point x="100" y="700" type="line"/>
      <point x="100" y="480" type="line"/>
      <point x="30" y="480" type="line"/>
      <point x="30" y="460" type="line"/>
      <point x="100" y="460" type="line"/>
      <point x="100" y="400" type="line"/>
      <point x="30" y="400" type="line"/>
    </contour>
    <contour>
      <point x="320" y="580" type="curve" smooth="yes"/>
      <point x="320" y="520"/>
      <point x="280" y="480"/>
      <point x="180" y="480" type="curve"/>
      <point x="180" y="680" type="line"/>
      <point x="280" y="680"/>
      <point x="320" y="640"/>
    </contour>
  </outline>
</glyph>
<glyph name="yen" format="1">
  <advance width="415"/>
  <unicode hex="00A5"/>
  <outline>
    <contour>
      <point x="80" y="460" type="line" name="hr00"/>
      <point x="175" y="460" type="line"/>
      <point x="175" y="400" type="line"/>
      <point x="80" y="400" type="line"/>
      <point x="80" y="380" type="line"/>
      <point x="175" y="380" type="line"/>
      <point x="175" y="0" type="line"/>
      <point x="255" y="0" type="line"/>
      <point x="255" y="380" type="line"/>
      <point x="350" y="380" type="line"/>
      <point x="350" y="400" type="line"/>
      <point x="255" y="400" type="line"/>
      <point x="255" y="460" type="line"/>
      <point x="350" y="460" type="line"/>
      <point x="350" y="480" type="line"/>
      <point x="255" y="480" type="line"/>
      <point x="255" y="490" type="line"/>
      <point x="415" y="700" type="line"/>
      <point x="385" y="700" type="line"/>
      <point x="240" y="510" type="line"/>
      <point x="95" y="700" type="line"/>
      <point x="0" y="700" type="line"/>
      <point x="167" y="480" type="line"/>
      <point x="80" y="480" type="line"/>
    </contour>
  </outline>
</glyph>
<glyph name="brokenbar" format="1">
  <advance width="190"/>
  <unicode hex="00A6"/>
  <outline>
    <contour>
      <point x="110" y="-50" type="line" name="hr00"/>
      <point x="110" y="300" type="line"/>
      <point x="80" y="300" type="line"/>
      <point x="80" y="-50" type="line"/>
    </contour>
    <contour>
      <point x="80" y="750" type="line"/>
      <point x="80" y="400" type="line"/>
      <point x="110" y="400" type="line"/>
      <point x="110" y="750" type="line"/>
    </contour>
  </outline>
</glyph>
<glyph name="section" format="1">
  <advance width="405"/>
  <unicode hex="00A7"/>
  <outline>
    <contour>
      <point x="290" y="110" type="curve" name="hr00"/>
      <point x="290" y="50"/>
      <point x="250" y="10"/>
      <point x="205" y="10" type="curve" smooth="yes"/>
      <point x="165" y="10"/>
      <point x="115" y="60"/>
      <point x="115" y="180" type="curve"/>
      <point x="50" y="120" type="line"/>
      <point x="60" y="50"/>
      <point x="120" y="-10"/>
      <point x="205" y="-10" type="curve" smooth="yes"/>
      <point x="290" y="-10"/>
      <point x="350" y="50"/>
      <point x="350" y="130" type="curve" smooth="yes"/>
      <point x="350" y="200"/>
      <point x="310" y="230"/>
      <point x="310" y="230" type="curve"/>
      <point x="310" y="230"/>
      <point x="350" y="270"/>
      <point x="350" y="330" type="curve" smooth="yes"/>
      <point x="350" y="490"/>
      <point x="145" y="510"/>
      <point x="145" y="610" type="curve" smooth="yes"/>
      <point x="145" y="660"/>
      <point x="175" y="690"/>
      <point x="220" y="690" type="curve" smooth="yes"/>
      <point x="260" y="690"/>
      <point x="300" y="650"/>
      <point x="300" y="570" type="curve"/>
      <point x="355" y="620" type="line"/>
      <point x="345" y="660"/>
      <point x="295" y="710"/>
      <point x="220" y="710" type="curve" smooth="yes"/>
      <point x="135" y="710"/>
      <point x="85" y="660"/>
      <point x="85" y="590" type="curve" smooth="yes"/>
      <point x="85" y="520"/>
      <point x="120" y="490"/>
      <point x="120" y="490" type="curve"/>
      <point x="120" y="490"/>
      <point x="65" y="450"/>
      <point x="65" y="390" type="curve" smooth="yes"/>
      <point x="65" y="240"/>
      <point x="290" y="220"/>
    </contour>
    <contour>
      <point x="290" y="310" type="curve"/>
      <point x="290" y="280"/>
      <point x="275" y="260"/>
      <point x="276" y="260" type="curve"/>
      <point x="215" y="310"/>
      <point x="125" y="340"/>
      <point x="125" y="410" type="curve" smooth="yes"/>
      <point x="125" y="450"/>
      <point x="140" y="470"/>
      <point x="140" y="470" type="curve"/>
      <point x="200" y="410"/>
      <point x="290" y="380"/>
    </contour>
  </outline>
</glyph>
<glyph name="dieresis" format="1">
  <advance width="280"/>
  <unicode hex="00A8"/>
  <outline>
    <contour>
      <point x="110" y="660" type="curve" smooth="yes" name="hr00"/>
      <point x="110" y="680"/>
      <point x="90" y="700"/>
      <point x="70" y="700" type="curve" smooth="yes"/>
      <point x="50" y="700"/>
      <point x="30" y="680"/>
      <point x="30" y="660" type="curve" smooth="yes"/>
      <point x="30" y="640"/>
      <point x="50" y="620"/>
      <point x="70" y="620" type="curve" smooth="yes"/>
      <point x="90" y="620"/>
      <point x="110" y="640"/>
    </contour>
    <contour>
      <point x="250" y="660" type="curve" smooth="yes"/>
      <point x="250" y="680"/>
      <point x="230" y="700"/>
      <point x="210" y="700" type="curve" smooth="yes"/>
      <point x="190" y="700"/>
      <point x="170" y="680"/>
      <point x="170" y="660" type="curve" smooth="yes"/>
      <point x="170" y="640"/>
      <point x="190" y="620"/>
      <point x="210" y="620" type="curve" smooth="yes"/>
      <point x="230" y="620"/>
      <point x="250" y="640"/>
    </contour>
  </outline>
</glyph>
<glyph name="copyright" format="1">
  <advance width="780"/>
  <unicode hex="00A9"/>
  <outline>
    <contour>
      <point x="30" y="350" type="curve" smooth="yes" name="hr00"/>
      <point x="30" y="160"/>
      <point x="200" y="-10"/>
      <point x="390" y="-10" type="curve" smooth="yes"/>
      <point x="580" y="-10"/>
      <point x="750" y="160"/>
      <point x="750" y="350" type="curve" smooth="yes"/>
      <point x="750" y="540"/>
      <point x="580" y="710"/>
      <point x="390" y="710" type="curve" smooth="yes"/>
      <point x="200" y="710"/>
      <point x="30" y="540"/>
    </contour>
    <contour>
      <point x="710" y="350" type="curve" smooth="yes"/>
      <point x="710" y="180"/>
      <point x="560" y="30"/>
      <point x="390" y="30" type="curve" smooth="yes"/>
      <point x="220" y="30"/>
      <point x="70" y="180"/>
      <point x="70" y="350" type="curve" smooth="yes"/>
      <point x="70" y="520"/>
      <point x="220" y="670"/>
      <point x="390" y="670" type="curve" smooth="yes"/>
      <point x="560" y="670"/>
      <point x="710" y="520"/>
    </contour>
    <contour>
      <point x="390" y="535" type="curve" smooth="yes"/>
      <point x="330" y="535"/>
      <point x="270" y="475"/>
      <point x="270" y="355" type="curve" smooth="yes"/>
      <point x="270" y="235"/>
      <point x="330" y="175"/>
      <point x="390" y="175" type="curve" smooth="yes"/>
      <point x="445" y="175"/>
      <point x="490" y="220"/>
      <point x="495" y="265" type="curve"/>
      <point x="445" y="305" type="line"/>
      <point x="445" y="220"/>
      <point x="415" y="190"/>
      <point x="390" y="190" type="curve" smooth="yes"/>
      <point x="365" y="190"/>
      <point x="330" y="230"/>
      <point x="330" y="355" type="curve" smooth="yes"/>
      <point x="330" y="480"/>
      <point x="365" y="520"/>
      <point x="390" y="520" type="curve" smooth="yes"/>
      <point x="410" y="520"/>
      <point x="440" y="490"/>
      <point x="440" y="420" type="curve"/>
      <point x="490" y="460" type="line"/>
      <point x="485" y="490"/>
      <point x="440" y="535"/>
    </contour>
  </outline>
</glyph>
<glyph name="ordfeminine" format="1">
  <advance width="250"/>
  <unicode hex="00AA"/>
  <outline>
    <contour>
      <point x="220" y="630" type="line" smooth="yes" name="hr00"/>
      <point x="220" y="680"/>
      <point x="190" y="710"/>
      <point x="120" y="710" type="curve" smooth="yes"/>
      <point x="75" y="710"/>
      <point x="50" y="687"/>
      <point x="50" y="687" type="curve"/>
      <point x="50" y="630" type="line"/>
      <point x="50" y="630"/>
      <point x="75" y="695"/>
      <point x="120" y="695" type="curve" smooth="yes"/>
      <point x="145" y="695"/>
      <point x="160" y="680"/>
      <point x="160" y="630" type="curve" smooth="yes"/>
      <point x="160" y="604" type="line"/>
      <point x="160" y="604"/>
      <point x="145" y="615"/>
      <point x="110" y="615" type="curve" smooth="yes"/>
      <point x="55" y="615"/>
      <point x="30" y="590"/>
      <point x="30" y="554" type="curve" smooth="yes"/>
      <point x="30" y="515"/>
      <point x="55" y="490"/>
      <point x="100" y="490" type="curve" smooth="yes"/>
      <point x="140" y="490"/>
      <point x="160" y="525"/>
      <point x="160" y="525" type="curve"/>
      <point x="160" y="500" type="line"/>
      <point x="220" y="500" type="line"/>
    </contour>
    <contour>
      <point x="130" y="600" type="curve" smooth="yes"/>
      <point x="145" y="600"/>
      <point x="160" y="590"/>
      <point x="160" y="590" type="curve"/>
      <point x="160" y="545" type="line"/>
      <point x="160" y="545"/>
      <point x="145" y="515"/>
      <point x="120" y="515" type="curve" smooth="yes"/>
      <point x="105" y="515"/>
      <point x="90" y="530"/>
      <point x="90" y="554" type="curve" smooth="yes"/>
      <point x="90" y="580"/>
      <point x="110" y="600"/>
    </contour>
  </outline>
</glyph>
<glyph name="guillemotleft" format="1">
  <advance width="380"/>
  <unicode hex="00AB"/>
  <outline>
    <contour>
      <point x="69" y="250" type="line" name="hr00"/>
      <point x="220" y="430" type="line"/>
      <point x="200" y="450" type="line"/>
      <point x="30" y="250" type="line"/>
      <point x="200" y="50" type="line"/>
      <point x="220" y="70" type="line"/>
    </contour>
    <contour>
      <point x="199" y="250" type="line"/>
      <point x="350" y="430" type="line"/>
      <point x="330" y="450" type="line"/>
      <point x="160" y="250" type="line"/>
      <point x="330" y="50" type="line"/>
      <point x="350" y="70" type="line"/>
    </contour>
  </outline>
</glyph>
<glyph name="logicalnot" format="1">
  <advance width="370"/>
  <unicode hex="00AC"/>
  <outline>
    <contour>
      <point x="340" y="370" type="line" name="hr00"/>
      <point x="30" y="370" type="line"/>
      <point x="30" y="340" type="line"/>
      <point x="310" y="340" type="line"/>
      <point x="310" y="240" type="line"/>
      <point x="340" y="240" type="line"/>
    </contour>
  </outline>
</glyph>
<glyph name="registered" format="1">
  <advance width="780"/>
  <unicode hex="00AE"/>
  <outline>
    <contour>
      <point x="30" y="350" type="curve" name="hr00"/>
      <point x="30" y="160"/>
      <point x="200" y="-10"/>
      <point x="390" y="-10" type="curve"/>
      <point x="580" y="-10"/>
      <point x="750" y="160"/>
      <point x="750" y="350" type="curve"/>
      <point x="750" y="540"/>
      <point x="580" y="710"/>
      <point x="390" y="710" type="curve" smooth="yes"/>
      <point x="200" y="710"/>
      <point x="30" y="540"/>
    </contour>
    <contour>
      <point x="710" y="350" type="curve"/>
      <point x="710" y="180"/>
      <point x="560" y="30"/>
      <point x="390" y="30" type="curve"/>
      <point x="220" y="30"/>
      <point x="70" y="180"/>
      <point x="70" y="350" type="curve"/>
      <point x="70" y="520"/>
      <point x="220" y="670"/>
      <point x="390" y="670" type="curve" smooth="yes"/>
      <point x="560" y="670"/>
      <point x="710" y="520"/>
    </contour>
    <contour>
      <point x="300" y="180" type="line"/>
      <point x="355" y="180" type="line"/>
      <point x="355" y="404" type="line"/>
      <point x="355" y="404"/>
      <point x="440" y="400"/>
      <point x="440" y="180" type="curve"/>
      <point x="500" y="180" type="line"/>
      <point x="500" y="405"/>
      <point x="380" y="410"/>
      <point x="380" y="410" type="curve"/>
      <point x="380" y="410"/>
      <point x="475" y="420"/>
      <point x="475" y="470" type="curve" smooth="yes"/>
      <point x="475" y="500"/>
      <point x="445" y="530"/>
      <point x="355" y="530" type="curve" smooth="yes"/>
      <point x="300" y="530" type="line"/>
    </contour>
    <contour>
      <point x="355" y="515" type="line"/>
      <point x="400" y="515"/>
      <point x="420" y="495"/>
      <point x="420" y="470" type="curve" smooth="yes"/>
      <point x="420" y="440"/>
      <point x="400" y="420"/>
      <point x="355" y="420" type="curve"/>
    </contour>
  </outline>
</glyph>
<glyph name="macron" format="1">
  <advance width="270"/>
  <unicode hex="00AF"/>
  <outline>
    <contour>
      <point x="240" y="670" type="line" name="hr00"/>
      <point x="240" y="700" type="line"/>
      <point x="30" y="700" type="line"/>
      <point x="30" y="670" type="line"/>
    </contour>
  </outline>
</glyph>
<glyph name="degree" format="1">
  <advance width="290"/>
  <unicode hex="00B0"/>
  <outline>
    <contour>
      <point x="250" y="600" type="curve" name="hr00"/>
      <point x="250" y="660"/>
      <point x="200" y="710"/>
      <point x="145" y="710" type="curve"/>
      <point x="90" y="710"/>
      <point x="40" y="660"/>
      <point x="40" y="600" type="curve"/>
      <point x="40" y="540"/>
      <point x="90" y="490"/>
      <point x="145" y="490" type="curve" smooth="yes"/>
      <point x="200" y="490"/>
      <point x="250" y="540"/>
    </contour>
    <contour>
      <point x="210" y="600" type="curve"/>
      <point x="210" y="550"/>
      <point x="180" y="520"/>
      <point x="145" y="520" type="curve" smooth="yes"/>
      <point x="110" y="520"/>
      <point x="80" y="550"/>
      <point x="80" y="600" type="curve"/>
      <point x="80" y="650"/>
      <point x="110" y="680"/>
      <point x="145" y="680" type="curve"/>
      <point x="180" y="680"/>
      <point x="210" y="650"/>
    </contour>
  </outline>
</glyph>
<glyph name="plusminus" format="1">
  <advance width="350"/>
  <unicode hex="00B1"/>
  <outline>
    <contour>
      <point x="320" y="100" type="line" name="hr00"/>
      <point x="320" y="130" type="line"/>
      <point x="190" y="130" type="line"/>
      <point x="190" y="290" type="line"/>
      <point x="320" y="290" type="line"/>
      <point x="320" y="320" type="line"/>
      <point x="190" y="320" type="line"/>
      <point x="190" y="450" type="line"/>
      <point x="160" y="450" type="line"/>
      <point x="160" y="320" type="line"/>
      <point x="30" y="320" type="line"/>
      <point x="30" y="290" type="line"/>
      <point x="160" y="290" type="line"/>
      <point x="160" y="130" type="line"/>
      <point x="30" y="130" type="line"/>
      <point x="30" y="100" type="line"/>
    </contour>
  </outline>
</glyph>
<glyph name="twosuperior" format="1">
  <advance width="231"/>
  <unicode hex="00B2"/>
  <outline>
    <contour>
      <point x="141" y="650" type="curve" smooth="yes" name="hr00"/>
      <point x="141" y="585"/>
      <point x="31" y="500"/>
      <point x="31" y="500" type="curve"/>
      <point x="201" y="500" type="line"/>
      <point x="201" y="550" type="line"/>
      <point x="96" y="550" type="line"/>
      <point x="96" y="550"/>
      <point x="201" y="590"/>
      <point x="201" y="650" type="curve" smooth="yes"/>
      <point x="201" y="680"/>
      <point x="171" y="710"/>
      <point x="111" y="710" type="curve" smooth="yes"/>
      <point x="51" y="710"/>
      <point x="31" y="680"/>
      <point x="30" y="680" type="curve"/>
      <point x="61" y="630" type="line"/>
      <point x="61" y="630"/>
      <point x="76" y="694"/>
      <point x="106" y="694" type="curve" smooth="yes"/>
      <point x="126" y="694"/>
      <point x="141" y="680"/>
    </contour>
  </outline>
</glyph>
<glyph name="threesuperior" format="1">
  <advance width="231"/>
  <unicode hex="00B3"/>
  <outline>
    <contour>
      <point x="106" y="595" type="line" name="hr00"/>
      <point x="126" y="595"/>
      <point x="141" y="580"/>
      <point x="141" y="550" type="curve"/>
      <point x="141" y="520"/>
      <point x="126" y="506"/>
      <point x="106" y="506" type="curve" smooth="yes"/>
      <point x="76" y="506"/>
      <point x="61" y="570"/>
      <point x="61" y="570" type="curve"/>
      <point x="30" y="520" type="line"/>
      <point x="31" y="520"/>
      <point x="51" y="490"/>
      <point x="111" y="490" type="curve" smooth="yes"/>
      <point x="171" y="490"/>
      <point x="201" y="520"/>
      <point x="201" y="550" type="curve"/>
      <point x="201" y="580"/>
      <point x="171" y="610"/>
      <point x="116" y="610" type="curve"/>
      <point x="201" y="700" type="line"/>
      <point x="45" y="700" type="line"/>
      <point x="45" y="650" type="line"/>
      <point x="136" y="650" type="line"/>
      <point x="86" y="595" type="line"/>
    </contour>
  </outline>
</glyph>
<glyph name="acute" format="1">
  <advance width="215"/>
  <unicode hex="00B4"/>
  <outline>
    <contour>
      <point x="40" y="610" type="line" name="hr00"/>
      <point x="185" y="650" type="line"/>
      <point x="165" y="700" type="line"/>
      <point x="30" y="630" type="line"/>
    </contour>
  </outline>
</glyph>
<glyph name="paragraph" format="1">
  <advance width="350"/>
  <unicode hex="00B6"/>
  <outline>
    <contour>
      <point x="270" y="0" type="line" name="hr00"/>
      <point x="270" y="680" type="line"/>
      <point x="330" y="680" type="line"/>
      <point x="330" y="700" type="line"/>
      <point x="150" y="700" type="line" smooth="yes"/>
      <point x="80" y="700"/>
      <point x="30" y="650"/>
      <point x="30" y="590" type="curve" smooth="yes"/>
      <point x="30" y="530"/>
      <point x="80" y="480"/>
      <point x="150" y="480" type="curve"/>
      <point x="150" y="0" type="line"/>
      <point x="180" y="0" type="line"/>
      <point x="180" y="680" type="line"/>
      <point x="240" y="680" type="line"/>
      <point x="240" y="0" type="line"/>
    </contour>
  </outline>
</glyph>
<glyph name="periodcentered" format="1">
  <advance width="180"/>
  <unicode hex="00B7"/>
  <outline>
    <contour>
      <point x="130" y="310" type="line" name="hr00"/>
      <point x="130" y="390" type="line"/>
      <point x="50" y="390" type="line"/>
      <point x="50" y="310" type="line"/>
    </contour>
  </outline>
</glyph>
<glyph name="cedilla" format="1">
  <advance width="190"/>
  <unicode hex="00B8"/>
  <outline>
    <contour>
      <point x="160" y="-105" type="curve" smooth="yes" name="hr00"/>
      <point x="160" y="-70"/>
      <point x="130" y="-40"/>
      <point x="90" y="-40" type="curve"/>
      <point x="105" y="0" type="line"/>
      <point x="80" y="0" type="line"/>
      <point x="50" y="-65" type="line"/>
      <point x="65" y="-65" type="line"/>
      <point x="85" y="-65"/>
      <point x="100" y="-80"/>
      <point x="100" y="-100" type="curve" smooth="yes"/>
      <point x="100" y="-120"/>
      <point x="85" y="-135"/>
      <point x="65" y="-135" type="curve" smooth="yes"/>
      <point x="50" y="-135"/>
      <point x="30" y="-125"/>
      <point x="30" y="-125" type="curve"/>
      <point x="30" y="-150" type="line"/>
      <point x="30" y="-150"/>
      <point x="50" y="-170"/>
      <point x="85" y="-170" type="curve" smooth="yes"/>
      <point x="130" y="-170"/>
      <point x="160" y="-140"/>
    </contour>
  </outline>
</glyph>
<glyph name="onesuperior" format="1">
  <advance width="150"/>
  <unicode hex="00B9"/>
  <outline>
    <contour>
      <point x="30" y="630" type="line" name="hr00"/>
      <point x="30" y="610" type="line"/>
      <point x="60" y="640" type="line"/>
      <point x="60" y="500" type="line"/>
      <point x="120" y="500" type="line"/>
      <point x="120" y="720" type="line"/>
    </contour>
  </outline>
</glyph>
<glyph name="ordmasculine" format="1">
  <advance width="290"/>
  <unicode hex="00BA"/>
  <outline>
    <contour>
      <point x="145" y="690" type="curve" smooth="yes" name="hr00"/>
      <point x="170" y="690"/>
      <point x="200" y="660"/>
      <point x="200" y="600" type="curve" smooth="yes"/>
      <point x="200" y="540"/>
      <point x="170" y="510"/>
      <point x="145" y="510" type="curve" smooth="yes"/>
      <point x="120" y="510"/>
      <point x="90" y="540"/>
      <point x="90" y="600" type="curve" smooth="yes"/>
      <point x="90" y="660"/>
      <point x="120" y="690"/>
    </contour>
    <contour>
      <point x="145" y="710" type="curve" smooth="yes"/>
      <point x="80" y="710"/>
      <point x="30" y="660"/>
      <point x="30" y="600" type="curve" smooth="yes"/>
      <point x="30" y="540"/>
      <point x="80" y="490"/>
      <point x="145" y="490" type="curve" smooth="yes"/>
      <point x="210" y="490"/>
      <point x="260" y="540"/>
      <point x="260" y="600" type="curve" smooth="yes"/>
      <point x="260" y="660"/>
      <point x="210" y="710"/>
    </contour>
  </outline>
</glyph>
<glyph name="guillemotright" format="1">
  <advance width="380"/>
  <unicode hex="00BB"/>
  <outline>
    <contour>
      <point x="30" y="70" type="line" name="hr00"/>
      <point x="50" y="50" type="line"/>
      <point x="220" y="250" type="line"/>
      <point x="50" y="450" type="line"/>
      <point x="30" y="430" type="line"/>
      <point x="181" y="250" type="line"/>
    </contour>
    <contour>
      <point x="160" y="70" type="line"/>
      <point x="180" y="50" type="line"/>
      <point x="350" y="250" type="line"/>
      <point x="180" y="450" type="line"/>
      <point x="160" y="430" type="line"/>
      <point x="311" y="250" type="line"/>
    </contour>
  </outline>
</glyph>
<glyph name="onequarter" format="1">
  <advance width="490"/>
  <unicode hex="00BC"/>
  <outline>
    <contour>
      <point x="90" y="0" type="line" name="hr00"/>
      <point x="440" y="700" type="line"/>
      <point x="390" y="700" type="line"/>
      <point x="40" y="0" type="line"/>
    </contour>
    <contour>
      <point x="40" y="630" type="line"/>
      <point x="40" y="610" type="line"/>
      <point x="70" y="640" type="line"/>
      <point x="70" y="500" type="line"/>
      <point x="130" y="500" type="line"/>
      <point x="130" y="720" type="line"/>
    </contour>
    <contour>
      <point x="350" y="55" type="line"/>
      <point x="350" y="0" type="line"/>
      <point x="410" y="0" type="line"/>
      <point x="410" y="55" type="line"/>
      <point x="450" y="55" type="line"/>
      <point x="450" y="70" type="line"/>
      <point x="410" y="70" type="line"/>
      <point x="410" y="220" type="line"/>
      <point x="260" y="55" type="line"/>
    </contour>
    <contour>
      <point x="350" y="130" type="line"/>
      <point x="350" y="70" type="line"/>
      <point x="295" y="70" type="line"/>
    </contour>
  </outline>
</glyph>
<glyph name="onehalf" format="1">
  <advance width="480"/>
  <unicode hex="00BD"/>
  <outline>
    <contour>
      <point x="90" y="0" type="line" name="hr00"/>
      <point x="440" y="700" type="line"/>
      <point x="390" y="700" type="line"/>
      <point x="40" y="0" type="line"/>
    </contour>
    <contour>
      <point x="40" y="630" type="line"/>
      <point x="40" y="610" type="line"/>
      <point x="70" y="640" type="line"/>
      <point x="70" y="500" type="line"/>
      <point x="130" y="500" type="line"/>
      <point x="130" y="720" type="line"/>
    </contour>
    <contour>
      <point x="380" y="150" type="curve" smooth="yes"/>
      <point x="380" y="85"/>
      <point x="270" y="0"/>
      <point x="270" y="0" type="curve"/>
      <point x="440" y="0" type="line"/>
      <point x="440" y="50" type="line"/>
      <point x="335" y="50" type="line"/>
      <point x="335" y="50"/>
      <point x="440" y="90"/>
      <point x="440" y="150" type="curve" smooth="yes"/>
      <point x="440" y="180"/>
      <point x="410" y="210"/>
      <point x="350" y="210" type="curve" smooth="yes"/>
      <point x="290" y="210"/>
      <point x="270" y="180"/>
      <point x="269" y="180" type="curve"/>
      <point x="300" y="130" type="line"/>
      <point x="300" y="130"/>
      <point x="315" y="194"/>
      <point x="345" y="194" type="curve" smooth="yes"/>
      <point x="365" y="194"/>
      <point x="380" y="180"/>
    </contour>
  </outline>
</glyph>
<glyph name="threequarters" format="1">
  <advance width="530"/>
  <unicode hex="00BE"/>
  <outline>
    <contour>
      <point x="130" y="0" type="line" name="hr00"/>
      <point x="480" y="700" type="line"/>
      <point x="430" y="700" type="line"/>
      <point x="80" y="0" type="line"/>
    </contour>
    <contour>
      <point x="390" y="55" type="line"/>
      <point x="390" y="0" type="line"/>
      <point x="450" y="0" type="line"/>
      <point x="450" y="55" type="line"/>
      <point x="490" y="55" type="line"/>
      <point x="490" y="70" type="line"/>
      <point x="450" y="70" type="line"/>
      <point x="450" y="220" type="line"/>
      <point x="300" y="55" type="line"/>
    </contour>
    <contour>
      <point x="390" y="130" type="line"/>
      <point x="390" y="70" type="line"/>
      <point x="335" y="70" type="line"/>
    </contour>
    <contour>
      <point x="116" y="595" type="line" smooth="yes"/>
      <point x="136" y="595"/>
      <point x="151" y="580"/>
      <point x="151" y="550" type="curve" smooth="yes"/>
      <point x="151" y="520"/>
      <point x="136" y="506"/>
      <point x="116" y="506" type="curve" smooth="yes"/>
      <point x="86" y="506"/>
      <point x="71" y="570"/>
      <point x="71" y="570" type="curve"/>
      <point x="40" y="520" type="line"/>
      <point x="41" y="520"/>
      <point x="61" y="490"/>
      <point x="121" y="490" type="curve" smooth="yes"/>
      <point x="181" y="490"/>
      <point x="211" y="520"/>
      <point x="211" y="550" type="curve" smooth="yes"/>
      <point x="211" y="580"/>
      <point x="181" y="610"/>
      <point x="126" y="610" type="curve"/>
      <point x="211" y="700" type="line"/>
      <point x="55" y="700" type="line"/>
      <point x="55" y="650" type="line"/>
      <point x="146" y="650" type="line"/>
      <point x="96" y="595" type="line"/>
    </contour>
  </outline>
</glyph>
<glyph name="questiondown" format="1">
  <advance width="390"/>
  <unicode hex="00BF"/>
  <outline>
    <contour>
      <point x="170" y="500" type="line" name="hr00"/>
      <point x="170" y="420" type="line"/>
      <point x="250" y="420" type="line"/>
      <point x="250" y="500" type="line"/>
    </contour>
    <contour>
      <point x="200" y="-280" type="curve"/>
      <point x="280" y="-280"/>
      <point x="350" y="-210"/>
      <point x="370" y="-130" type="curve"/>
      <point x="300" y="-60" type="line"/>
      <point x="300" y="-200"/>
      <point x="240" y="-260"/>
      <point x="200" y="-260" type="curve" smooth="yes"/>
      <point x="160" y="-260"/>
      <point x="120" y="-220"/>
      <point x="120" y="-100" type="curve" smooth="yes"/>
      <point x="120" y="30"/>
      <point x="230" y="90"/>
      <point x="230" y="320" type="curve"/>
      <point x="190" y="320" type="line"/>
      <point x="190" y="160"/>
      <point x="30" y="70"/>
      <point x="30" y="-100" type="curve" smooth="yes"/>
      <point x="30" y="-210"/>
      <point x="100" y="-280"/>
    </contour>
  </outline>
</glyph>
<glyph name="Ccedilla" format="1">
  <advance width="450"/>
  <unicode hex="00C7"/>
  <outline>
    <contour>
      <point x="325" y="-105" type="curve" smooth="yes" name="hr00"/>
      <point x="325" y="-70"/>
      <point x="295" y="-40"/>
      <point x="255" y="-40" type="curve"/>
      <point x="266" y="-9" type="line"/>
      <point x="339" y="0"/>
      <point x="401" y="67"/>
      <point x="420" y="160" type="curve"/>
      <point x="350" y="230" type="line"/>
      <point x="350" y="70"/>
      <point x="290" y="10"/>
      <point x="250" y="10" type="curve" smooth="yes"/>
      <point x="200" y="10"/>
      <point x="130" y="80"/>
      <point x="130" y="350" type="curve" smooth="yes"/>
      <point x="130" y="620"/>
      <point x="200" y="690"/>
      <point x="250" y="690" type="curve" smooth="yes"/>
      <point x="290" y="690"/>
      <point x="350" y="630"/>
      <point x="350" y="500" type="curve"/>
      <point x="420" y="570" type="line"/>
      <point x="400" y="640"/>
      <point x="330" y="710"/>
      <point x="250" y="710" type="curve" smooth="yes"/>
      <point x="160" y="710"/>
      <point x="40" y="590"/>
      <point x="40" y="350" type="curve" smooth="yes"/>
      <point x="40" y="118"/>
      <point x="152" y="-1"/>
      <point x="240" y="-9" type="curve"/>
      <point x="215" y="-65" type="line"/>
      <point x="230" y="-65" type="line" smooth="yes"/>
      <point x="250" y="-65"/>
      <point x="265" y="-80"/>
      <point x="265" y="-100" type="curve" smooth="yes"/>
      <point x="265" y="-120"/>
      <point x="250" y="-135"/>
      <point x="230" y="-135" type="curve" smooth="yes"/>
      <point x="215" y="-135"/>
      <point x="195" y="-125"/>
      <point x="195" y="-125" type="curve"/>
      <point x="195" y="-150" type="line"/>
      <point x="195" y="-150"/>
      <point x="215" y="-170"/>
      <point x="250" y="-170" type="curve" smooth="yes"/>
      <point x="295" y="-170"/>
      <point x="325" y="-140"/>
    </contour>
  </outline>
</glyph>
<glyph name="Eth" format="1">
  <advance width="470"/>
  <unicode hex="00D0"/>
  <outline>
    <contour>
      <point x="70" y="700" type="line" name="hr00"/>
      <point x="70" y="360" type="line"/>
      <point x="20" y="360" type="line"/>
      <point x="20" y="340" type="line"/>
      <point x="70" y="340" type="line"/>
      <point x="70" y="0" type="line"/>
      <point x="180" y="0" type="line" smooth="yes"/>
      <point x="310" y="0"/>
      <point x="430" y="120"/>
      <point x="430" y="350" type="curve" smooth="yes"/>
      <point x="430" y="580"/>
      <point x="310" y="700"/>
      <point x="180" y="700" type="curve" smooth="yes"/>
    </contour>
    <contour>
      <point x="250" y="340" type="line"/>
      <point x="250" y="360" type="line"/>
      <point x="150" y="360" type="line"/>
      <point x="150" y="680" type="line"/>
      <point x="180" y="680" type="line" smooth="yes"/>
      <point x="270" y="680"/>
      <point x="340" y="610"/>
      <point x="340" y="350" type="curve" smooth="yes"/>
      <point x="340" y="90"/>
      <point x="270" y="20"/>
      <point x="180" y="20" type="curve" smooth="yes"/>
      <point x="150" y="20" type="line"/>
      <point x="150" y="340" type="line"/>
    </contour>
  </outline>
</glyph>
<glyph name="multiply" format="1">
  <advance width="300"/>
  <unicode hex="00D7"/>
  <outline>
    <contour>
      <point x="170" y="305" type="line" name="hr00"/>
      <point x="260" y="395" type="line"/>
      <point x="240" y="415" type="line"/>
      <point x="150" y="325" type="line"/>
      <point x="60" y="415" type="line"/>
      <point x="40" y="395" type="line"/>
      <point x="130" y="305" type="line"/>
      <point x="40" y="215" type="line"/>
      <point x="60" y="195" type="line"/>
      <point x="150" y="285" type="line"/>
      <point x="240" y="195" type="line"/>
      <point x="260" y="215" type="line"/>
    </contour>
  </outline>
</glyph>
<glyph name="Oslash" format="1">
  <advance width="500"/>
  <unicode hex="00D8"/>
  <outline>
    <contour>
      <point x="100" y="0" type="line" name="hr00"/>
      <point x="127" y="59" type="line"/>
      <point x="165" y="13"/>
      <point x="210" y="-10"/>
      <point x="250" y="-10" type="curve" smooth="yes"/>
      <point x="340" y="-10"/>
      <point x="460" y="110"/>
      <point x="460" y="350" type="curve" smooth="yes"/>
      <point x="460" y="473"/>
      <point x="428" y="564"/>
      <point x="385" y="624" type="curve"/>
      <point x="420" y="700" type="line"/>
      <point x="400" y="700" type="line"/>
      <point x="373" y="641" type="line"/>
      <point x="334" y="687"/>
      <point x="289" y="710"/>
      <point x="250" y="710" type="curve" smooth="yes"/>
      <point x="160" y="710"/>
      <point x="40" y="590"/>
      <point x="40" y="350" type="curve" smooth="yes"/>
      <point x="40" y="227"/>
      <point x="71" y="135"/>
      <point x="114" y="75" type="curve"/>
      <point x="80" y="0" type="line"/>
    </contour>
    <contour>
      <point x="370" y="350" type="curve" smooth="yes"/>
      <point x="370" y="80"/>
      <point x="300" y="10"/>
      <point x="250" y="10" type="curve" smooth="yes"/>
      <point x="219" y="10"/>
      <point x="180" y="37"/>
      <point x="155" y="121" type="curve"/>
      <point x="352" y="551" type="line"/>
      <point x="363" y="501"/>
      <point x="370" y="436"/>
    </contour>
    <contour>
      <point x="130" y="350" type="curve" smooth="yes"/>
      <point x="130" y="620"/>
      <point x="200" y="690"/>
      <point x="250" y="690" type="curve" smooth="yes"/>
      <point x="281" y="690"/>
      <point x="319" y="663"/>
      <point x="344" y="578" type="curve"/>
      <point x="148" y="149" type="line"/>
      <point x="137" y="199"/>
      <point x="130" y="264"/>
    </contour>
  </outline>
</glyph>
<glyph name="Thorn" format="1">
  <advance width="470"/>
  <unicode hex="00DE"/>
  <outline>
    <contour>
      <point x="150" y="70" type="line" name="hr00"/>
      <point x="290" y="80"/>
      <point x="430" y="180"/>
      <point x="430" y="350" type="curve" smooth="yes"/>
      <point x="430" y="520"/>
      <point x="290" y="620"/>
      <point x="150" y="630" type="curve"/>
      <point x="150" y="700" type="line"/>
      <point x="70" y="700" type="line"/>
      <point x="70" y="0" type="line"/>
      <point x="150" y="0" type="line"/>
    </contour>
    <contour>
      <point x="340" y="350" type="curve" smooth="yes"/>
      <point x="340" y="170"/>
      <point x="230" y="100"/>
      <point x="150" y="90" type="curve"/>
      <point x="150" y="610" type="line"/>
      <point x="230" y="600"/>
      <point x="340" y="530"/>
    </contour>
  </outline>
</glyph>
<glyph name="germandbls" format="1">
  <advance width="450"/>
  <unicode hex="00DF"/>
  <outline>
    <contour>
      <point x="285" y="610" type="curve" smooth="yes" name="hr00"/>
      <point x="285" y="540"/>
      <point x="215" y="470"/>
      <point x="215" y="400" type="curve" smooth="yes"/>
      <point x="215" y="260"/>
      <point x="350" y="230"/>
      <point x="350" y="110" type="curve" smooth="yes"/>
      <point x="350" y="50"/>
      <point x="310" y="10"/>
      <point x="265" y="10" type="curve"/>
      <point x="265" y="-10" type="line"/>
      <point x="360" y="-10"/>
      <point x="420" y="50"/>
      <point x="420" y="130" type="curve" smooth="yes"/>
      <point x="420" y="290"/>
      <point x="245" y="290"/>
      <point x="245" y="400" type="curve" smooth="yes"/>
      <point x="245" y="470"/>
      <point x="350" y="510"/>
      <point x="350" y="610" type="curve"/>
      <point x="350" y="670"/>
      <point x="300" y="720"/>
      <point x="225" y="720" type="curve" smooth="yes"/>
      <point x="135" y="720"/>
      <point x="75" y="660"/>
      <point x="75" y="570" type="curve" smooth="yes"/>
      <point x="75" y="480" type="line"/>
      <point x="10" y="480" type="line"/>
      <point x="10" y="460" type="line"/>
      <point x="75" y="460" type="line"/>
      <point x="75" y="0" type="line"/>
      <point x="155" y="0" type="line"/>
      <point x="155" y="570" type="line" smooth="yes"/>
      <point x="155" y="660"/>
      <point x="195" y="700"/>
      <point x="225" y="700" type="curve" smooth="yes"/>
      <point x="255" y="700"/>
      <point x="285" y="670"/>
    </contour>
  </outline>
</glyph>
<glyph name="ae" format="1">
  <advance width="630"/>
  <unicode hex="00E6"/>
  <outline>
    <contour>
      <point x="420" y="490" type="curve" smooth="yes" name="hr00"/>
      <point x="449" y="490"/>
      <point x="496" y="444"/>
      <point x="499" y="280" type="curve"/>
      <point x="340" y="280" type="line"/>
      <point x="345" y="445"/>
      <point x="391" y="490"/>
    </contour>
    <contour>
      <point x="175" y="-10" type="curve" smooth="yes"/>
      <point x="260" y="-10"/>
      <point x="300" y="80"/>
      <point x="300" y="80" type="curve"/>
      <point x="300" y="80"/>
      <point x="340" y="-10"/>
      <point x="425" y="-10" type="curve" smooth="yes"/>
      <point x="500" y="-10"/>
      <point x="560" y="50"/>
      <point x="570" y="120" type="curve"/>
      <point x="505" y="180" type="line"/>
      <point x="505" y="60"/>
      <point x="455" y="10"/>
      <point x="425" y="10" type="curve" smooth="yes"/>
      <point x="390" y="10"/>
      <point x="340" y="65"/>
      <point x="340" y="250" type="curve" smooth="yes"/>
      <point x="340" y="260" type="line"/>
      <point x="590" y="260" type="line"/>
      <point x="590" y="420"/>
      <point x="500" y="510"/>
      <point x="420" y="510" type="curve" smooth="yes"/>
      <point x="350" y="510"/>
      <point x="310" y="450"/>
      <point x="310" y="450" type="curve"/>
      <point x="310" y="450"/>
      <point x="270" y="510"/>
      <point x="201" y="510" type="curve" smooth="yes"/>
      <point x="140" y="510"/>
      <point x="90" y="480"/>
      <point x="90" y="480" type="curve"/>
      <point x="90" y="380" type="line"/>
      <point x="90" y="380"/>
      <point x="140" y="490"/>
      <point x="200" y="490" type="curve" smooth="yes"/>
      <point x="230" y="490"/>
      <point x="260" y="460"/>
      <point x="260" y="390" type="curve" smooth="yes"/>
      <point x="260" y="290" type="line"/>
      <point x="260" y="290"/>
      <point x="230" y="300"/>
      <point x="210" y="300" type="curve" smooth="yes"/>
      <point x="90" y="300"/>
      <point x="30" y="240"/>
      <point x="30" y="140" type="curve" smooth="yes"/>
      <point x="30" y="50"/>
      <point x="90" y="-10"/>
    </contour>
    <contour>
      <point x="260" y="250" type="line" smooth="yes"/>
      <point x="260" y="65"/>
      <point x="210" y="10"/>
      <point x="175" y="10" type="curve" smooth="yes"/>
      <point x="145" y="10"/>
      <point x="110" y="45"/>
      <point x="110" y="140" type="curve" smooth="yes"/>
      <point x="110" y="230"/>
      <point x="160" y="280"/>
      <point x="210" y="280" type="curve" smooth="yes"/>
      <point x="230" y="280"/>
      <point x="260" y="270"/>
      <point x="260" y="270" type="curve"/>
    </contour>
  </outline>
</glyph>
<glyph name="ccedilla" format="1">
  <advance width="390"/>
  <unicode hex="00E7"/>
  <outline>
    <contour>
      <point x="285" y="-105" type="curve" smooth="yes" name="hr00"/>
      <point x="285" y="-70"/>
      <point x="255" y="-40"/>
      <point x="215" y="-40" type="curve"/>
      <point x="226" y="-9" type="line"/>
      <point x="296" y="-3"/>
      <point x="350" y="53"/>
      <point x="360" y="120" type="curve"/>
      <point x="295" y="180" type="line"/>
      <point x="295" y="60"/>
      <point x="245" y="10"/>
      <point x="215" y="10" type="curve" smooth="yes"/>
      <point x="180" y="10"/>
      <point x="130" y="65"/>
      <point x="130" y="250" type="curve" smooth="yes"/>
      <point x="130" y="435"/>
      <point x="180" y="490"/>
      <point x="215" y="490" type="curve" smooth="yes"/>
      <point x="245" y="490"/>
      <point x="295" y="440"/>
      <point x="295" y="350" type="curve"/>
      <point x="360" y="410" type="line"/>
      <point x="350" y="450"/>
      <point x="290" y="510"/>
      <point x="215" y="510" type="curve" smooth="yes"/>
      <point x="130" y="510"/>
      <point x="40" y="420"/>
      <point x="40" y="250" type="curve" smooth="yes"/>
      <point x="40" y="89"/>
      <point x="120" y="0"/>
      <point x="200" y="-9" type="curve"/>
      <point x="175" y="-65" type="line"/>
      <point x="190" y="-65" type="line" smooth="yes"/>
      <point x="210" y="-65"/>
      <point x="225" y="-80"/>
      <point x="225" y="-100" type="curve" smooth="yes"/>
      <point x="225" y="-120"/>
      <point x="210" y="-135"/>
      <point x="190" y="-135" type="curve" smooth="yes"/>
      <point x="175" y="-135"/>
      <point x="155" y="-125"/>
      <point x="155" y="-125" type="curve"/>
      <point x="155" y="-150" type="line"/>
      <point x="155" y="-150"/>
      <point x="175" y="-170"/>
      <point x="210" y="-170" type="curve" smooth="yes"/>
      <point x="255" y="-170"/>
      <point x="285" y="-140"/>
    </contour>
  </outline>
</glyph>
<glyph name="eth" format="1">
  <advance width="410"/>
  <unicode hex="00F0"/>
  <outline>
    <contour>
      <point x="275" y="670" type="line" name="hr00"/>
      <point x="260" y="680" type="line"/>
      <point x="221" y="618" type="line"/>
      <point x="163" y="653"/>
      <point x="110" y="660"/>
      <point x="110" y="660" type="curve"/>
      <point x="100" y="650" type="line"/>
      <point x="100" y="650"/>
      <point x="153" y="637"/>
      <point x="206" y="595" type="curve"/>
      <point x="165" y="530" type="line"/>
      <point x="180" y="520" type="line"/>
      <point x="220" y="583" type="line"/>
      <point x="267" y="541"/>
      <point x="310" y="474"/>
      <point x="310" y="370" type="curve"/>
      <point x="307" y="377"/>
      <point x="276" y="450"/>
      <point x="200" y="450" type="curve" smooth="yes"/>
      <point x="115" y="450"/>
      <point x="30" y="365"/>
      <point x="30" y="220" type="curve" smooth="yes"/>
      <point x="30" y="75"/>
      <point x="115" y="-10"/>
      <point x="200" y="-10" type="curve" smooth="yes"/>
      <point x="285" y="-10"/>
      <point x="370" y="75"/>
      <point x="370" y="220" type="curve" smooth="yes"/>
      <point x="370" y="320" type="line" smooth="yes"/>
      <point x="370" y="478"/>
      <point x="302" y="563"/>
      <point x="236" y="609" type="curve"/>
    </contour>
    <contour>
      <point x="200" y="430" type="curve" smooth="yes"/>
      <point x="235" y="430"/>
      <point x="280" y="385"/>
      <point x="280" y="220" type="curve" smooth="yes"/>
      <point x="280" y="55"/>
      <point x="235" y="10"/>
      <point x="200" y="10" type="curve" smooth="yes"/>
      <point x="165" y="10"/>
      <point x="120" y="55"/>
      <point x="120" y="220" type="curve" smooth="yes"/>
      <point x="120" y="385"/>
      <point x="165" y="430"/>
    </contour>
  </outline>
</glyph>
<glyph name="divide" format="1">
  <advance width="350"/>
  <unicode hex="00F7"/>
  <outline>
    <contour>
      <point x="30" y="320" type="line" name="hr00"/>
      <point x="30" y="290" type="line"/>
      <point x="320" y="290" type="line"/>
      <point x="320" y="320" type="line"/>
    </contour>
    <contour>
      <point x="215" y="100" type="line"/>
      <point x="215" y="180" type="line"/>
      <point x="135" y="180" type="line"/>
      <point x="135" y="100" type="line"/>
    </contour>
    <contour>
      <point x="215" y="430" type="line"/>
      <point x="215" y="510" type="line"/>
      <point x="135" y="510" type="line"/>
      <point x="135" y="430" type="line"/>
    </contour>
  </outline>
</glyph>
<glyph name="oslash" format="1">
  <advance width="430"/>
  <unicode hex="00F8"/>
  <outline>
    <contour>
      <point x="80" y="0" type="line" name="hr00"/>
      <point x="105" y="44" type="line"/>
      <point x="137" y="8"/>
      <point x="176" y="-10"/>
      <point x="215" y="-10" type="curve" smooth="yes"/>
      <point x="300" y="-10"/>
      <point x="390" y="80"/>
      <point x="390" y="250" type="curve" smooth="yes"/>
      <point x="390" y="333"/>
      <point x="368" y="398"/>
      <point x="336" y="441" type="curve"/>
      <point x="370" y="500" type="line"/>
      <point x="350" y="500" type="line"/>
      <point x="324" y="456" type="line"/>
      <point x="293" y="491"/>
      <point x="253" y="510"/>
      <point x="215" y="510" type="curve" smooth="yes"/>
      <point x="130" y="510"/>
      <point x="40" y="420"/>
      <point x="40" y="250" type="curve" smooth="yes"/>
      <point x="40" y="166"/>
      <point x="61" y="102"/>
      <point x="94" y="58" type="curve"/>
      <point x="60" y="0" type="line"/>
    </contour>
    <contour>
      <point x="215" y="490" type="curve" smooth="yes"/>
      <point x="239" y="490"/>
      <point x="270" y="466"/>
      <point x="287" y="391" type="curve"/>
      <point x="138" y="134" type="line"/>
      <point x="133" y="165"/>
      <point x="130" y="203"/>
      <point x="130" y="250" type="curve" smooth="yes"/>
      <point x="130" y="440"/>
      <point x="180" y="490"/>
    </contour>
    <contour>
      <point x="300" y="250" type="curve" smooth="yes"/>
      <point x="300" y="60"/>
      <point x="250" y="10"/>
      <point x="215" y="10" type="curve" smooth="yes"/>
      <point x="191" y="10"/>
      <point x="160" y="33"/>
      <point x="143" y="108" type="curve"/>
      <point x="292" y="365" type="line"/>
      <point x="297" y="334"/>
      <point x="300" y="296"/>
    </contour>
  </outline>
</glyph>
<glyph name="Aogonek" format="1">
  <advance width="470"/>
  <unicode hex="0104"/>
  <outline>
    <contour>
      <point x="340" y="-90" type="curve" smooth="yes" name="hr00"/>
      <point x="340" y="-40"/>
      <point x="400" y="0"/>
      <point x="400" y="0" type="curve"/>
      <point x="400" y="700" type="line"/>
      <point x="310" y="700" type="line" smooth="yes"/>
      <point x="190" y="700"/>
      <point x="90" y="600"/>
      <point x="90" y="400" type="curve" smooth="yes"/>
      <point x="90" y="300" type="line" smooth="yes"/>
      <point x="90" y="70"/>
      <point x="30" y="10"/>
      <point x="0" y="10" type="curve"/>
      <point x="0" y="-10" type="line"/>
      <point x="90" y="-10"/>
      <point x="170" y="70"/>
      <point x="170" y="300" type="curve" smooth="yes"/>
      <point x="170" y="420" type="line"/>
      <point x="370" y="420" type="line"/>
      <point x="370" y="0" type="line"/>
      <point x="380" y="0" type="line"/>
      <point x="380" y="0"/>
      <point x="285" y="-40"/>
      <point x="285" y="-100" type="curve" smooth="yes"/>
      <point x="285" y="-135"/>
      <point x="310" y="-160"/>
      <point x="355" y="-160" type="curve" smooth="yes"/>
      <point x="390" y="-160"/>
      <point x="410" y="-140"/>
      <point x="410" y="-140" type="curve"/>
      <point x="410" y="-115" type="line"/>
      <point x="410" y="-115"/>
      <point x="390" y="-125"/>
      <point x="375" y="-125" type="curve" smooth="yes"/>
      <point x="355" y="-125"/>
      <point x="340" y="-110"/>
    </contour>
    <contour>
      <point x="310" y="680" type="curve"/>
      <point x="370" y="680" type="line"/>
      <point x="370" y="440" type="line"/>
      <point x="170" y="440" type="line"/>
      <point x="180" y="610"/>
      <point x="250" y="680"/>
    </contour>
  </outline>
</glyph>
<glyph name="dcaron" format="1">
  <advance width="490"/>
  <unicode hex="010F"/>
  <outline>
    <contour>
      <point x="510" y="700" type="line" name="hr00"/>
      <point x="440" y="700" type="line"/>
      <point x="440" y="630" type="line"/>
      <point x="460" y="630" type="line"/>
      <point x="460" y="630"/>
      <point x="470" y="620"/>
      <point x="470" y="610" type="curve" smooth="yes"/>
      <point x="470" y="580"/>
      <point x="445" y="550"/>
      <point x="445" y="550" type="curve"/>
      <point x="455" y="540" type="line"/>
      <point x="455" y="540"/>
      <point x="510" y="580"/>
      <point x="510" y="660" type="curve" smooth="yes"/>
    </contour>
    <component base="d"/>
  </outline>
</glyph>
<glyph name="dcroat" format="1">
  <advance width="435"/>
  <unicode hex="0111"/>
  <outline>
    <contour>
      <point x="435" y="560" type="line" name="hr00"/>
      <point x="435" y="580" type="line"/>
      <point x="370" y="580" type="line"/>
      <point x="370" y="700" type="line"/>
      <point x="290" y="700" type="line"/>
      <point x="290" y="580" type="line"/>
      <point x="205" y="580" type="line"/>
      <point x="205" y="560" type="line"/>
      <point x="290" y="560" type="line"/>
      <point x="290" y="380" type="line"/>
      <point x="290" y="380"/>
      <point x="260" y="450"/>
      <point x="195" y="450" type="curve" smooth="yes"/>
      <point x="110" y="450"/>
      <point x="30" y="370"/>
      <point x="30" y="220" type="curve" smooth="yes"/>
      <point x="30" y="70"/>
      <point x="110" y="-10"/>
      <point x="195" y="-10" type="curve" smooth="yes"/>
      <point x="258" y="-10"/>
      <point x="288" y="56"/>
      <point x="290" y="59" type="curve"/>
      <point x="290" y="0" type="line"/>
      <point x="370" y="0" type="line"/>
      <point x="370" y="560" type="line"/>
    </contour>
    <contour>
      <point x="290" y="90" type="line"/>
      <point x="290" y="90"/>
      <point x="260" y="20"/>
      <point x="210" y="20" type="curve" smooth="yes"/>
      <point x="170" y="20"/>
      <point x="120" y="70"/>
      <point x="120" y="220" type="curve" smooth="yes"/>
      <point x="120" y="370"/>
      <point x="170" y="420"/>
      <point x="210" y="420" type="curve" smooth="yes"/>
      <point x="260" y="420"/>
      <point x="290" y="350"/>
      <point x="290" y="350" type="curve"/>
    </contour>
  </outline>
</glyph>
<glyph name="Eogonek" format="1">
  <advance width="360"/>
  <unicode hex="0118"/>
  <outline>
    <contour>
      <point x="200" y="-90" type="curve" smooth="yes" name="hr00"/>
      <point x="200" y="-40"/>
      <point x="260" y="0"/>
      <point x="260" y="0" type="curve"/>
      <point x="350" y="0" type="line"/>
      <point x="350" y="20" type="line"/>
      <point x="150" y="20" type="line"/>
      <point x="150" y="480" type="line"/>
      <point x="330" y="480" type="line"/>
      <point x="330" y="500" type="line"/>
      <point x="150" y="500" type="line"/>
      <point x="150" y="680" type="line"/>
      <point x="350" y="680" type="line"/>
      <point x="350" y="700" type="line"/>
      <point x="70" y="700" type="line"/>
      <point x="70" y="0" type="line"/>
      <point x="240" y="0" type="line"/>
      <point x="240" y="0"/>
      <point x="145" y="-40"/>
      <point x="145" y="-100" type="curve" smooth="yes"/>
      <point x="145" y="-135"/>
      <point x="170" y="-160"/>
      <point x="215" y="-160" type="curve" smooth="yes"/>
      <point x="250" y="-160"/>
      <point x="270" y="-140"/>
      <point x="270" y="-140" type="curve"/>
      <point x="270" y="-115" type="line"/>
      <point x="270" y="-115"/>
      <point x="250" y="-125"/>
      <point x="235" y="-125" type="curve" smooth="yes"/>
      <point x="215" y="-125"/>
      <point x="200" y="-110"/>
    </contour>
  </outline>
</glyph>
<glyph name="eogonek" format="1">
  <advance width="420"/>
  <unicode hex="0119"/>
  <outline>
    <contour>
      <point x="205" y="-90" type="curve" smooth="yes" name="hr00"/>
      <point x="205" y="-44"/>
      <point x="253" y="-8"/>
      <point x="262" y="-1" type="curve"/>
      <point x="314" y="17"/>
      <point x="352" y="65"/>
      <point x="360" y="120" type="curve"/>
      <point x="295" y="180" type="line"/>
      <point x="295" y="60"/>
      <point x="245" y="10"/>
      <point x="215" y="10" type="curve" smooth="yes"/>
      <point x="180" y="10"/>
      <point x="130" y="65"/>
      <point x="130" y="250" type="curve" smooth="yes"/>
      <point x="130" y="260" type="line"/>
      <point x="380" y="260" type="line"/>
      <point x="380" y="420"/>
      <point x="290" y="510"/>
      <point x="210" y="510" type="curve" smooth="yes"/>
      <point x="130" y="510"/>
      <point x="40" y="420"/>
      <point x="40" y="250" type="curve" smooth="yes"/>
      <point x="40" y="80"/>
      <point x="130" y="-10"/>
      <point x="215" y="-10" type="curve" smooth="yes"/>
      <point x="218" y="-10"/>
      <point x="222" y="-10"/>
      <point x="225" y="-9" type="curve" smooth="yes"/>
      <point x="197" y="-25"/>
      <point x="150" y="-57"/>
      <point x="150" y="-100" type="curve" smooth="yes"/>
      <point x="150" y="-135"/>
      <point x="175" y="-160"/>
      <point x="220" y="-160" type="curve" smooth="yes"/>
      <point x="255" y="-160"/>
      <point x="275" y="-140"/>
      <point x="275" y="-140" type="curve"/>
      <point x="275" y="-115" type="line"/>
      <point x="275" y="-115"/>
      <point x="255" y="-125"/>
      <point x="240" y="-125" type="curve" smooth="yes"/>
      <point x="220" y="-125"/>
      <point x="205" y="-110"/>
    </contour>
    <contour>
      <point x="210" y="490" type="curve" smooth="yes"/>
      <point x="239" y="490"/>
      <point x="286" y="444"/>
      <point x="289" y="280" type="curve"/>
      <point x="130" y="280" type="line"/>
      <point x="135" y="445"/>
      <point x="181" y="490"/>
    </contour>
  </outline>
</glyph>
<glyph name="gcommaaccent" format="1">
  <advance width="440"/>
  <unicode hex="0123"/>
  <outline>
    <contour>
      <point x="190" y="600" type="line" name="hr00"/>
      <point x="260" y="600" type="line"/>
      <point x="260" y="670" type="line"/>
      <point x="240" y="670" type="line"/>
      <point x="240" y="670"/>
      <point x="230" y="680"/>
      <point x="230" y="690" type="curve" smooth="yes"/>
      <point x="230" y="720"/>
      <point x="255" y="750"/>
      <point x="255" y="750" type="curve"/>
      <point x="245" y="760" type="line"/>
      <point x="245" y="760"/>
      <point x="190" y="720"/>
      <point x="190" y="640" type="curve"/>
    </contour>
    <component base="g"/>
  </outline>
</glyph>
<glyph name="Iogonek" format="1">
  <advance width="245"/>
  <unicode hex="012E"/>
  <outline>
    <contour>
      <point x="105" y="-90" type="curve" smooth="yes" name="hr00"/>
      <point x="105" y="-40"/>
      <point x="165" y="0"/>
      <point x="165" y="0" type="curve"/>
      <point x="165" y="700" type="line"/>
      <point x="85" y="700" type="line"/>
      <point x="85" y="0" type="line"/>
      <point x="145" y="0" type="line"/>
      <point x="145" y="0"/>
      <point x="50" y="-40"/>
      <point x="50" y="-100" type="curve" smooth="yes"/>
      <point x="50" y="-135"/>
      <point x="75" y="-160"/>
      <point x="120" y="-160" type="curve" smooth="yes"/>
      <point x="155" y="-160"/>
      <point x="175" y="-140"/>
      <point x="175" y="-140" type="curve"/>
      <point x="175" y="-115" type="line"/>
      <point x="175" y="-115"/>
      <point x="155" y="-125"/>
      <point x="140" y="-125" type="curve" smooth="yes"/>
      <point x="120" y="-125"/>
      <point x="105" y="-110"/>
    </contour>
  </outline>
</glyph>
<glyph name="iogonek" format="1">
  <advance width="190"/>
  <unicode hex="012F"/>
  <outline>
    <contour>
      <point x="75" y="-90" type="curve" smooth="yes" name="hr00"/>
      <point x="75" y="-40"/>
      <point x="135" y="0"/>
      <point x="135" y="0" type="curve"/>
      <point x="135" y="500" type="line"/>
      <point x="55" y="500" type="line"/>
      <point x="55" y="0" type="line"/>
      <point x="115" y="0" type="line"/>
      <point x="115" y="0"/>
      <point x="20" y="-40"/>
      <point x="20" y="-100" type="curve" smooth="yes"/>
      <point x="20" y="-135"/>
      <point x="45" y="-160"/>
      <point x="90" y="-160" type="curve" smooth="yes"/>
      <point x="125" y="-160"/>
      <point x="145" y="-140"/>
      <point x="145" y="-140" type="curve"/>
      <point x="145" y="-115" type="line"/>
      <point x="145" y="-115"/>
      <point x="125" y="-125"/>
      <point x="110" y="-125" type="curve" smooth="yes"/>
      <point x="90" y="-125"/>
      <point x="75" y="-110"/>
    </contour>
    <contour>
      <point x="95" y="700" type="curve" smooth="yes"/>
      <point x="65" y="700"/>
      <point x="45" y="680"/>
      <point x="45" y="650" type="curve" smooth="yes"/>
      <point x="45" y="620"/>
      <point x="65" y="600"/>
      <point x="95" y="600" type="curve" smooth="yes"/>
      <point x="125" y="600"/>
      <point x="145" y="620"/>
      <point x="145" y="650" type="curve" smooth="yes"/>
      <point x="145" y="680"/>
      <point x="125" y="700"/>
    </contour>
  </outline>
</glyph>
<glyph name="dotlessi" format="1">
  <advance width="200"/>
  <unicode hex="0131"/>
  <outline>
    <contour>
      <point x="140" y="500" type="line" name="hr00"/>
      <point x="60" y="500" type="line"/>
      <point x="60" y="0" type="line"/>
      <point x="140" y="0" type="line"/>
    </contour>
  </outline>
</glyph>
<glyph name="Lcaron" format="1">
  <advance width="360"/>
  <unicode hex="013D"/>
  <outline>
    <contour>
      <point x="290" y="700" type="line" name="hr00"/>
      <point x="220" y="700" type="line"/>
      <point x="220" y="630" type="line"/>
      <point x="240" y="630" type="line"/>
      <point x="240" y="630"/>
      <point x="250" y="620"/>
      <point x="250" y="610" type="curve" smooth="yes"/>
      <point x="250" y="580"/>
      <point x="225" y="550"/>
      <point x="225" y="550" type="curve"/>
      <point x="235" y="540" type="line"/>
      <point x="235" y="540"/>
      <point x="290" y="580"/>
      <point x="290" y="660" type="curve" smooth="yes"/>
    </contour>
    <component base="L"/>
  </outline>
</glyph>
<glyph name="lcaron" format="1">
  <advance width="260"/>
  <unicode hex="013E"/>
  <outline>
    <contour>
      <point x="280" y="700" type="line" name="hr00"/>
      <point x="210" y="700" type="line"/>
      <point x="210" y="630" type="line"/>
      <point x="230" y="630" type="line"/>
      <point x="230" y="630"/>
      <point x="240" y="620"/>
      <point x="240" y="610" type="curve" smooth="yes"/>
      <point x="240" y="580"/>
      <point x="215" y="550"/>
      <point x="215" y="550" type="curve"/>
      <point x="225" y="540" type="line"/>
      <point x="225" y="540"/>
      <point x="280" y="580"/>
      <point x="280" y="660" type="curve" smooth="yes"/>
    </contour>
    <component base="l"/>
  </outline>
</glyph>
<glyph name="Lslash" format="1">
  <advance width="370"/>
  <unicode hex="0141"/>
  <outline>
    <contour>
      <point x="240" y="435" type="line" name="hr00"/>
      <point x="240" y="455" type="line"/>
      <point x="160" y="390" type="line"/>
      <point x="160" y="700" type="line"/>
      <point x="80" y="700" type="line"/>
      <point x="80" y="320" type="line"/>
      <point x="20" y="270" type="line"/>
      <point x="20" y="250" type="line"/>
      <point x="80" y="300" type="line"/>
      <point x="80" y="0" type="line"/>
      <point x="370" y="0" type="line"/>
      <point x="370" y="20" type="line"/>
      <point x="160" y="20" type="line"/>
      <point x="160" y="370" type="line"/>
    </contour>
  </outline>
</glyph>
<glyph name="lslash" format="1">
  <advance width="240"/>
  <unicode hex="0142"/>
  <outline>
    <contour>
      <point x="220" y="420" type="line" name="hr00"/>
      <point x="220" y="440" type="line"/>
      <point x="160" y="390" type="line"/>
      <point x="160" y="700" type="line"/>
      <point x="80" y="700" type="line"/>
      <point x="80" y="320" type="line"/>
      <point x="20" y="270" type="line"/>
      <point x="20" y="250" type="line"/>
      <point x="80" y="300" type="line"/>
      <point x="80" y="0" type="line"/>
      <point x="160" y="0" type="line"/>
      <point x="160" y="370" type="line"/>
    </contour>
  </outline>
</glyph>
<glyph name="OE" format="1">
  <advance width="620"/>
  <unicode hex="0152"/>
  <outline>
    <contour>
      <point x="610" y="0" type="line" name="hr00"/>
      <point x="610" y="20" type="line"/>
      <point x="410" y="20" type="line"/>
      <point x="410" y="480" type="line"/>
      <point x="590" y="480" type="line"/>
      <point x="590" y="500" type="line"/>
      <point x="410" y="500" type="line"/>
      <point x="410" y="680" type="line"/>
      <point x="610" y="680" type="line"/>
      <point x="610" y="700" type="line"/>
      <point x="330" y="700" type="line"/>
      <point x="330" y="680" type="line"/>
      <point x="330" y="680"/>
      <point x="300" y="710"/>
      <point x="250" y="710" type="curve" smooth="yes"/>
      <point x="160" y="710"/>
      <point x="40" y="590"/>
      <point x="40" y="350" type="curve" smooth="yes"/>
      <point x="40" y="110"/>
      <point x="160" y="-10"/>
      <point x="250" y="-10" type="curve" smooth="yes"/>
      <point x="300" y="-10"/>
      <point x="330" y="20"/>
      <point x="330" y="20" type="curve"/>
      <point x="330" y="0" type="line"/>
    </contour>
    <contour>
      <point x="130" y="350" type="curve" smooth="yes"/>
      <point x="130" y="620"/>
      <point x="200" y="690"/>
      <point x="250" y="690" type="curve" smooth="yes"/>
      <point x="300" y="690"/>
      <point x="330" y="630"/>
      <point x="330" y="630" type="curve"/>
      <point x="330" y="71" type="line"/>
      <point x="330" y="70"/>
      <point x="300" y="10"/>
      <point x="250" y="10" type="curve" smooth="yes"/>
      <point x="200" y="10"/>
      <point x="130" y="80"/>
    </contour>
  </outline>
</glyph>
<glyph name="oe" format="1">
  <advance width="670"/>
  <unicode hex="0153"/>
  <outline>
    <contour>
      <point x="215" y="-10" type="curve" smooth="yes" name="hr00"/>
      <point x="300" y="-10"/>
      <point x="340" y="80"/>
      <point x="340" y="80" type="curve"/>
      <point x="340" y="80"/>
      <point x="380" y="-10"/>
      <point x="465" y="-10" type="curve" smooth="yes"/>
      <point x="540" y="-10"/>
      <point x="590" y="50"/>
      <point x="600" y="120" type="curve"/>
      <point x="535" y="180" type="line"/>
      <point x="535" y="60"/>
      <point x="495" y="10"/>
      <point x="465" y="10" type="curve" smooth="yes"/>
      <point x="430" y="10"/>
      <point x="380" y="65"/>
      <point x="380" y="250" type="curve" smooth="yes"/>
      <point x="380" y="260" type="line"/>
      <point x="630" y="260" type="line"/>
      <point x="630" y="420"/>
      <point x="540" y="510"/>
      <point x="460" y="510" type="curve" smooth="yes"/>
      <point x="380" y="510"/>
      <point x="340" y="420"/>
      <point x="340" y="420" type="curve"/>
      <point x="340" y="420"/>
      <point x="300" y="510"/>
      <point x="215" y="510" type="curve" smooth="yes"/>
      <point x="130" y="510"/>
      <point x="40" y="420"/>
      <point x="40" y="250" type="curve" smooth="yes"/>
      <point x="40" y="80"/>
      <point x="130" y="-10"/>
    </contour>
    <contour>
      <point x="215" y="490" type="curve" smooth="yes"/>
      <point x="250" y="490"/>
      <point x="300" y="435"/>
      <point x="300" y="250" type="curve" smooth="yes"/>
      <point x="300" y="65"/>
      <point x="250" y="10"/>
      <point x="215" y="10" type="curve" smooth="yes"/>
      <point x="180" y="10"/>
      <point x="130" y="60"/>
      <point x="130" y="250" type="curve" smooth="yes"/>
      <point x="130" y="440"/>
      <point x="180" y="490"/>
    </contour>
    <contour>
      <point x="460" y="490" type="curve" smooth="yes"/>
      <point x="489" y="490"/>
      <point x="536" y="444"/>
      <point x="539" y="280" type="curve"/>
      <point x="380" y="280" type="line"/>
      <point x="380" y="440"/>
      <point x="430" y="490"/>
    </contour>
  </outline>
</glyph>
<glyph name="Scedilla" format="1">
  <advance width="400"/>
  <unicode hex="015E"/>
  <outline>
    <contour>
      <point x="265" y="-105" type="curve" smooth="yes" name="hr00"/>
      <point x="265" y="-70"/>
      <point x="235" y="-40"/>
      <point x="195" y="-40" type="curve"/>
      <point x="207" y="-8" type="line"/>
      <point x="296" y="2"/>
      <point x="365" y="79"/>
      <point x="365" y="200" type="curve" smooth="yes"/>
      <point x="365" y="400"/>
      <point x="125" y="470"/>
      <point x="125" y="590" type="curve" smooth="yes"/>
      <point x="125" y="650"/>
      <point x="165" y="690"/>
      <point x="215" y="690" type="curve" smooth="yes"/>
      <point x="255" y="690"/>
      <point x="295" y="650"/>
      <point x="295" y="540" type="curve"/>
      <point x="355" y="610" type="line"/>
      <point x="335" y="660"/>
      <point x="285" y="710"/>
      <point x="215" y="710" type="curve" smooth="yes"/>
      <point x="125" y="710"/>
      <point x="55" y="640"/>
      <point x="55" y="570" type="curve" smooth="yes"/>
      <point x="55" y="400"/>
      <point x="295" y="330"/>
      <point x="295" y="180" type="curve" smooth="yes"/>
      <point x="295" y="60"/>
      <point x="245" y="10"/>
      <point x="185" y="10" type="curve" smooth="yes"/>
      <point x="145" y="10"/>
      <point x="85" y="70"/>
      <point x="85" y="230" type="curve"/>
      <point x="15" y="160" type="line"/>
      <point x="34" y="62"/>
      <point x="102" y="-7"/>
      <point x="180" y="-10" type="curve"/>
      <point x="155" y="-65" type="line"/>
      <point x="170" y="-65" type="line" smooth="yes"/>
      <point x="190" y="-65"/>
      <point x="205" y="-80"/>
      <point x="205" y="-100" type="curve" smooth="yes"/>
      <point x="205" y="-120"/>
      <point x="190" y="-135"/>
      <point x="170" y="-135" type="curve" smooth="yes"/>
      <point x="155" y="-135"/>
      <point x="135" y="-125"/>
      <point x="135" y="-125" type="curve"/>
      <point x="135" y="-150" type="line"/>
      <point x="135" y="-150"/>
      <point x="155" y="-170"/>
      <point x="190" y="-170" type="curve" smooth="yes"/>
      <point x="235" y="-170"/>
      <point x="265" y="-140"/>
    </contour>
  </outline>
</glyph>
<glyph name="scedilla" format="1">
  <advance width="350"/>
  <unicode hex="015F"/>
  <outline>
    <contour>
      <point x="245" y="-105" type="curve" smooth="yes" name="hr00"/>
      <point x="245" y="-70"/>
      <point x="215" y="-40"/>
      <point x="175" y="-40" type="curve"/>
      <point x="186" y="-9" type="line"/>
      <point x="265" y="-4"/>
      <point x="320" y="53"/>
      <point x="320" y="130" type="curve" smooth="yes"/>
      <point x="320" y="290"/>
      <point x="105" y="310"/>
      <point x="105" y="410" type="curve" smooth="yes"/>
      <point x="105" y="460"/>
      <point x="135" y="490"/>
      <point x="180" y="490" type="curve" smooth="yes"/>
      <point x="220" y="490"/>
      <point x="260" y="450"/>
      <point x="260" y="370" type="curve"/>
      <point x="315" y="420" type="line"/>
      <point x="305" y="460"/>
      <point x="255" y="510"/>
      <point x="180" y="510" type="curve" smooth="yes"/>
      <point x="95" y="510"/>
      <point x="45" y="460"/>
      <point x="45" y="390" type="curve" smooth="yes"/>
      <point x="45" y="240"/>
      <point x="260" y="220"/>
      <point x="260" y="110" type="curve" smooth="yes"/>
      <point x="260" y="50"/>
      <point x="220" y="10"/>
      <point x="175" y="10" type="curve" smooth="yes"/>
      <point x="135" y="10"/>
      <point x="85" y="60"/>
      <point x="85" y="180" type="curve"/>
      <point x="20" y="120" type="line"/>
      <point x="29" y="54"/>
      <point x="83" y="-3"/>
      <point x="160" y="-9" type="curve"/>
      <point x="135" y="-65" type="line"/>
      <point x="150" y="-65" type="line" smooth="yes"/>
      <point x="170" y="-65"/>
      <point x="185" y="-80"/>
      <point x="185" y="-100" type="curve" smooth="yes"/>
      <point x="185" y="-120"/>
      <point x="170" y="-135"/>
      <point x="150" y="-135" type="curve" smooth="yes"/>
      <point x="135" y="-135"/>
      <point x="115" y="-125"/>
      <point x="115" y="-125" type="curve"/>
      <point x="115" y="-150" type="line"/>
      <point x="115" y="-150"/>
      <point x="135" y="-170"/>
      <point x="170" y="-170" type="curve" smooth="yes"/>
      <point x="215" y="-170"/>
      <point x="245" y="-140"/>
    </contour>
  </outline>
</glyph>
<glyph name="Uogonek" format="1">
  <advance width="500"/>
  <unicode hex="0172"/>
  <outline>
    <contour>
      <point x="240" y="-90" type="curve" smooth="yes" name="hr00"/>
      <point x="240" y="-48"/>
      <point x="280" y="-14"/>
      <point x="294" y="-4" type="curve"/>
      <point x="375" y="20"/>
      <point x="440" y="113"/>
      <point x="440" y="300" type="curve" smooth="yes"/>
      <point x="440" y="700" type="line"/>
      <point x="360" y="700" type="line"/>
      <point x="360" y="300" type="line" smooth="yes"/>
      <point x="360" y="70"/>
      <point x="300" y="10"/>
      <point x="250" y="10" type="curve" smooth="yes"/>
      <point x="200" y="10"/>
      <point x="140" y="70"/>
      <point x="140" y="300" type="curve" smooth="yes"/>
      <point x="140" y="700" type="line"/>
      <point x="60" y="700" type="line"/>
      <point x="60" y="300" type="line" smooth="yes"/>
      <point x="60" y="80"/>
      <point x="150" y="-10"/>
      <point x="250" y="-10" type="curve" smooth="yes"/>
      <point x="260" y="-10" type="line"/>
      <point x="232" y="-25"/>
      <point x="185" y="-57"/>
      <point x="185" y="-100" type="curve" smooth="yes"/>
      <point x="185" y="-135"/>
      <point x="210" y="-160"/>
      <point x="255" y="-160" type="curve" smooth="yes"/>
      <point x="290" y="-160"/>
      <point x="310" y="-140"/>
      <point x="310" y="-140" type="curve"/>
      <point x="310" y="-115" type="line"/>
      <point x="310" y="-115"/>
      <point x="290" y="-125"/>
      <point x="275" y="-125" type="curve" smooth="yes"/>
      <point x="255" y="-125"/>
      <point x="240" y="-110"/>
    </contour>
  </outline>
</glyph>
<glyph name="uogonek" format="1">
  <advance width="440"/>
  <unicode hex="0173"/>
  <outline>
    <contour>
      <point x="320" y="-90" type="curve" smooth="yes" name="hr00"/>
      <point x="320" y="-40"/>
      <point x="380" y="0"/>
      <point x="380" y="0" type="curve"/>
      <point x="380" y="500" type="line"/>
      <point x="300" y="500" type="line"/>
      <point x="300" y="90" type="line"/>
      <point x="300" y="90"/>
      <point x="260" y="20"/>
      <point x="210" y="20" type="curve" smooth="yes"/>
      <point x="170" y="20"/>
      <point x="140" y="50"/>
      <point x="140" y="110" type="curve" smooth="yes"/>
      <point x="140" y="500" type="line"/>
      <point x="60" y="500" type="line"/>
      <point x="60" y="110" type="line" smooth="yes"/>
      <point x="60" y="40"/>
      <point x="110" y="-10"/>
      <point x="190" y="-10" type="curve" smooth="yes"/>
      <point x="260" y="-10"/>
      <point x="300" y="60"/>
      <point x="300" y="60" type="curve"/>
      <point x="300" y="0" type="line"/>
      <point x="360" y="0" type="line"/>
      <point x="360" y="0"/>
      <point x="265" y="-40"/>
      <point x="265" y="-100" type="curve" smooth="yes"/>
      <point x="265" y="-135"/>
      <point x="290" y="-160"/>
      <point x="335" y="-160" type="curve" smooth="yes"/>
      <point x="370" y="-160"/>
      <point x="390" y="-140"/>
      <point x="390" y="-140" type="curve"/>
      <point x="390" y="-115" type="line"/>
      <point x="390" y="-115"/>
      <point x="370" y="-125"/>
      <point x="355" y="-125" type="curve" smooth="yes"/>
      <point x="335" y="-125"/>
      <point x="320" y="-110"/>
    </contour>
  </outline>
</glyph>
<glyph name="florin" format="1">
  <advance width="255"/>
  <unicode hex="0192"/>
  <outline>
    <contour>
      <point x="75" y="-140" type="line" smooth="yes" name="hr00"/>
      <point x="75" y="-230"/>
      <point x="35" y="-270"/>
      <point x="5" y="-270" type="curve" smooth="yes"/>
      <point x="-34" y="-270"/>
      <point x="-63" y="-185"/>
      <point x="-65" y="-180" type="curve"/>
      <point x="-65" y="-270" type="line"/>
      <point x="-65" y="-270"/>
      <point x="-35" y="-290"/>
      <point x="5" y="-290" type="curve" smooth="yes"/>
      <point x="95" y="-290"/>
      <point x="155" y="-230"/>
      <point x="155" y="-140" type="curve" smooth="yes"/>
      <point x="155" y="460" type="line"/>
      <point x="240" y="460" type="line"/>
      <point x="240" y="480" type="line"/>
      <point x="155" y="480" type="line"/>
      <point x="155" y="570" type="line" smooth="yes"/>
      <point x="155" y="660"/>
      <point x="195" y="700"/>
      <point x="225" y="700" type="curve" smooth="yes"/>
      <point x="264" y="700"/>
      <point x="293" y="615"/>
      <point x="295" y="610" type="curve"/>
      <point x="295" y="700" type="line"/>
      <point x="295" y="700"/>
      <point x="265" y="720"/>
      <point x="225" y="720" type="curve" smooth="yes"/>
      <point x="135" y="720"/>
      <point x="75" y="660"/>
      <point x="75" y="570" type="curve" smooth="yes"/>
      <point x="75" y="480" type="line"/>
      <point x="10" y="480" type="line"/>
      <point x="10" y="460" type="line"/>
      <point x="75" y="460" type="line"/>
    </contour>
  </outline>
</glyph>
<glyph name="afii57929" format="1">
  <advance width="130"/>
  <unicode hex="02BC"/>
  <outline>
    <contour>
      <point x="100" y="700" type="line" name="hr00"/>
      <point x="30" y="700" type="line"/>
      <point x="30" y="630" type="line"/>
      <point x="50" y="630" type="line"/>
      <point x="50" y="630"/>
      <point x="60" y="620"/>
      <point x="60" y="610" type="curve" smooth="yes"/>
      <point x="60" y="580"/>
      <point x="35" y="550"/>
      <point x="35" y="550" type="curve"/>
      <point x="45" y="540" type="line"/>
      <point x="45" y="540"/>
      <point x="100" y="580"/>
      <point x="100" y="660" type="curve"/>
    </contour>
  </outline>
</glyph>
<glyph name="circumflex" format="1">
  <advance width="290"/>
  <unicode hex="02C6"/>
  <outline>
    <contour>
      <point x="260" y="590" type="line" name="hr00"/>
      <point x="170" y="700" type="line"/>
      <point x="120" y="700" type="line"/>
      <point x="30" y="590" type="line"/>
      <point x="50" y="590" type="line"/>
      <point x="145" y="650" type="line"/>
      <point x="240" y="590" type="line"/>
    </contour>
  </outline>
</glyph>
<glyph name="caron" format="1">
  <advance width="290"/>
  <unicode hex="02C7"/>
  <outline>
    <contour>
      <point x="240" y="700" type="line" name="hr00"/>
      <point x="145" y="640" type="line"/>
      <point x="50" y="700" type="line"/>
      <point x="30" y="700" type="line"/>
      <point x="120" y="590" type="line"/>
      <point x="170" y="590" type="line"/>
      <point x="260" y="700" type="line"/>
    </contour>
  </outline>
</glyph>
<glyph name="breve" format="1">
  <advance width="240"/>
  <unicode hex="02D8"/>
  <outline>
    <contour>
      <point x="120" y="640" type="curve" smooth="yes" name="hr00"/>
      <point x="75" y="640"/>
      <point x="50" y="665"/>
      <point x="40" y="700" type="curve"/>
      <point x="30" y="700" type="line"/>
      <point x="30" y="630"/>
      <point x="70" y="590"/>
      <point x="120" y="590" type="curve"/>
      <point x="170" y="590"/>
      <point x="210" y="630"/>
      <point x="210" y="700" type="curve"/>
      <point x="200" y="700" type="line"/>
      <point x="190" y="665"/>
      <point x="165" y="640"/>
    </contour>
  </outline>
</glyph>
<glyph name="dotaccent" format="1">
  <advance width="160"/>
  <unicode hex="02D9"/>
  <outline>
    <contour>
      <point x="80" y="700" type="curve" smooth="yes" name="hr00"/>
      <point x="50" y="700"/>
      <point x="30" y="680"/>
      <point x="30" y="650" type="curve" smooth="yes"/>
      <point x="30" y="620"/>
      <point x="50" y="600"/>
      <point x="80" y="600" type="curve" smooth="yes"/>
      <point x="110" y="600"/>
      <point x="130" y="620"/>
      <point x="130" y="650" type="curve" smooth="yes"/>
      <point x="130" y="680"/>
      <point x="110" y="700"/>
    </contour>
  </outline>
</glyph>
<glyph name="ring" format="1">
  <advance width="230"/>
  <unicode hex="02DA"/>
  <outline>
    <contour>
      <point x="30" y="620" type="curve" name="hr00"/>
      <point x="30" y="575"/>
      <point x="65" y="540"/>
      <point x="115" y="540" type="curve"/>
      <point x="165" y="540"/>
      <point x="200" y="575"/>
      <point x="200" y="620" type="curve"/>
      <point x="200" y="665"/>
      <point x="165" y="700"/>
      <point x="115" y="700" type="curve" smooth="yes"/>
      <point x="65" y="700"/>
      <point x="30" y="665"/>
    </contour>
    <contour>
      <point x="70" y="620" type="curve"/>
      <point x="70" y="655"/>
      <point x="90" y="675"/>
      <point x="115" y="675" type="curve" smooth="yes"/>
      <point x="140" y="675"/>
      <point x="160" y="655"/>
      <point x="160" y="620" type="curve"/>
      <point x="160" y="585"/>
      <point x="140" y="565"/>
      <point x="115" y="565" type="curve"/>
      <point x="90" y="565"/>
      <point x="70" y="585"/>
    </contour>
  </outline>
</glyph>
<glyph name="ogonek" format="1">
  <advance width="185"/>
  <unicode hex="02DB"/>
  <outline>
    <contour>
      <point x="85" y="-90" type="curve" smooth="yes" name="hr00"/>
      <point x="85" y="-40"/>
      <point x="145" y="0"/>
      <point x="145" y="0" type="curve"/>
      <point x="125" y="0" type="line"/>
      <point x="125" y="0"/>
      <point x="30" y="-40"/>
      <point x="30" y="-100" type="curve" smooth="yes"/>
      <point x="30" y="-135"/>
      <point x="55" y="-160"/>
      <point x="100" y="-160" type="curve"/>
      <point x="135" y="-160"/>
      <point x="155" y="-140"/>
      <point x="155" y="-140" type="curve"/>
      <point x="155" y="-115" type="line"/>
      <point x="155" y="-115"/>
      <point x="135" y="-125"/>
      <point x="120" y="-125" type="curve"/>
      <point x="100" y="-125"/>
      <point x="85" y="-110"/>
    </contour>
  </outline>
</glyph>
<glyph name="tilde" format="1">
  <advance width="265"/>
  <unicode hex="02DC"/>
  <outline>
    <contour>
      <point x="30" y="705" type="curve" name="hr00"/>
      <point x="30" y="635"/>
      <point x="60" y="605"/>
      <point x="95" y="605" type="curve" smooth="yes"/>
      <point x="125" y="605"/>
      <point x="150" y="645"/>
      <point x="185" y="645" type="curve" smooth="yes"/>
      <point x="210" y="645"/>
      <point x="235" y="600"/>
      <point x="235" y="600" type="curve"/>
      <point x="235" y="670"/>
      <point x="205" y="700"/>
      <point x="170" y="700" type="curve" smooth="yes"/>
      <point x="140" y="700"/>
      <point x="115" y="660"/>
      <point x="80" y="660" type="curve" smooth="yes"/>
      <point x="55" y="660"/>
    </contour>
  </outline>
</glyph>
<glyph name="hungarumlaut" format="1">
  <advance width="280"/>
  <unicode hex="02DD"/>
  <outline>
    <contour>
      <point x="50" y="560" type="line" name="hr00"/>
      <point x="140" y="670" type="line"/>
      <point x="100" y="700" type="line"/>
      <point x="30" y="570" type="line"/>
    </contour>
    <contour>
      <point x="160" y="560" type="line"/>
      <point x="250" y="670" type="line"/>
      <point x="210" y="700" type="line"/>
      <point x="140" y="570" type="line"/>
    </contour>
  </outline>
</glyph>
<glyph name="afii10023" format="1">
  <advance width="360"/>
  <unicode hex="0401"/>
  <outline>
    <contour>
      <point x="350" y="0" type="line" name="hr00"/>
      <point x="350" y="20" type="line"/>
      <point x="150" y="20" type="line"/>
      <point x="150" y="480" type="line"/>
      <point x="330" y="480" type="line"/>
      <point x="330" y="500" type="line"/>
      <point x="150" y="500" type="line"/>
      <point x="150" y="680" type="line"/>
      <point x="350" y="680" type="line"/>
      <point x="350" y="700" type="line"/>
      <point x="70" y="700" type="line"/>
      <point x="70" y="0" type="line"/>
    </contour>
    <contour>
      <point x="180" y="830" type="curve" smooth="yes"/>
      <point x="180" y="850"/>
      <point x="160" y="870"/>
      <point x="140" y="870" type="curve" smooth="yes"/>
      <point x="120" y="870"/>
      <point x="100" y="850"/>
      <point x="100" y="830" type="curve" smooth="yes"/>
      <point x="100" y="810"/>
      <point x="120" y="790"/>
      <point x="140" y="790" type="curve" smooth="yes"/>
      <point x="160" y="790"/>
      <point x="180" y="810"/>
    </contour>
    <contour>
      <point x="320" y="830" type="curve" smooth="yes"/>
      <point x="320" y="850"/>
      <point x="300" y="870"/>
      <point x="280" y="870" type="curve" smooth="yes"/>
      <point x="260" y="870"/>
      <point x="240" y="850"/>
      <point x="240" y="830" type="curve" smooth="yes"/>
      <point x="240" y="810"/>
      <point x="260" y="790"/>
      <point x="280" y="790" type="curve" smooth="yes"/>
      <point x="300" y="790"/>
      <point x="320" y="810"/>
    </contour>
  </outline>
</glyph>
<glyph name="afii10051" format="1">
  <advance width="500"/>
  <unicode hex="0402"/>
  <outline>
    <contour>
      <point x="190" y="0" type="line" name="hr00"/>
      <point x="190" y="395" type="line"/>
      <point x="190" y="395"/>
      <point x="230" y="430"/>
      <point x="280" y="430" type="curve" smooth="yes"/>
      <point x="330" y="430"/>
      <point x="380" y="380"/>
      <point x="380" y="250" type="curve" smooth="yes"/>
      <point x="380" y="100" type="line" smooth="yes"/>
      <point x="380" y="10"/>
      <point x="340" y="-30"/>
      <point x="310" y="-30" type="curve"/>
      <point x="310" y="-50" type="line"/>
      <point x="400" y="-50"/>
      <point x="460" y="10"/>
      <point x="460" y="100" type="curve" smooth="yes"/>
      <point x="460" y="250" type="line" smooth="yes"/>
      <point x="460" y="370"/>
      <point x="380" y="450"/>
      <point x="280" y="450" type="curve" smooth="yes"/>
      <point x="230" y="450"/>
      <point x="190" y="420"/>
      <point x="190" y="420" type="curve"/>
      <point x="190" y="680" type="line"/>
      <point x="340" y="680" type="line"/>
      <point x="340" y="700" type="line"/>
      <point x="0" y="700" type="line"/>
      <point x="0" y="680" type="line"/>
      <point x="110" y="680" type="line"/>
      <point x="110" y="0" type="line"/>
    </contour>
  </outline>
</glyph>
<glyph name="afii10052" format="1">
  <advance width="360"/>
  <unicode hex="0403"/>
  <outline>
    <contour>
      <point x="165" y="790" type="line" name="hr00"/>
      <point x="310" y="830" type="line"/>
      <point x="290" y="880" type="line"/>
      <point x="155" y="810" type="line"/>
    </contour>
    <component base="afii10020"/>
  </outline>
</glyph>
<glyph name="afii10054" format="1">
  <advance width="400"/>
  <unicode hex="0405"/>
  <outline>
    <contour>
      <point x="215" y="710" type="curve" smooth="yes" name="hr00"/>
      <point x="125" y="710"/>
      <point x="55" y="640"/>
      <point x="55" y="570" type="curve" smooth="yes"/>
      <point x="55" y="400"/>
      <point x="295" y="330"/>
      <point x="295" y="180" type="curve" smooth="yes"/>
      <point x="295" y="60"/>
      <point x="245" y="10"/>
      <point x="185" y="10" type="curve" smooth="yes"/>
      <point x="145" y="10"/>
      <point x="85" y="70"/>
      <point x="85" y="230" type="curve"/>
      <point x="15" y="160" type="line"/>
      <point x="35" y="60"/>
      <point x="105" y="-10"/>
      <point x="185" y="-10" type="curve" smooth="yes"/>
      <point x="285" y="-10"/>
      <point x="365" y="70"/>
      <point x="365" y="200" type="curve" smooth="yes"/>
      <point x="365" y="400"/>
      <point x="125" y="470"/>
      <point x="125" y="590" type="curve" smooth="yes"/>
      <point x="125" y="650"/>
      <point x="165" y="690"/>
      <point x="215" y="690" type="curve" smooth="yes"/>
      <point x="255" y="690"/>
      <point x="295" y="650"/>
      <point x="295" y="540" type="curve"/>
      <point x="355" y="610" type="line"/>
      <point x="335" y="660"/>
      <point x="285" y="710"/>
    </contour>
  </outline>
</glyph>
<glyph name="afii10055" format="1">
  <advance width="220"/>
  <unicode hex="0406"/>
  <outline>
    <contour>
      <point x="150" y="0" type="line" name="hr00"/>
      <point x="150" y="700" type="line"/>
      <point x="70" y="700" type="line"/>
      <point x="70" y="0" type="line"/>
    </contour>
  </outline>
</glyph>
<glyph name="afii10056" format="1">
  <advance width="220"/>
  <unicode hex="0407"/>
  <outline>
    <contour>
      <point x="150" y="0" type="line" name="hr00"/>
      <point x="150" y="700" type="line"/>
      <point x="70" y="700" type="line"/>
      <point x="70" y="0" type="line"/>
    </contour>
    <contour>
      <point x="80" y="830" type="curve" smooth="yes"/>
      <point x="80" y="850"/>
      <point x="60" y="870"/>
      <point x="40" y="870" type="curve" smooth="yes"/>
      <point x="20" y="870"/>
      <point x="0" y="850"/>
      <point x="0" y="830" type="curve" smooth="yes"/>
      <point x="0" y="810"/>
      <point x="20" y="790"/>
      <point x="40" y="790" type="curve" smooth="yes"/>
      <point x="60" y="790"/>
      <point x="80" y="810"/>
    </contour>
    <contour>
      <point x="220" y="830" type="curve" smooth="yes"/>
      <point x="220" y="850"/>
      <point x="200" y="870"/>
      <point x="180" y="870" type="curve" smooth="yes"/>
      <point x="160" y="870"/>
      <point x="140" y="850"/>
      <point x="140" y="830" type="curve" smooth="yes"/>
      <point x="140" y="810"/>
      <point x="160" y="790"/>
      <point x="180" y="790" type="curve" smooth="yes"/>
      <point x="200" y="790"/>
      <point x="220" y="810"/>
    </contour>
  </outline>
</glyph>
<glyph name="afii10057" format="1">
  <advance width="370"/>
  <unicode hex="0408"/>
  <outline>
    <contour>
      <point x="310" y="700" type="line" name="hr00"/>
      <point x="100" y="700" type="line"/>
      <point x="100" y="680" type="line"/>
      <point x="230" y="680" type="line"/>
      <point x="230" y="200" type="line" smooth="yes"/>
      <point x="230" y="50"/>
      <point x="190" y="10"/>
      <point x="150" y="10" type="curve" smooth="yes"/>
      <point x="120" y="10"/>
      <point x="70" y="60"/>
      <point x="70" y="200" type="curve"/>
      <point x="0" y="130" type="line"/>
      <point x="20" y="50"/>
      <point x="80" y="-10"/>
      <point x="150" y="-10" type="curve" smooth="yes"/>
      <point x="230" y="-10"/>
      <point x="310" y="70"/>
      <point x="310" y="200" type="curve" smooth="yes"/>
    </contour>
  </outline>
</glyph>
<glyph name="afii10058" format="1">
  <advance width="700"/>
  <unicode hex="0409"/>
  <outline>
    <contour>
      <point x="310" y="680" type="curve" name="hr00"/>
      <point x="340" y="680" type="line"/>
      <point x="340" y="0" type="line"/>
      <point x="420" y="0" type="line" smooth="yes"/>
      <point x="560" y="0"/>
      <point x="670" y="110"/>
      <point x="670" y="250" type="curve" smooth="yes"/>
      <point x="670" y="390"/>
      <point x="560" y="500"/>
      <point x="420" y="500" type="curve"/>
      <point x="420" y="700" type="line"/>
      <point x="310" y="700" type="line" smooth="yes"/>
      <point x="190" y="700"/>
      <point x="90" y="600"/>
      <point x="90" y="400" type="curve" smooth="yes"/>
      <point x="90" y="300" type="line" smooth="yes"/>
      <point x="90" y="70"/>
      <point x="30" y="10"/>
      <point x="0" y="10" type="curve"/>
      <point x="0" y="-10" type="line"/>
      <point x="90" y="-10"/>
      <point x="170" y="70"/>
      <point x="170" y="300" type="curve" smooth="yes"/>
      <point x="170" y="400" type="line" smooth="yes"/>
      <point x="170" y="600"/>
      <point x="250" y="680"/>
    </contour>
    <contour>
      <point x="580" y="250" type="curve" smooth="yes"/>
      <point x="580" y="90"/>
      <point x="510" y="20"/>
      <point x="420" y="20" type="curve"/>
      <point x="420" y="480" type="line"/>
      <point x="510" y="480"/>
      <point x="580" y="410"/>
    </contour>
  </outline>
</glyph>
<glyph name="afii10059" format="1">
  <advance width="690"/>
  <unicode hex="040A"/>
  <outline>
    <contour>
      <point x="330" y="700" type="line" name="hr00"/>
      <point x="330" y="480" type="line"/>
      <point x="150" y="480" type="line"/>
      <point x="150" y="700" type="line"/>
      <point x="70" y="700" type="line"/>
      <point x="70" y="0" type="line"/>
      <point x="150" y="0" type="line"/>
      <point x="150" y="460" type="line"/>
      <point x="330" y="460" type="line"/>
      <point x="330" y="0" type="line"/>
      <point x="410" y="0" type="line" smooth="yes"/>
      <point x="550" y="0"/>
      <point x="660" y="110"/>
      <point x="660" y="240" type="curve" smooth="yes"/>
      <point x="660" y="370"/>
      <point x="550" y="480"/>
      <point x="410" y="480" type="curve"/>
      <point x="410" y="700" type="line"/>
    </contour>
    <contour>
      <point x="570" y="240" type="curve" smooth="yes"/>
      <point x="570" y="90"/>
      <point x="500" y="20"/>
      <point x="410" y="20" type="curve"/>
      <point x="410" y="460" type="line"/>
      <point x="500" y="460"/>
      <point x="570" y="390"/>
    </contour>
  </outline>
</glyph>
<glyph name="afii10060" format="1">
  <advance width="510"/>
  <unicode hex="040B"/>
  <outline>
    <contour>
      <point x="190" y="0" type="line" name="hr00"/>
      <point x="190" y="395" type="line"/>
      <point x="190" y="395"/>
      <point x="230" y="430"/>
      <point x="280" y="430" type="curve" smooth="yes"/>
      <point x="330" y="430"/>
      <point x="380" y="380"/>
      <point x="380" y="250" type="curve" smooth="yes"/>
      <point x="380" y="0" type="line"/>
      <point x="460" y="0" type="line"/>
      <point x="460" y="250" type="line" smooth="yes"/>
      <point x="460" y="370"/>
      <point x="380" y="450"/>
      <point x="280" y="450" type="curve" smooth="yes"/>
      <point x="230" y="450"/>
      <point x="190" y="420"/>
      <point x="190" y="420" type="curve"/>
      <point x="190" y="680" type="line"/>
      <point x="340" y="680" type="line"/>
      <point x="340" y="700" type="line"/>
      <point x="0" y="700" type="line"/>
      <point x="0" y="680" type="line"/>
      <point x="110" y="680" type="line"/>
      <point x="110" y="0" type="line"/>
    </contour>
  </outline>
</glyph>
<glyph name="afii10061" format="1">
  <advance width="440"/>
  <unicode hex="040C"/>
  <outline>
    <contour>
      <point x="165" y="790" type="line" name="hr00"/>
      <point x="310" y="830" type="line"/>
      <point x="290" y="880" type="line"/>
      <point x="155" y="810" type="line"/>
    </contour>
    <component base="afii10028"/>
  </outline>
</glyph>
<glyph name="afii10062" format="1">
  <advance width="410"/>
  <unicode hex="040E"/>
  <outline>
    <contour>
      <point x="230" y="800" type="curve" smooth="yes" name="hr00"/>
      <point x="200" y="800"/>
      <point x="170" y="830"/>
      <point x="160" y="900" type="curve"/>
      <point x="110" y="860" type="line"/>
      <point x="120" y="830"/>
      <point x="170" y="780"/>
      <point x="230" y="780" type="curve" smooth="yes"/>
      <point x="290" y="780"/>
      <point x="340" y="830"/>
      <point x="350" y="860" type="curve"/>
      <point x="300" y="900" type="line"/>
      <point x="290" y="830"/>
      <point x="260" y="800"/>
    </contour>
    <component base="afii10037"/>
  </outline>
</glyph>
<glyph name="afii10145" format="1">
  <advance width="500"/>
  <unicode hex="040F"/>
  <outline>
    <contour>
      <point x="430" y="0" type="line" name="hr00"/>
      <point x="430" y="700" type="line"/>
      <point x="350" y="700" type="line"/>
      <point x="350" y="20" type="line"/>
      <point x="150" y="20" type="line"/>
      <point x="150" y="700" type="line"/>
      <point x="70" y="700" type="line"/>
      <point x="70" y="0" type="line"/>
      <point x="150" y="0" type="line" smooth="yes"/>
      <point x="190" y="0"/>
      <point x="235" y="-46"/>
      <point x="235" y="-140" type="curve"/>
      <point x="265" y="-140" type="line"/>
      <point x="265" y="-46"/>
      <point x="310" y="0"/>
      <point x="350" y="0" type="curve"/>
    </contour>
  </outline>
</glyph>
<glyph name="afii10019" format="1">
  <advance width="440"/>
  <unicode hex="0412"/>
  <outline>
    <contour>
      <point x="150" y="0" type="line" smooth="yes" name="hr00"/>
      <point x="300" y="0"/>
      <point x="400" y="100"/>
      <point x="400" y="250" type="curve" smooth="yes"/>
      <point x="400" y="470"/>
      <point x="200" y="490"/>
      <point x="200" y="490" type="curve"/>
      <point x="200" y="490"/>
      <point x="360" y="500"/>
      <point x="360" y="590" type="curve" smooth="yes"/>
      <point x="360" y="640"/>
      <point x="300" y="700"/>
      <point x="150" y="700" type="curve" smooth="yes"/>
      <point x="70" y="700" type="line"/>
      <point x="70" y="0" type="line"/>
    </contour>
    <contour>
      <point x="310" y="250" type="curve" smooth="yes"/>
      <point x="310" y="90"/>
      <point x="240" y="20"/>
      <point x="150" y="20" type="curve"/>
      <point x="150" y="480" type="line"/>
      <point x="240" y="480"/>
      <point x="310" y="410"/>
    </contour>
    <contour>
      <point x="280" y="590" type="curve" smooth="yes"/>
      <point x="280" y="540"/>
      <point x="240" y="500"/>
      <point x="150" y="500" type="curve"/>
      <point x="150" y="680" type="line"/>
      <point x="240" y="680"/>
      <point x="280" y="640"/>
    </contour>
  </outline>
</glyph>
<glyph name="afii10020" format="1">
  <advance width="360"/>
  <unicode hex="0413"/>
  <outline>
    <contour>
      <point x="150" y="0" type="line" name="hr00"/>
      <point x="150" y="680" type="line"/>
      <point x="360" y="680" type="line"/>
      <point x="360" y="700" type="line"/>
      <point x="70" y="700" type="line"/>
      <point x="70" y="0" type="line"/>
    </contour>
  </outline>
</glyph>
<glyph name="afii10021" format="1">
  <advance width="470"/>
  <unicode hex="0414"/>
  <outline>
    <contour>
      <point x="330" y="0" type="line" smooth="yes" name="hr00"/>
      <point x="370" y="0"/>
      <point x="410" y="-40"/>
      <point x="410" y="-140" type="curve"/>
      <point x="450" y="-140" type="line"/>
      <point x="450" y="20" type="line"/>
      <point x="390" y="20" type="line"/>
      <point x="390" y="700" type="line"/>
      <point x="310" y="700" type="line" smooth="yes"/>
      <point x="190" y="700"/>
      <point x="90" y="600"/>
      <point x="90" y="400" type="curve" smooth="yes"/>
      <point x="90" y="310" type="line" smooth="yes"/>
      <point x="90" y="80"/>
      <point x="30" y="20"/>
      <point x="0" y="20" type="curve" smooth="yes"/>
      <point x="-20" y="20" type="line"/>
      <point x="-20" y="-140" type="line"/>
      <point x="20" y="-140" type="line"/>
      <point x="20" y="-40"/>
      <point x="60" y="0"/>
      <point x="100" y="0" type="curve" smooth="yes"/>
    </contour>
    <contour>
      <point x="310" y="680" type="curve"/>
      <point x="310" y="20" type="line"/>
      <point x="40" y="20" type="line"/>
      <point x="40" y="20"/>
      <point x="120" y="80"/>
      <point x="120" y="310" type="curve" smooth="yes"/>
      <point x="120" y="400" type="line" smooth="yes"/>
      <point x="120" y="600"/>
      <point x="200" y="680"/>
    </contour>
  </outline>
</glyph>
<glyph name="afii10024" format="1">
  <advance width="600"/>
  <unicode hex="0416"/>
  <outline>
    <contour>
      <point x="340" y="0" type="line" name="hr00"/>
      <point x="340" y="480" type="line"/>
      <point x="340" y="480"/>
      <point x="490" y="440"/>
      <point x="490" y="0" type="curve"/>
      <point x="580" y="0" type="line"/>
      <point x="580" y="409"/>
      <point x="382" y="486"/>
      <point x="371" y="490" type="curve"/>
      <point x="378" y="491"/>
      <point x="540" y="524"/>
      <point x="540" y="700" type="curve"/>
      <point x="460" y="700" type="line"/>
      <point x="460" y="520"/>
      <point x="340" y="500"/>
      <point x="340" y="500" type="curve"/>
      <point x="340" y="700" type="line"/>
      <point x="260" y="700" type="line"/>
      <point x="260" y="500" type="line"/>
      <point x="260" y="500"/>
      <point x="140" y="520"/>
      <point x="140" y="700" type="curve"/>
      <point x="60" y="700" type="line"/>
      <point x="60" y="522"/>
      <point x="225" y="491"/>
      <point x="228" y="490" type="curve"/>
      <point x="217" y="486"/>
      <point x="20" y="409"/>
      <point x="20" y="0" type="curve"/>
      <point x="110" y="0" type="line"/>
      <point x="110" y="440"/>
      <point x="260" y="480"/>
      <point x="260" y="480" type="curve"/>
      <point x="260" y="0" type="line"/>
    </contour>
  </outline>
</glyph>
<glyph name="afii10025" format="1">
  <advance width="410"/>
  <unicode hex="0417"/>
  <outline>
    <contour>
      <point x="200" y="710" type="curve" smooth="yes" name="hr00"/>
      <point x="130" y="710"/>
      <point x="80" y="660"/>
      <point x="60" y="610" type="curve"/>
      <point x="120" y="540" type="line"/>
      <point x="120" y="650"/>
      <point x="160" y="690"/>
      <point x="200" y="690" type="curve" smooth="yes"/>
      <point x="230" y="690"/>
      <point x="270" y="650"/>
      <point x="270" y="590" type="curve" smooth="yes"/>
      <point x="270" y="530"/>
      <point x="230" y="490"/>
      <point x="180" y="490" type="curve" smooth="yes"/>
      <point x="140" y="490" type="line"/>
      <point x="140" y="470" type="line"/>
      <point x="180" y="470" type="line" smooth="yes"/>
      <point x="230" y="470"/>
      <point x="290" y="410"/>
      <point x="290" y="240" type="curve" smooth="yes"/>
      <point x="290" y="70"/>
      <point x="230" y="10"/>
      <point x="190" y="10" type="curve" smooth="yes"/>
      <point x="150" y="10"/>
      <point x="90" y="70"/>
      <point x="90" y="230" type="curve"/>
      <point x="20" y="160" type="line"/>
      <point x="40" y="60"/>
      <point x="110" y="-10"/>
      <point x="190" y="-10" type="curve" smooth="yes"/>
      <point x="300" y="-10"/>
      <point x="380" y="90"/>
      <point x="380" y="240" type="curve" smooth="yes"/>
      <point x="380" y="460"/>
      <point x="200" y="480"/>
      <point x="200" y="480" type="curve"/>
      <point x="200" y="480"/>
      <point x="350" y="490"/>
      <point x="350" y="590" type="curve" smooth="yes"/>
      <point x="350" y="650"/>
      <point x="290" y="710"/>
    </contour>
  </outline>
</glyph>
<glyph name="afii10027" format="1">
  <advance width="500"/>
  <unicode hex="0419"/>
  <outline>
    <contour>
      <point x="150" y="450" type="line" name="hr00"/>
      <point x="350" y="670" type="line"/>
      <point x="350" y="0" type="line"/>
      <point x="430" y="0" type="line"/>
      <point x="430" y="700" type="line"/>
      <point x="350" y="700" type="line"/>
      <point x="150" y="480" type="line"/>
      <point x="150" y="700" type="line"/>
      <point x="70" y="700" type="line"/>
      <point x="70" y="0" type="line"/>
      <point x="150" y="0" type="line"/>
    </contour>
    <contour>
      <point x="250" y="810" type="curve" smooth="yes"/>
      <point x="220" y="810"/>
      <point x="190" y="840"/>
      <point x="180" y="910" type="curve"/>
      <point x="130" y="870" type="line"/>
      <point x="140" y="840"/>
      <point x="190" y="790"/>
      <point x="250" y="790" type="curve"/>
      <point x="310" y="790"/>
      <point x="360" y="840"/>
      <point x="370" y="870" type="curve"/>
      <point x="320" y="910" type="line"/>
      <point x="310" y="840"/>
      <point x="280" y="810"/>
    </contour>
  </outline>
</glyph>
<glyph name="afii10031" format="1">
  <advance width="500"/>
  <unicode hex="041D"/>
  <outline>
    <contour>
      <point x="150" y="0" type="line" name="hr00"/>
      <point x="150" y="460" type="line"/>
      <point x="350" y="460" type="line"/>
      <point x="350" y="0" type="line"/>
      <point x="430" y="0" type="line"/>
      <point x="430" y="700" type="line"/>
      <point x="350" y="700" type="line"/>
      <point x="350" y="480" type="line"/>
      <point x="150" y="480" type="line"/>
      <point x="150" y="700" type="line"/>
      <point x="70" y="700" type="line"/>
      <point x="70" y="0" type="line"/>
    </contour>
  </outline>
</glyph>
<glyph name="afii10033" format="1">
  <advance width="500"/>
  <unicode hex="041F"/>
  <outline>
    <contour>
      <point x="150" y="0" type="line" name="hr00"/>
      <point x="150" y="680" type="line"/>
      <point x="350" y="680" type="line"/>
      <point x="350" y="0" type="line"/>
      <point x="430" y="0" type="line"/>
      <point x="430" y="700" type="line"/>
      <point x="70" y="700" type="line"/>
      <point x="70" y="0" type="line"/>
    </contour>
  </outline>
</glyph>
<glyph name="afii10037" format="1">
  <advance width="410"/>
  <unicode hex="0423"/>
  <outline>
    <contour>
      <point x="400" y="700" type="line" name="hr00"/>
      <point x="375" y="700" type="line"/>
      <point x="250" y="295" type="line"/>
      <point x="110" y="700" type="line"/>
      <point x="25" y="700" type="line"/>
      <point x="210" y="170" type="line"/>
      <point x="170" y="40"/>
      <point x="140" y="10"/>
      <point x="110" y="10" type="curve" smooth="yes"/>
      <point x="90" y="10"/>
      <point x="60" y="40"/>
      <point x="60" y="130" type="curve"/>
      <point x="10" y="70" type="line"/>
      <point x="30" y="20"/>
      <point x="60" y="-10"/>
      <point x="110" y="-10" type="curve" smooth="yes"/>
      <point x="150" y="-10"/>
      <point x="191" y="30"/>
      <point x="235" y="170" type="curve" smooth="yes"/>
    </contour>
  </outline>
</glyph>
<glyph name="afii10038" format="1">
  <advance width="680"/>
  <unicode hex="0424"/>
  <outline>
    <contour>
      <point x="380" y="50" type="line" name="hr00"/>
      <point x="520" y="60"/>
      <point x="640" y="180"/>
      <point x="640" y="350" type="curve" smooth="yes"/>
      <point x="640" y="520"/>
      <point x="520" y="640"/>
      <point x="380" y="650" type="curve"/>
      <point x="380" y="720" type="line"/>
      <point x="300" y="720" type="line"/>
      <point x="300" y="650" type="line"/>
      <point x="160" y="640"/>
      <point x="40" y="520"/>
      <point x="40" y="350" type="curve" smooth="yes"/>
      <point x="40" y="180"/>
      <point x="160" y="60"/>
      <point x="300" y="50" type="curve"/>
      <point x="300" y="-20" type="line"/>
      <point x="380" y="-20" type="line"/>
    </contour>
    <contour>
      <point x="550" y="350" type="curve" smooth="yes"/>
      <point x="550" y="170"/>
      <point x="460" y="80"/>
      <point x="380" y="70" type="curve"/>
      <point x="380" y="630" type="line"/>
      <point x="460" y="620"/>
      <point x="550" y="530"/>
    </contour>
    <contour>
      <point x="130" y="350" type="curve" smooth="yes"/>
      <point x="130" y="530"/>
      <point x="220" y="620"/>
      <point x="300" y="630" type="curve"/>
      <point x="300" y="70" type="line"/>
      <point x="220" y="80"/>
      <point x="130" y="170"/>
    </contour>
  </outline>
</glyph>
<glyph name="afii10039" format="1">
  <advance width="410"/>
  <unicode hex="0425"/>
  <outline>
    <contour>
      <point x="310" y="0" type="line" name="hr00"/>
      <point x="400" y="0" type="line"/>
      <point x="230" y="410" type="line"/>
      <point x="370" y="700" type="line"/>
      <point x="345" y="700" type="line"/>
      <point x="220" y="440" type="line"/>
      <point x="110" y="700" type="line"/>
      <point x="20" y="700" type="line"/>
      <point x="170" y="335" type="line"/>
      <point x="10" y="0" type="line"/>
      <point x="35" y="0" type="line"/>
      <point x="180" y="305" type="line"/>
    </contour>
  </outline>
</glyph>
<glyph name="afii10040" format="1">
  <advance width="500"/>
  <unicode hex="0426"/>
  <outline>
    <contour>
      <point x="360" y="0" type="line" smooth="yes" name="hr00"/>
      <point x="400" y="0"/>
      <point x="440" y="-40"/>
      <point x="440" y="-140" type="curve"/>
      <point x="480" y="-140" type="line"/>
      <point x="480" y="20" type="line"/>
      <point x="420" y="20" type="line"/>
      <point x="420" y="700" type="line"/>
      <point x="340" y="700" type="line"/>
      <point x="340" y="20" type="line"/>
      <point x="150" y="20" type="line"/>
      <point x="150" y="700" type="line"/>
      <point x="70" y="700" type="line"/>
      <point x="70" y="0" type="line"/>
    </contour>
  </outline>
</glyph>
<glyph name="afii10041" format="1">
  <advance width="470"/>
  <unicode hex="0427"/>
  <outline>
    <contour>
      <point x="320" y="700" type="line" name="hr00"/>
      <point x="320" y="345" type="line"/>
      <point x="320" y="345"/>
      <point x="280" y="310"/>
      <point x="230" y="310" type="curve" smooth="yes"/>
      <point x="180" y="310"/>
      <point x="130" y="360"/>
      <point x="130" y="490" type="curve" smooth="yes"/>
      <point x="130" y="700" type="line"/>
      <point x="50" y="700" type="line"/>
      <point x="50" y="490" type="line" smooth="yes"/>
      <point x="50" y="370"/>
      <point x="130" y="290"/>
      <point x="230" y="290" type="curve" smooth="yes"/>
      <point x="280" y="290"/>
      <point x="320" y="320"/>
      <point x="320" y="320" type="curve"/>
      <point x="320" y="0" type="line"/>
      <point x="400" y="0" type="line"/>
      <point x="400" y="700" type="line"/>
    </contour>
  </outline>
</glyph>
<glyph name="afii10042" format="1">
  <advance width="720"/>
  <unicode hex="0428"/>
  <outline>
    <contour>
      <point x="320" y="700" type="line" name="hr00"/>
      <point x="320" y="20" type="line"/>
      <point x="150" y="20" type="line"/>
      <point x="150" y="700" type="line"/>
      <point x="70" y="700" type="line"/>
      <point x="70" y="0" type="line"/>
      <point x="650" y="0" type="line"/>
      <point x="650" y="700" type="line"/>
      <point x="570" y="700" type="line"/>
      <point x="570" y="20" type="line"/>
      <point x="400" y="20" type="line"/>
      <point x="400" y="700" type="line"/>
    </contour>
  </outline>
</glyph>
<glyph name="afii10043" format="1">
  <advance width="730"/>
  <unicode hex="0429"/>
  <outline>
    <contour>
      <point x="320" y="700" type="line" name="hr00"/>
      <point x="320" y="20" type="line"/>
      <point x="150" y="20" type="line"/>
      <point x="150" y="700" type="line"/>
      <point x="70" y="700" type="line"/>
      <point x="70" y="0" type="line"/>
      <point x="590" y="0" type="line"/>
      <point x="630" y="0"/>
      <point x="670" y="-40"/>
      <point x="670" y="-140" type="curve"/>
      <point x="710" y="-140" type="line"/>
      <point x="710" y="20" type="line"/>
      <point x="650" y="20" type="line"/>
      <point x="650" y="700" type="line"/>
      <point x="570" y="700" type="line"/>
      <point x="570" y="20" type="line"/>
      <point x="400" y="20" type="line"/>
      <point x="400" y="700" type="line"/>
    </contour>
  </outline>
</glyph>
<glyph name="afii10044" format="1">
  <advance width="490"/>
  <unicode hex="042A"/>
  <outline>
    <contour>
      <point x="10" y="700" type="line" name="hr00"/>
      <point x="10" y="540" type="line"/>
      <point x="50" y="540" type="line"/>
      <point x="50" y="640"/>
      <point x="90" y="680"/>
      <point x="140" y="680" type="curve"/>
      <point x="140" y="0" type="line"/>
      <point x="220" y="0" type="line" smooth="yes"/>
      <point x="350" y="0"/>
      <point x="460" y="110"/>
      <point x="460" y="250" type="curve" smooth="yes"/>
      <point x="460" y="390"/>
      <point x="350" y="500"/>
      <point x="220" y="500" type="curve"/>
      <point x="220" y="700" type="line"/>
    </contour>
    <contour>
      <point x="370" y="250" type="curve" smooth="yes"/>
      <point x="370" y="90"/>
      <point x="300" y="20"/>
      <point x="220" y="20" type="curve"/>
      <point x="220" y="480" type="line"/>
      <point x="300" y="480"/>
      <point x="370" y="410"/>
    </contour>
  </outline>
</glyph>
<glyph name="afii10045" format="1">
  <advance width="580"/>
  <unicode hex="042B"/>
  <outline>
    <contour>
      <point x="510" y="0" type="line" name="hr00"/>
      <point x="510" y="700" type="line"/>
      <point x="480" y="700" type="line"/>
      <point x="480" y="0" type="line"/>
    </contour>
    <contour>
      <point x="70" y="700" type="line"/>
      <point x="70" y="0" type="line"/>
      <point x="150" y="0" type="line" smooth="yes"/>
      <point x="290" y="0"/>
      <point x="400" y="110"/>
      <point x="400" y="250" type="curve" smooth="yes"/>
      <point x="400" y="390"/>
      <point x="290" y="500"/>
      <point x="150" y="500" type="curve"/>
      <point x="150" y="700" type="line"/>
    </contour>
    <contour>
      <point x="310" y="250" type="curve" smooth="yes"/>
      <point x="310" y="90"/>
      <point x="240" y="20"/>
      <point x="150" y="20" type="curve"/>
      <point x="150" y="480" type="line"/>
      <point x="240" y="480"/>
      <point x="310" y="410"/>
    </contour>
  </outline>
</glyph>
<glyph name="afii10047" format="1">
  <advance width="460"/>
  <unicode hex="042D"/>
  <outline>
    <contour>
      <point x="210" y="10" type="curve" smooth="yes" name="hr00"/>
      <point x="170" y="10"/>
      <point x="110" y="70"/>
      <point x="110" y="230" type="curve"/>
      <point x="40" y="160" type="line"/>
      <point x="60" y="60"/>
      <point x="130" y="-10"/>
      <point x="210" y="-10" type="curve" smooth="yes"/>
      <point x="300" y="-10"/>
      <point x="420" y="110"/>
      <point x="420" y="350" type="curve" smooth="yes"/>
      <point x="420" y="590"/>
      <point x="300" y="710"/>
      <point x="210" y="710" type="curve" smooth="yes"/>
      <point x="130" y="710"/>
      <point x="60" y="640"/>
      <point x="40" y="570" type="curve"/>
      <point x="110" y="500" type="line"/>
      <point x="110" y="630"/>
      <point x="170" y="690"/>
      <point x="210" y="690" type="curve" smooth="yes"/>
      <point x="257" y="690"/>
      <point x="321" y="628"/>
      <point x="329" y="400" type="curve"/>
      <point x="171" y="400" type="line"/>
      <point x="171" y="380" type="line"/>
      <point x="329" y="380" type="line"/>
      <point x="329" y="370"/>
      <point x="330" y="360"/>
      <point x="330" y="350" type="curve" smooth="yes"/>
      <point x="330" y="80"/>
      <point x="260" y="10"/>
    </contour>
  </outline>
</glyph>
<glyph name="afii10048" format="1">
  <advance width="690"/>
  <unicode hex="042E"/>
  <outline>
    <contour>
      <point x="650" y="350" type="curve" smooth="yes" name="hr00"/>
      <point x="650" y="590"/>
      <point x="530" y="710"/>
      <point x="450" y="710" type="curve" smooth="yes"/>
      <point x="374" y="710"/>
      <point x="263" y="603"/>
      <point x="251" y="390" type="curve"/>
      <point x="150" y="390" type="line"/>
      <point x="150" y="700" type="line"/>
      <point x="70" y="700" type="line"/>
      <point x="70" y="0" type="line"/>
      <point x="150" y="0" type="line"/>
      <point x="150" y="370" type="line"/>
      <point x="250" y="370" type="line"/>
      <point x="250" y="350" type="line" smooth="yes"/>
      <point x="250" y="110"/>
      <point x="370" y="-10"/>
      <point x="450" y="-10" type="curve" smooth="yes"/>
      <point x="530" y="-10"/>
      <point x="650" y="110"/>
    </contour>
    <contour>
      <point x="340" y="350" type="curve" smooth="yes"/>
      <point x="340" y="620"/>
      <point x="410" y="690"/>
      <point x="450" y="690" type="curve" smooth="yes"/>
      <point x="490" y="690"/>
      <point x="560" y="620"/>
      <point x="560" y="350" type="curve" smooth="yes"/>
      <point x="560" y="80"/>
      <point x="490" y="10"/>
      <point x="450" y="10" type="curve" smooth="yes"/>
      <point x="410" y="10"/>
      <point x="340" y="80"/>
    </contour>
  </outline>
</glyph>
<glyph name="afii10049" format="1">
  <advance width="440"/>
  <unicode hex="042F"/>
  <outline>
    <contour>
      <point x="160" y="590" type="curve" smooth="yes" name="hr00"/>
      <point x="160" y="640"/>
      <point x="200" y="680"/>
      <point x="290" y="680" type="curve"/>
      <point x="290" y="500" type="line"/>
      <point x="200" y="500"/>
      <point x="160" y="540"/>
    </contour>
    <contour>
      <point x="370" y="0" type="line"/>
      <point x="370" y="700" type="line"/>
      <point x="290" y="700" type="line" smooth="yes"/>
      <point x="130" y="700"/>
      <point x="70" y="640"/>
      <point x="70" y="590" type="curve" smooth="yes"/>
      <point x="70" y="540"/>
      <point x="120" y="490"/>
      <point x="230" y="480" type="curve"/>
      <point x="230" y="480"/>
      <point x="30" y="410"/>
      <point x="30" y="0" type="curve"/>
      <point x="120" y="0" type="line"/>
      <point x="120" y="440"/>
      <point x="290" y="480"/>
      <point x="290" y="480" type="curve"/>
      <point x="290" y="0" type="line"/>
    </contour>
  </outline>
</glyph>
<glyph name="afii10066" format="1">
  <advance width="430"/>
  <unicode hex="0431"/>
  <outline>
    <contour>
      <point x="390" y="220" type="curve" smooth="yes" name="hr00"/>
      <point x="390" y="365"/>
      <point x="305" y="450"/>
      <point x="220" y="450" type="curve" smooth="yes"/>
      <point x="140" y="450"/>
      <point x="105" y="370"/>
      <point x="105" y="370" type="curve"/>
      <point x="105" y="560"/>
      <point x="145" y="600"/>
      <point x="185" y="600" type="curve" smooth="yes"/>
      <point x="215" y="600"/>
      <point x="255" y="570"/>
      <point x="285" y="570" type="curve" smooth="yes"/>
      <point x="325" y="570"/>
      <point x="365" y="610"/>
      <point x="365" y="680" type="curve"/>
      <point x="365" y="677"/>
      <point x="335" y="650"/>
      <point x="295" y="650" type="curve" smooth="yes"/>
      <point x="265" y="650"/>
      <point x="225" y="680"/>
      <point x="195" y="680" type="curve"/>
      <point x="130" y="680"/>
      <point x="50" y="600"/>
      <point x="50" y="370" type="curve" smooth="yes"/>
      <point x="50" y="220" type="line" smooth="yes"/>
      <point x="50" y="75"/>
      <point x="135" y="-10"/>
      <point x="220" y="-10" type="curve" smooth="yes"/>
      <point x="305" y="-10"/>
      <point x="390" y="75"/>
    </contour>
    <contour>
      <point x="220" y="430" type="curve" smooth="yes"/>
      <point x="255" y="430"/>
      <point x="300" y="385"/>
      <point x="300" y="220" type="curve" smooth="yes"/>
      <point x="300" y="55"/>
      <point x="255" y="10"/>
      <point x="220" y="10" type="curve" smooth="yes"/>
      <point x="185" y="10"/>
      <point x="140" y="55"/>
      <point x="140" y="220" type="curve" smooth="yes"/>
      <point x="140" y="385"/>
      <point x="185" y="430"/>
    </contour>
  </outline>
</glyph>
<glyph name="afii10067" format="1">
  <advance width="380"/>
  <unicode hex="0432"/>
  <outline>
    <contour>
      <point x="190" y="330" type="curve" name="hr00"/>
      <point x="190" y="330"/>
      <point x="320" y="330"/>
      <point x="320" y="410" type="curve" smooth="yes"/>
      <point x="320" y="460"/>
      <point x="280" y="500"/>
      <point x="140" y="500" type="curve" smooth="yes"/>
      <point x="60" y="500" type="line"/>
      <point x="60" y="0" type="line"/>
      <point x="140" y="0" type="line" smooth="yes"/>
      <point x="270" y="0"/>
      <point x="350" y="80"/>
      <point x="350" y="170" type="curve" smooth="yes"/>
      <point x="350" y="300"/>
    </contour>
    <contour>
      <point x="260" y="170" type="curve" smooth="yes"/>
      <point x="260" y="70"/>
      <point x="210" y="20"/>
      <point x="140" y="20" type="curve"/>
      <point x="140" y="320" type="line"/>
      <point x="210" y="320"/>
      <point x="260" y="270"/>
    </contour>
    <contour>
      <point x="140" y="480" type="line"/>
      <point x="210" y="480"/>
      <point x="240" y="450"/>
      <point x="240" y="410" type="curve" smooth="yes"/>
      <point x="240" y="370"/>
      <point x="210" y="340"/>
      <point x="140" y="340" type="curve"/>
    </contour>
  </outline>
</glyph>
<glyph name="afii10068" format="1">
  <advance width="300"/>
  <unicode hex="0433"/>
  <outline>
    <contour>
      <point x="140" y="0" type="line" name="hr00"/>
      <point x="140" y="480" type="line"/>
      <point x="300" y="480" type="line"/>
      <point x="300" y="500" type="line"/>
      <point x="60" y="500" type="line"/>
      <point x="60" y="0" type="line"/>
    </contour>
  </outline>
</glyph>
